Alegreya-Regular.ufo
<glyph name="exclam" format="2">
  <advance width="285"/>
  <unicode hex="0021"/>
  <outline>
    <contour>
      <point x="117" y="202" type="line"/>
      <point x="145" y="209" type="line"/>
      <point x="197" y="683" type="line"/>
      <point x="188" y="694" type="line"/>
      <point x="105" y="676" type="line"/>
      <point x="98" y="666" type="line"/>
      <point x="106" y="210" type="line"/>
    </contour>
    <contour>
      <point x="117" y="-12" type="curve" smooth="yes"/>
      <point x="156" y="-12"/>
      <point x="180" y="16"/>
      <point x="180" y="50" type="curve" smooth="yes"/>
      <point x="180" y="81"/>
      <point x="160" y="107"/>
      <point x="123" y="107" type="curve" smooth="yes"/>
      <point x="85" y="107"/>
      <point x="61" y="79"/>
      <point x="61" y="45" type="curve" smooth="yes"/>
      <point x="61" y="16"/>
      <point x="79" y="-12"/>
    </contour>
  </outline>
</glyph>
<glyph name="numbersign" format="2">
  <advance width="498"/>
  <unicode hex="0023"/>
  <outline>
    <contour>
      <point x="95" y="35" type="line"/>
      <point x="134" y="43" type="line"/>
      <point x="171" y="209" type="line"/>
      <point x="207" y="210" type="line"/>
      <point x="277" y="209" type="line"/>
      <point x="240" y="41" type="line"/>
      <point x="247" y="35" type="line"/>
      <point x="286" y="43" type="line"/>
      <point x="322" y="208" type="line"/>
      <point x="424" y="207" type="line"/>
      <point x="443" y="243" type="line"/>
      <point x="439" y="252" type="line"/>
      <point x="332" y="252" type="line"/>
      <point x="348" y="323" type="line"/>
      <point x="357" y="362" type="line"/>
      <point x="461" y="361" type="line"/>
      <point x="480" y="397" type="line"/>
      <point x="476" y="406" type="line"/>
      <point x="368" y="406" type="line"/>
      <point x="407" y="567" type="line"/>
      <point x="399" y="573" type="line"/>
      <point x="359" y="568" type="line"/>
      <point x="322" y="406" type="line"/>
      <point x="269" y="407" type="line"/>
      <point x="216" y="407" type="line"/>
      <point x="255" y="567" type="line"/>
      <point x="247" y="573" type="line"/>
      <point x="207" y="568" type="line"/>
      <point x="170" y="408" type="line"/>
      <point x="63" y="409" type="line"/>
      <point x="48" y="372" type="line"/>
      <point x="51" y="362" type="line"/>
      <point x="160" y="363" type="line"/>
      <point x="148" y="311" type="line"/>
      <point x="135" y="254" type="line"/>
      <point x="26" y="255" type="line"/>
      <point x="11" y="218" type="line"/>
      <point x="14" y="208" type="line"/>
      <point x="125" y="209" type="line"/>
      <point x="88" y="41" type="line"/>
    </contour>
    <contour>
      <point x="287" y="252" type="line"/>
      <point x="232" y="253" type="line"/>
      <point x="180" y="253" type="line"/>
      <point x="196" y="323" type="line"/>
      <point x="206" y="363" type="line"/>
      <point x="244" y="364" type="line"/>
      <point x="312" y="363" type="line"/>
      <point x="300" y="311" type="line"/>
    </contour>
  </outline>
</glyph>
<glyph name="ampersand" format="2">
  <advance width="700"/>
  <unicode hex="0026"/>
  <outline>
    <contour>
      <point x="595" y="-28" type="curve" smooth="yes"/>
      <point x="610" y="-28"/>
      <point x="657" y="3"/>
      <point x="657" y="3" type="curve"/>
      <point x="657" y="19" type="line"/>
      <point x="517" y="137" type="line"/>
      <point x="543" y="177"/>
      <point x="557" y="221"/>
      <point x="557" y="263" type="curve" smooth="yes"/>
      <point x="557" y="301"/>
      <point x="542" y="337"/>
      <point x="515" y="361" type="curve"/>
      <point x="518" y="367" type="line"/>
      <point x="618" y="367" type="line" smooth="yes"/>
      <point x="669" y="367"/>
      <point x="679" y="370"/>
      <point x="688" y="387" type="curve"/>
      <point x="701" y="418" type="line"/>
      <point x="691" y="442" type="line"/>
      <point x="688" y="438"/>
      <point x="676" y="436"/>
      <point x="614" y="431" type="curve"/>
      <point x="408" y="419" type="line" smooth="yes"/>
      <point x="376" y="417"/>
      <point x="355" y="401"/>
      <point x="355" y="401" type="curve"/>
      <point x="369" y="358" type="line"/>
      <point x="369" y="358"/>
      <point x="399" y="367"/>
      <point x="426" y="367" type="curve" smooth="yes"/>
      <point x="480" y="367"/>
      <point x="504" y="329"/>
      <point x="504" y="249" type="curve" smooth="yes"/>
      <point x="504" y="216"/>
      <point x="498" y="187"/>
      <point x="486" y="163" type="curve"/>
      <point x="326" y="301" type="line" smooth="yes"/>
      <point x="208" y="402"/>
      <point x="175" y="448"/>
      <point x="175" y="514" type="curve" smooth="yes"/>
      <point x="175" y="560"/>
      <point x="209" y="590"/>
      <point x="263" y="590" type="curve" smooth="yes"/>
      <point x="300" y="590"/>
      <point x="321" y="580"/>
      <point x="369" y="536" type="curve"/>
      <point x="372" y="536"/>
      <point x="376" y="537"/>
      <point x="379" y="537" type="curve"/>
      <point x="427" y="611" type="line"/>
      <point x="425" y="626" type="line"/>
      <point x="425" y="626"/>
      <point x="377" y="649"/>
      <point x="304" y="649" type="curve" smooth="yes"/>
      <point x="191" y="649"/>
      <point x="105" y="581"/>
      <point x="105" y="490" type="curve" smooth="yes"/>
      <point x="105" y="442"/>
      <point x="131" y="392"/>
      <point x="187" y="333" type="curve"/>
      <point x="187" y="326" type="line"/>
      <point x="187" y="326"/>
      <point x="55" y="275"/>
      <point x="55" y="160" type="curve" smooth="yes"/>
      <point x="55" y="54"/>
      <point x="138" y="-12"/>
      <point x="269" y="-12" type="curve" smooth="yes"/>
      <point x="337" y="-12"/>
      <point x="412" y="22"/>
      <point x="468" y="78" type="curve"/>
      <point x="546" y="8"/>
      <point x="589" y="-28"/>
    </contour>
    <contour>
      <point x="297" y="51" type="curve" smooth="yes"/>
      <point x="196" y="51"/>
      <point x="130" y="102"/>
      <point x="130" y="180" type="curve" smooth="yes"/>
      <point x="130" y="231"/>
      <point x="164" y="279"/>
      <point x="216" y="303" type="curve"/>
      <point x="441" y="102" type="line"/>
      <point x="403" y="69"/>
      <point x="352" y="51"/>
    </contour>
  </outline>
</glyph>
<glyph name="quotesingle" format="2">
  <advance width="176"/>
  <unicode hex="0027"/>
  <outline>
    <contour>
      <point x="71" y="415" type="line"/>
      <point x="96" y="429" type="line"/>
      <point x="117" y="531"/>
      <point x="131" y="641"/>
      <point x="131" y="641" type="curve"/>
      <point x="124" y="649" type="line"/>
      <point x="54" y="635" type="line"/>
      <point x="54" y="635"/>
      <point x="64" y="527"/>
      <point x="60" y="417" type="curve"/>
    </contour>
  </outline>
</glyph>
<glyph name="parenleft" format="2">
  <advance width="275"/>
  <unicode hex="0028"/>
  <outline>
    <contour>
      <point x="242" y="-146" type="curve"/>
      <point x="246" y="-146" type="line"/>
      <point x="267" y="-120" type="line"/>
      <point x="267" y="-115" type="line"/>
      <point x="267" y="-115"/>
      <point x="124" y="-45"/>
      <point x="124" y="178" type="curve" smooth="yes"/>
      <point x="124" y="351" type="line" smooth="yes"/>
      <point x="124" y="558"/>
      <point x="261" y="616"/>
      <point x="261" y="616" type="curve"/>
      <point x="262" y="620" type="line"/>
      <point x="249" y="649" type="line"/>
      <point x="245" y="649" type="line"/>
      <point x="245" y="649"/>
      <point x="57" y="581"/>
      <point x="57" y="336" type="curve" smooth="yes"/>
      <point x="57" y="163" type="line"/>
      <point x="57" y="-79"/>
      <point x="242" y="-146"/>
    </contour>
  </outline>
</glyph>
<glyph name="parenright" format="2">
  <advance width="274"/>
  <unicode hex="0029"/>
  <outline>
    <contour>
      <point x="25" y="-146" type="line"/>
      <point x="29" y="-146" type="line"/>
      <point x="29" y="-146"/>
      <point x="217" y="-78"/>
      <point x="217" y="167" type="curve" smooth="yes"/>
      <point x="217" y="340" type="line"/>
      <point x="217" y="582"/>
      <point x="32" y="649"/>
      <point x="32" y="649" type="curve"/>
      <point x="28" y="649" type="line"/>
      <point x="7" y="623" type="line"/>
      <point x="7" y="618" type="line"/>
      <point x="7" y="618"/>
      <point x="150" y="548"/>
      <point x="150" y="325" type="curve" smooth="yes"/>
      <point x="150" y="152" type="line" smooth="yes"/>
      <point x="150" y="-55"/>
      <point x="13" y="-113"/>
      <point x="13" y="-113" type="curve"/>
      <point x="12" y="-117" type="line"/>
    </contour>
  </outline>
</glyph>
<glyph name="asterisk" format="2">
  <advance width="456"/>
  <unicode hex="002A"/>
  <outline>
    <contour>
      <point x="154" y="434" type="curve" smooth="yes"/>
      <point x="154" y="434"/>
      <point x="182" y="483"/>
      <point x="214" y="526" type="curve"/>
      <point x="211" y="533" type="line"/>
      <point x="182" y="549" type="line"/>
      <point x="135" y="517"/>
      <point x="91" y="473"/>
      <point x="91" y="473" type="curve"/>
      <point x="92" y="464" type="line"/>
      <point x="118" y="446"/>
      <point x="154" y="434"/>
    </contour>
    <contour>
      <point x="174" y="565" type="curve"/>
      <point x="180" y="570" type="line"/>
      <point x="186" y="603" type="line"/>
      <point x="141" y="637"/>
      <point x="86" y="666"/>
      <point x="86" y="666" type="curve"/>
      <point x="77" y="662" type="line"/>
      <point x="68" y="632"/>
      <point x="68" y="594"/>
      <point x="68" y="594" type="curve" smooth="yes"/>
      <point x="68" y="594"/>
      <point x="123" y="582"/>
    </contour>
    <contour>
      <point x="285" y="417" type="line"/>
      <point x="310" y="436"/>
      <point x="332" y="466"/>
      <point x="332" y="466" type="curve" smooth="yes"/>
      <point x="332" y="466"/>
      <point x="295" y="508"/>
      <point x="264" y="552" type="curve"/>
      <point x="256" y="551" type="line"/>
      <point x="232" y="528" type="line"/>
      <point x="248" y="474"/>
      <point x="276" y="418"/>
      <point x="276" y="418" type="curve"/>
    </contour>
    <contour>
      <point x="205" y="611" type="line"/>
      <point x="239" y="616" type="line"/>
      <point x="257" y="669"/>
      <point x="268" y="730"/>
      <point x="268" y="730" type="curve"/>
      <point x="261" y="737" type="line"/>
      <point x="230" y="737"/>
      <point x="194" y="725"/>
      <point x="194" y="725" type="curve" smooth="yes"/>
      <point x="194" y="725"/>
      <point x="199" y="669"/>
      <point x="199" y="615" type="curve"/>
    </contour>
    <contour>
      <point x="267" y="570" type="line"/>
      <point x="323" y="568"/>
      <point x="385" y="577"/>
      <point x="385" y="577" type="curve"/>
      <point x="389" y="586" type="line"/>
      <point x="379" y="615"/>
      <point x="357" y="646"/>
      <point x="357" y="646" type="curve" smooth="yes"/>
      <point x="357" y="646"/>
      <point x="306" y="623"/>
      <point x="254" y="607" type="curve"/>
      <point x="253" y="599" type="line"/>
    </contour>
  </outline>
</glyph>
<glyph name="comma" format="2">
  <advance width="294"/>
  <unicode hex="002C"/>
  <outline>
    <contour>
      <point x="81" y="-157" type="line"/>
      <point x="141" y="-122"/>
      <point x="221" y="-56"/>
      <point x="221" y="21" type="curve" smooth="yes"/>
      <point x="221" y="72"/>
      <point x="198" y="99"/>
      <point x="170" y="99" type="curve" smooth="yes"/>
      <point x="148" y="99"/>
      <point x="125" y="83"/>
      <point x="112" y="73" type="curve"/>
      <point x="110" y="59" type="line"/>
      <point x="127" y="43"/>
      <point x="142" y="17"/>
      <point x="142" y="-11" type="curve" smooth="yes"/>
      <point x="142" y="-54"/>
      <point x="108" y="-101"/>
      <point x="63" y="-132" type="curve"/>
      <point x="63" y="-142" type="line"/>
    </contour>
  </outline>
</glyph>
<glyph name="hyphen" format="2">
  <advance width="380"/>
  <unicode hex="002D"/>
  <outline>
    <contour>
      <point x="71" y="210" type="line"/>
      <point x="311" y="236" type="line"/>
      <point x="316" y="290" type="line"/>
      <point x="309" y="299" type="line"/>
      <point x="309" y="299"/>
      <point x="290" y="295"/>
      <point x="244" y="290" type="curve" smooth="yes"/>
      <point x="70" y="270" type="line"/>
      <point x="64" y="218" type="line"/>
    </contour>
  </outline>
</glyph>
<glyph name="period" format="2">
  <advance width="305"/>
  <unicode hex="002E"/>
  <outline>
    <contour>
      <point x="149" y="-12" type="curve" smooth="yes"/>
      <point x="188" y="-12"/>
      <point x="212" y="16"/>
      <point x="212" y="50" type="curve" smooth="yes"/>
      <point x="212" y="81"/>
      <point x="192" y="107"/>
      <point x="155" y="107" type="curve" smooth="yes"/>
      <point x="117" y="107"/>
      <point x="93" y="79"/>
      <point x="93" y="45" type="curve" smooth="yes"/>
      <point x="93" y="16"/>
      <point x="111" y="-12"/>
    </contour>
  </outline>
</glyph>
<glyph name="zero" format="2">
  <advance width="533"/>
  <unicode hex="0030"/>
  <outline>
    <contour>
      <point x="253" y="-12" type="curve" smooth="yes"/>
      <point x="393" y="-12"/>
      <point x="495" y="104"/>
      <point x="495" y="263" type="curve" smooth="yes"/>
      <point x="495" y="406"/>
      <point x="407" y="505"/>
      <point x="281" y="505" type="curve" smooth="yes"/>
      <point x="141" y="505"/>
      <point x="38" y="391"/>
      <point x="38" y="235" type="curve" smooth="yes"/>
      <point x="38" y="87"/>
      <point x="124" y="-12"/>
    </contour>
    <contour>
      <point x="271" y="64" type="curve" smooth="yes"/>
      <point x="166" y="64"/>
      <point x="94" y="140"/>
      <point x="94" y="250" type="curve" smooth="yes"/>
      <point x="94" y="355"/>
      <point x="160" y="424"/>
      <point x="260" y="424" type="curve" smooth="yes"/>
      <point x="365" y="424"/>
      <point x="439" y="346"/>
      <point x="439" y="235" type="curve" smooth="yes"/>
      <point x="439" y="133"/>
      <point x="371" y="64"/>
    </contour>
  </outline>
</glyph>
<glyph name="one" format="2">
  <advance width="342"/>
  <unicode hex="0031"/>
  <outline>
    <contour>
      <point x="49" y="-12" type="line"/>
      <point x="49" y="-12"/>
      <point x="124" y="0"/>
      <point x="175" y="0" type="curve" smooth="yes"/>
      <point x="224" y="0"/>
      <point x="308" y="-3"/>
      <point x="308" y="-3" type="curve"/>
      <point x="317" y="43" type="line"/>
      <point x="315" y="47" type="line"/>
      <point x="315" y="47"/>
      <point x="286" y="44"/>
      <point x="262" y="44" type="curve" smooth="yes"/>
      <point x="223" y="44"/>
      <point x="213" y="59"/>
      <point x="213" y="112" type="curve" smooth="yes"/>
      <point x="213" y="163"/>
      <point x="215" y="298"/>
      <point x="219" y="404" type="curve"/>
      <point x="222" y="450"/>
      <point x="230" y="466"/>
      <point x="256" y="488" type="curve"/>
      <point x="250" y="505" type="line"/>
      <point x="248" y="505"/>
      <point x="248" y="503"/>
      <point x="149" y="487" type="curve" smooth="yes"/>
      <point x="98" y="479"/>
      <point x="39" y="472"/>
      <point x="39" y="472" type="curve"/>
      <point x="35" y="430" type="line"/>
      <point x="38" y="427" type="line"/>
      <point x="38" y="427"/>
      <point x="70" y="433"/>
      <point x="91" y="433" type="curve" smooth="yes"/>
      <point x="125" y="433"/>
      <point x="145" y="427"/>
      <point x="145" y="376" type="curve" smooth="yes"/>
      <point x="145" y="148" type="line" smooth="yes"/>
      <point x="145" y="60"/>
      <point x="129" y="40"/>
      <point x="55" y="34" type="curve"/>
    </contour>
  </outline>
</glyph>
<glyph name="two" format="2">
  <advance width="475"/>
  <unicode hex="0032"/>
  <outline>
    <contour>
      <point x="27" y="6" type="line"/>
      <point x="37" y="-12" type="line"/>
      <point x="91" y="0" type="line"/>
      <point x="177" y="0"/>
      <point x="412" y="-7"/>
      <point x="412" y="-7" type="curve"/>
      <point x="424" y="0" type="line"/>
      <point x="432" y="73"/>
      <point x="453" y="157"/>
      <point x="453" y="157" type="curve"/>
      <point x="413" y="152" type="line"/>
      <point x="393" y="76"/>
      <point x="374" y="61"/>
      <point x="301" y="61" type="curve" smooth="yes"/>
      <point x="148" y="61" type="line"/>
      <point x="144" y="68" type="line"/>
      <point x="307" y="252"/>
      <point x="357" y="325"/>
      <point x="357" y="385" type="curve" smooth="yes"/>
      <point x="357" y="457"/>
      <point x="303" y="505"/>
      <point x="220" y="505" type="curve" smooth="yes"/>
      <point x="156" y="505"/>
      <point x="84" y="458"/>
      <point x="51" y="394" type="curve"/>
      <point x="62" y="349" type="line"/>
      <point x="71" y="349" type="line"/>
      <point x="101" y="403"/>
      <point x="149" y="438"/>
      <point x="194" y="438" type="curve" smooth="yes"/>
      <point x="241" y="438"/>
      <point x="269" y="410"/>
      <point x="269" y="362" type="curve" smooth="yes"/>
      <point x="269" y="306"/>
      <point x="218" y="221"/>
      <point x="106" y="94" type="curve" smooth="yes"/>
    </contour>
  </outline>
</glyph>
<glyph name="three" format="2">
  <advance width="416"/>
  <unicode hex="0033"/>
  <outline>
    <contour>
      <point x="87" y="-105" type="curve" smooth="yes"/>
      <point x="215" y="-105"/>
      <point x="360" y="16"/>
      <point x="360" y="122" type="curve" smooth="yes"/>
      <point x="360" y="183"/>
      <point x="315" y="225"/>
      <point x="225" y="246" type="curve"/>
      <point x="225" y="251" type="line"/>
      <point x="292" y="285"/>
      <point x="335" y="340"/>
      <point x="335" y="393" type="curve" smooth="yes"/>
      <point x="335" y="461"/>
      <point x="283" y="505"/>
      <point x="205" y="505" type="curve" smooth="yes"/>
      <point x="131" y="505"/>
      <point x="40" y="433"/>
      <point x="40" y="433" type="curve"/>
      <point x="50" y="391" type="line"/>
      <point x="53" y="391"/>
      <point x="57" y="391"/>
      <point x="60" y="391" type="curve"/>
      <point x="90" y="421"/>
      <point x="136" y="442"/>
      <point x="174" y="442" type="curve" smooth="yes"/>
      <point x="218" y="442"/>
      <point x="252" y="414"/>
      <point x="252" y="372" type="curve" smooth="yes"/>
      <point x="252" y="328"/>
      <point x="214" y="280"/>
      <point x="161" y="255" type="curve"/>
      <point x="96" y="239" type="line"/>
      <point x="101" y="204" type="line"/>
      <point x="106" y="199" type="line"/>
      <point x="228" y="198"/>
      <point x="285" y="166"/>
      <point x="285" y="98" type="curve" smooth="yes"/>
      <point x="285" y="22"/>
      <point x="208" y="-35"/>
      <point x="108" y="-35" type="curve" smooth="yes"/>
      <point x="83" y="-35"/>
      <point x="56" y="-32"/>
      <point x="28" y="-26" type="curve"/>
      <point x="23" y="-32" type="line"/>
      <point x="24" y="-84"/>
      <point x="42" y="-105"/>
    </contour>
  </outline>
</glyph>
<glyph name="four" format="2">
  <advance width="453"/>
  <unicode hex="0034"/>
  <outline>
    <contour>
      <point x="260" y="-105" type="line"/>
      <point x="331" y="-93" type="line"/>
      <point x="336" y="-86" type="line"/>
      <point x="336" y="-86"/>
      <point x="330" y="2"/>
      <point x="329" y="83" type="curve"/>
      <point x="383" y="81"/>
      <point x="420" y="80"/>
      <point x="420" y="80" type="curve"/>
      <point x="428" y="135" type="line"/>
      <point x="422" y="143" type="line"/>
      <point x="329" y="143" type="line"/>
      <point x="329" y="495" type="line"/>
      <point x="297" y="505" type="line"/>
      <point x="296" y="505"/>
      <point x="294" y="504"/>
      <point x="293" y="504" type="curve"/>
      <point x="17" y="126" type="line"/>
      <point x="16" y="114"/>
      <point x="14" y="101"/>
      <point x="13" y="89" type="curve"/>
      <point x="91" y="89"/>
      <point x="183" y="87"/>
      <point x="260" y="85" type="curve"/>
      <point x="259" y="7"/>
      <point x="254" y="-96"/>
      <point x="254" y="-96" type="curve"/>
    </contour>
    <contour>
      <point x="90" y="143" type="line"/>
      <point x="251" y="367" type="line"/>
      <point x="260" y="367" type="line"/>
      <point x="260" y="143" type="line"/>
    </contour>
  </outline>
</glyph>
<glyph name="five" format="2">
  <advance width="430"/>
  <unicode hex="0035"/>
  <outline>
    <contour>
      <point x="79" y="-105" type="curve" smooth="yes"/>
      <point x="199" y="-105"/>
      <point x="364" y="6"/>
      <point x="364" y="128" type="curve" smooth="yes"/>
      <point x="364" y="223"/>
      <point x="258" y="265"/>
      <point x="124" y="296" type="curve"/>
      <point x="131" y="422" type="line"/>
      <point x="247" y="422"/>
      <point x="350" y="414"/>
      <point x="350" y="414" type="curve"/>
      <point x="356" y="420" type="line"/>
      <point x="380" y="538" type="line"/>
      <point x="347" y="534" type="line"/>
      <point x="336" y="504"/>
      <point x="323" y="497"/>
      <point x="284" y="495" type="curve" smooth="yes"/>
      <point x="95" y="487" type="line"/>
      <point x="87" y="479" type="line"/>
      <point x="87" y="479"/>
      <point x="80" y="353"/>
      <point x="70" y="235" type="curve"/>
      <point x="79" y="224" type="line"/>
      <point x="237" y="197"/>
      <point x="288" y="163"/>
      <point x="288" y="98" type="curve" smooth="yes"/>
      <point x="288" y="19"/>
      <point x="207" y="-35"/>
      <point x="102" y="-35" type="curve" smooth="yes"/>
      <point x="76" y="-35"/>
      <point x="49" y="-32"/>
      <point x="21" y="-26" type="curve"/>
      <point x="16" y="-32" type="line"/>
      <point x="19" y="-91"/>
      <point x="41" y="-105"/>
    </contour>
  </outline>
</glyph>
<glyph name="six" format="2">
  <advance width="462"/>
  <unicode hex="0036"/>
  <outline>
    <contour>
      <point x="230" y="-12" type="curve" smooth="yes"/>
      <point x="343" y="-12"/>
      <point x="429" y="71"/>
      <point x="429" y="180" type="curve" smooth="yes"/>
      <point x="429" y="273"/>
      <point x="354" y="344"/>
      <point x="256" y="344" type="curve"/>
      <point x="239" y="344"/>
      <point x="196" y="324"/>
      <point x="145" y="292" type="curve"/>
      <point x="131" y="299" type="line"/>
      <point x="124" y="241" type="line"/>
      <point x="152" y="266"/>
      <point x="199" y="285"/>
      <point x="234" y="285" type="curve" smooth="yes"/>
      <point x="301" y="285"/>
      <point x="355" y="227"/>
      <point x="355" y="156" type="curve" smooth="yes"/>
      <point x="355" y="82"/>
      <point x="315" y="36"/>
      <point x="250" y="36" type="curve" smooth="yes"/>
      <point x="176" y="36"/>
      <point x="130" y="100"/>
      <point x="130" y="203" type="curve" smooth="yes"/>
      <point x="130" y="360"/>
      <point x="228" y="490"/>
      <point x="400" y="563" type="curve"/>
      <point x="389" y="593" type="line"/>
      <point x="382" y="598" type="line"/>
      <point x="174" y="524"/>
      <point x="50" y="374"/>
      <point x="50" y="197" type="curve" smooth="yes"/>
      <point x="50" y="74"/>
      <point x="124" y="-12"/>
    </contour>
  </outline>
</glyph>
<glyph name="seven" format="2">
  <advance width="420"/>
  <unicode hex="0037"/>
  <outline>
    <contour>
      <point x="162" y="-105" type="line"/>
      <point x="169" y="-105" type="line"/>
      <point x="194" y="-19" type="line"/>
      <point x="233" y="70"/>
      <point x="303" y="233"/>
      <point x="418" y="465" type="curve"/>
      <point x="396" y="493" type="line"/>
      <point x="185" y="493" type="line" smooth="yes"/>
      <point x="123" y="493"/>
      <point x="63" y="497"/>
      <point x="63" y="497" type="curve"/>
      <point x="57" y="492" type="line"/>
      <point x="52" y="416"/>
      <point x="38" y="319"/>
      <point x="38" y="319" type="curve"/>
      <point x="77" y="325" type="line"/>
      <point x="90" y="396"/>
      <point x="101" y="415"/>
      <point x="169" y="418" type="curve" smooth="yes"/>
      <point x="342" y="425" type="line"/>
      <point x="92" y="-65" type="line"/>
      <point x="102" y="-87" type="line"/>
    </contour>
  </outline>
</glyph>
<glyph name="nine" format="2">
  <advance width="455"/>
  <unicode hex="0039"/>
  <outline>
    <contour>
      <point x="82" y="-105" type="line"/>
      <point x="290" y="-31"/>
      <point x="414" y="119"/>
      <point x="414" y="296" type="curve" smooth="yes"/>
      <point x="414" y="419"/>
      <point x="340" y="505"/>
      <point x="234" y="505" type="curve" smooth="yes"/>
      <point x="121" y="505"/>
      <point x="35" y="422"/>
      <point x="35" y="313" type="curve" smooth="yes"/>
      <point x="35" y="220"/>
      <point x="110" y="149"/>
      <point x="208" y="149" type="curve"/>
      <point x="225" y="149"/>
      <point x="268" y="169"/>
      <point x="319" y="201" type="curve"/>
      <point x="333" y="194" type="line"/>
      <point x="340" y="252" type="line"/>
      <point x="312" y="227"/>
      <point x="265" y="208"/>
      <point x="230" y="208" type="curve" smooth="yes"/>
      <point x="163" y="208"/>
      <point x="109" y="266"/>
      <point x="109" y="337" type="curve" smooth="yes"/>
      <point x="109" y="411"/>
      <point x="149" y="457"/>
      <point x="214" y="457" type="curve" smooth="yes"/>
      <point x="288" y="457"/>
      <point x="334" y="393"/>
      <point x="334" y="290" type="curve" smooth="yes"/>
      <point x="334" y="133"/>
      <point x="236" y="3"/>
      <point x="64" y="-70" type="curve"/>
      <point x="75" y="-100" type="line"/>
    </contour>
  </outline>
</glyph>
<glyph name="at" format="2">
  <advance width="832"/>
  <unicode hex="0040"/>
  <outline>
    <contour>
      <point x="431" y="-209" type="curve"/>
      <point x="457" y="-173" type="line"/>
      <point x="457" y="-171"/>
      <point x="457" y="-168"/>
      <point x="457" y="-166" type="curve"/>
      <point x="210" y="-152"/>
      <point x="104" y="13"/>
      <point x="104" y="206" type="curve" smooth="yes"/>
      <point x="104" y="394"/>
      <point x="232" y="557"/>
      <point x="435" y="557" type="curve" smooth="yes"/>
      <point x="612" y="557"/>
      <point x="730" y="456"/>
      <point x="730" y="280" type="curve" smooth="yes"/>
      <point x="730" y="146"/>
      <point x="659" y="54"/>
      <point x="513" y="54" type="curve"/>
      <point x="509" y="58" type="line"/>
      <point x="535" y="244"/>
      <point x="593" y="443"/>
      <point x="593" y="443" type="curve"/>
      <point x="585" y="455" type="line"/>
      <point x="554" y="470" type="line"/>
      <point x="549" y="469" type="line"/>
      <point x="540" y="444" type="line"/>
      <point x="440" y="460" type="line"/>
      <point x="333" y="460"/>
      <point x="211" y="294"/>
      <point x="211" y="124" type="curve" smooth="yes"/>
      <point x="211" y="44"/>
      <point x="237" y="-12"/>
      <point x="291" y="-12" type="curve"/>
      <point x="352" y="31"/>
      <point x="412" y="102"/>
      <point x="478" y="227" type="curve"/>
      <point x="484" y="225" type="line"/>
      <point x="484" y="225"/>
      <point x="441" y="36"/>
      <point x="441" y="17" type="curve" smooth="yes"/>
      <point x="441" y="-2"/>
      <point x="453" y="-12"/>
      <point x="477" y="-12" type="curve" smooth="yes"/>
      <point x="689" y="-12"/>
      <point x="799" y="142"/>
      <point x="799" y="304" type="curve" smooth="yes"/>
      <point x="799" y="477"/>
      <point x="661" y="613"/>
      <point x="460" y="613" type="curve" smooth="yes"/>
      <point x="199" y="613"/>
      <point x="33" y="406"/>
      <point x="33" y="188" type="curve" smooth="yes"/>
      <point x="33" y="-20"/>
      <point x="170" y="-197"/>
    </contour>
    <contour>
      <point x="310" y="69" type="curve" smooth="yes"/>
      <point x="293" y="69"/>
      <point x="281" y="118"/>
      <point x="281" y="173" type="curve" smooth="yes"/>
      <point x="281" y="296"/>
      <point x="346" y="406"/>
      <point x="409" y="406" type="curve" smooth="yes"/>
      <point x="450" y="406"/>
      <point x="497" y="381"/>
      <point x="510" y="373" type="curve"/>
      <point x="433" y="195"/>
      <point x="345" y="69"/>
    </contour>
  </outline>
</glyph>
<glyph name="C" format="2">
  <advance width="626"/>
  <unicode hex="0043"/>
  <anchor x="314" y="0" name="bottom"/>
  <anchor x="335" y="647" name="top"/>
  <outline>
    <contour>
      <point x="339" y="-12" type="curve" smooth="yes"/>
      <point x="458" y="-12"/>
      <point x="544" y="28"/>
      <point x="544" y="28" type="curve"/>
      <point x="550" y="37" type="line"/>
      <point x="557" y="109"/>
      <point x="577" y="200"/>
      <point x="577" y="200" type="curve"/>
      <point x="529" y="196" type="line"/>
      <point x="504" y="88"/>
      <point x="450" y="38"/>
      <point x="359" y="38" type="curve" smooth="yes"/>
      <point x="221" y="38"/>
      <point x="130" y="154"/>
      <point x="130" y="330" type="curve" smooth="yes"/>
      <point x="130" y="489"/>
      <point x="216" y="590"/>
      <point x="350" y="590" type="curve" smooth="yes"/>
      <point x="448" y="590"/>
      <point x="497" y="559"/>
      <point x="497" y="497" type="curve" smooth="yes"/>
      <point x="497" y="475"/>
      <point x="494" y="448"/>
      <point x="494" y="448" type="curve"/>
      <point x="542" y="452" type="line"/>
      <point x="548" y="544"/>
      <point x="567" y="619"/>
      <point x="567" y="619" type="curve"/>
      <point x="563" y="625" type="line"/>
      <point x="563" y="625"/>
      <point x="472" y="649"/>
      <point x="389" y="649" type="curve" smooth="yes"/>
      <point x="187" y="649"/>
      <point x="40" y="500"/>
      <point x="40" y="297" type="curve" smooth="yes"/>
      <point x="40" y="108"/>
      <point x="157" y="-12"/>
    </contour>
  </outline>
</glyph>
<glyph name="D" format="2">
  <advance width="703"/>
  <unicode hex="0044"/>
  <anchor x="338" y="0" name="bottom"/>
  <anchor x="341" y="324" name="center"/>
  <anchor x="347" y="647" name="top"/>
  <outline>
    <contour>
      <point x="317" y="-12" type="curve"/>
      <point x="511" y="-12"/>
      <point x="663" y="143"/>
      <point x="663" y="342" type="curve" smooth="yes"/>
      <point x="663" y="520"/>
      <point x="529" y="641"/>
      <point x="334" y="641" type="curve" smooth="yes"/>
      <point x="334" y="641"/>
      <point x="228" y="637"/>
      <point x="182" y="637" type="curve" smooth="yes"/>
      <point x="144" y="637"/>
      <point x="77" y="640"/>
      <point x="77" y="640" type="curve"/>
      <point x="70" y="596" type="line"/>
      <point x="72" y="592" type="line"/>
      <point x="72" y="592"/>
      <point x="94" y="594"/>
      <point x="106" y="594" type="curve" smooth="yes"/>
      <point x="136" y="594"/>
      <point x="143" y="583"/>
      <point x="143" y="540" type="curve" smooth="yes"/>
      <point x="142" y="120" type="line" smooth="yes"/>
      <point x="142" y="64"/>
      <point x="126" y="46"/>
      <point x="64" y="34" type="curve"/>
      <point x="58" y="-12" type="line"/>
      <point x="58" y="-12"/>
      <point x="123" y="0"/>
      <point x="173" y="0" type="curve" smooth="yes"/>
      <point x="224" y="0"/>
      <point x="317" y="-12"/>
    </contour>
    <contour>
      <point x="265" y="592" type="curve" smooth="yes"/>
      <point x="462" y="592"/>
      <point x="572" y="494"/>
      <point x="572" y="318" type="curve" smooth="yes"/>
      <point x="572" y="145"/>
      <point x="484" y="39"/>
      <point x="340" y="39" type="curve" smooth="yes"/>
      <point x="239" y="39"/>
      <point x="214" y="58"/>
      <point x="214" y="131" type="curve" smooth="yes"/>
      <point x="214" y="176"/>
      <point x="220" y="339"/>
      <point x="229" y="570" type="curve" smooth="yes"/>
      <point x="230" y="588"/>
      <point x="237" y="592"/>
    </contour>
  </outline>
</glyph>
<glyph name="E" format="2">
  <advance width="591"/>
  <unicode hex="0045"/>
  <anchor x="318" y="0" name="bottom"/>
  <anchor x="524" y="40" name="ogonek"/>
  <anchor x="326" y="647" name="top"/>
  <outline>
    <contour>
      <point x="58" y="-10" type="line"/>
      <point x="97" y="-4"/>
      <point x="155" y="0"/>
      <point x="197" y="0" type="curve" smooth="yes"/>
      <point x="252" y="0"/>
      <point x="380" y="-3"/>
      <point x="500" y="-7" type="curve"/>
      <point x="505" y="-1" type="line"/>
      <point x="511" y="53"/>
      <point x="523" y="125"/>
      <point x="532" y="167" type="curve"/>
      <point x="529" y="172" type="line"/>
      <point x="485" y="167" type="line"/>
      <point x="469" y="57"/>
      <point x="450" y="45"/>
      <point x="292" y="45" type="curve" smooth="yes"/>
      <point x="220" y="45"/>
      <point x="213" y="51"/>
      <point x="213" y="105" type="curve"/>
      <point x="217" y="315" type="line"/>
      <point x="227" y="548" type="line"/>
      <point x="228" y="585"/>
      <point x="232" y="587"/>
      <point x="297" y="587" type="curve" smooth="yes"/>
      <point x="438" y="587"/>
      <point x="450" y="581"/>
      <point x="450" y="516" type="curve" smooth="yes"/>
      <point x="450" y="506"/>
      <point x="449" y="485"/>
      <point x="448" y="473" type="curve"/>
      <point x="496" y="477" type="line"/>
      <point x="499" y="527"/>
      <point x="508" y="594"/>
      <point x="519" y="643" type="curve"/>
      <point x="516" y="649" type="line"/>
      <point x="450" y="640"/>
      <point x="375" y="637"/>
      <point x="216" y="637" type="curve" smooth="yes"/>
      <point x="172" y="637"/>
      <point x="111" y="639"/>
      <point x="77" y="640" type="curve"/>
      <point x="70" y="596" type="line"/>
      <point x="72" y="592" type="line"/>
      <point x="82" y="593"/>
      <point x="98" y="594"/>
      <point x="106" y="594" type="curve" smooth="yes"/>
      <point x="136" y="594"/>
      <point x="143" y="583"/>
      <point x="143" y="540" type="curve" smooth="yes"/>
      <point x="142" y="120" type="line" smooth="yes"/>
      <point x="142" y="63"/>
      <point x="124" y="44"/>
      <point x="64" y="36" type="curve"/>
    </contour>
    <contour>
      <point x="203" y="294" type="line"/>
      <point x="231" y="299"/>
      <point x="269" y="303"/>
      <point x="294" y="303" type="curve" smooth="yes"/>
      <point x="333" y="303"/>
      <point x="397" y="301"/>
      <point x="434" y="300" type="curve"/>
      <point x="448" y="359" type="line"/>
      <point x="444" y="364" type="line"/>
      <point x="399" y="358"/>
      <point x="344" y="353"/>
      <point x="322" y="353" type="curve" smooth="yes"/>
      <point x="288" y="353"/>
      <point x="226" y="354"/>
      <point x="212" y="354" type="curve"/>
    </contour>
  </outline>
</glyph>
<glyph name="F" format="2">
  <advance width="512"/>
  <unicode hex="0046"/>
  <anchor x="182" y="0" name="bottom"/>
  <anchor x="318" y="647" name="top"/>
  <outline>
    <contour>
      <point x="58" y="-12" type="line"/>
      <point x="58" y="-12"/>
      <point x="122" y="0"/>
      <point x="172" y="0" type="curve" smooth="yes"/>
      <point x="226" y="0"/>
      <point x="321" y="-4"/>
      <point x="321" y="-4" type="curve"/>
      <point x="330" y="43" type="line"/>
      <point x="328" y="47" type="line"/>
      <point x="328" y="47"/>
      <point x="277" y="44"/>
      <point x="257" y="44" type="curve" smooth="yes"/>
      <point x="222" y="44"/>
      <point x="213" y="58"/>
      <point x="213" y="112" type="curve"/>
      <point x="217" y="278" type="line"/>
      <point x="234" y="281"/>
      <point x="264" y="285"/>
      <point x="294" y="285" type="curve" smooth="yes"/>
      <point x="341" y="285"/>
      <point x="417" y="282"/>
      <point x="417" y="282" type="curve"/>
      <point x="431" y="342" type="line"/>
      <point x="427" y="347" type="line"/>
      <point x="427" y="347"/>
      <point x="353" y="336"/>
      <point x="322" y="336" type="curve" smooth="yes"/>
      <point x="219" y="337" type="line"/>
      <point x="227" y="548" type="line"/>
      <point x="228" y="585"/>
      <point x="232" y="587"/>
      <point x="297" y="587" type="curve" smooth="yes"/>
      <point x="419" y="587"/>
      <point x="431" y="581"/>
      <point x="431" y="516" type="curve" smooth="yes"/>
      <point x="431" y="502"/>
      <point x="429" y="470"/>
      <point x="429" y="470" type="curve"/>
      <point x="477" y="474" type="line"/>
      <point x="483" y="566"/>
      <point x="500" y="643"/>
      <point x="500" y="643" type="curve"/>
      <point x="497" y="649" type="line"/>
      <point x="434" y="640"/>
      <point x="353" y="637"/>
      <point x="216" y="637" type="curve" smooth="yes"/>
      <point x="156" y="637"/>
      <point x="77" y="640"/>
      <point x="77" y="640" type="curve"/>
      <point x="70" y="596" type="line"/>
      <point x="72" y="592" type="line"/>
      <point x="72" y="592"/>
      <point x="94" y="594"/>
      <point x="106" y="594" type="curve" smooth="yes"/>
      <point x="136" y="594"/>
      <point x="143" y="583"/>
      <point x="143" y="540" type="curve" smooth="yes"/>
      <point x="142" y="120" type="line" smooth="yes"/>
      <point x="142" y="64"/>
      <point x="126" y="46"/>
      <point x="64" y="34" type="curve"/>
    </contour>
  </outline>
</glyph>
<glyph name="G" format="2">
  <advance width="667"/>
  <unicode hex="0047"/>
  <anchor x="334" y="0" name="bottom"/>
  <anchor x="373" y="637" name="top"/>
  <outline>
    <contour>
      <point x="332" y="-12" type="curve" smooth="yes"/>
      <point x="459" y="-12"/>
      <point x="562" y="34"/>
      <point x="562" y="34" type="curve"/>
      <point x="568" y="43" type="line"/>
      <point x="564" y="60"/>
      <point x="561" y="96"/>
      <point x="561" y="131" type="curve" smooth="yes"/>
      <point x="561" y="230"/>
      <point x="568" y="265"/>
      <point x="592" y="285" type="curve"/>
      <point x="588" y="307" type="line"/>
      <point x="588" y="307"/>
      <point x="545" y="302"/>
      <point x="502" y="302" type="curve" smooth="yes"/>
      <point x="443" y="302"/>
      <point x="375" y="306"/>
      <point x="375" y="306" type="curve"/>
      <point x="366" y="256" type="line"/>
      <point x="368" y="252" type="line"/>
      <point x="368" y="252"/>
      <point x="414" y="252"/>
      <point x="437" y="252" type="curve" smooth="yes"/>
      <point x="482" y="252"/>
      <point x="492" y="243"/>
      <point x="492" y="198" type="curve" smooth="yes"/>
      <point x="492" y="76" type="line"/>
      <point x="492" y="76"/>
      <point x="435" y="38"/>
      <point x="355" y="38" type="curve" smooth="yes"/>
      <point x="217" y="38"/>
      <point x="127" y="153"/>
      <point x="127" y="329" type="curve" smooth="yes"/>
      <point x="127" y="495"/>
      <point x="216" y="590"/>
      <point x="368" y="590" type="curve" smooth="yes"/>
      <point x="474" y="590"/>
      <point x="519" y="564"/>
      <point x="519" y="502" type="curve" smooth="yes"/>
      <point x="519" y="475"/>
      <point x="516" y="448"/>
      <point x="516" y="448" type="curve"/>
      <point x="563" y="452" type="line"/>
      <point x="569" y="544"/>
      <point x="589" y="619"/>
      <point x="589" y="619" type="curve"/>
      <point x="585" y="625" type="line"/>
      <point x="585" y="625"/>
      <point x="474" y="649"/>
      <point x="391" y="649" type="curve" smooth="yes"/>
      <point x="182" y="649"/>
      <point x="40" y="506"/>
      <point x="40" y="297" type="curve" smooth="yes"/>
      <point x="40" y="108"/>
      <point x="154" y="-12"/>
    </contour>
  </outline>
</glyph>
<glyph name="H" format="2">
  <advance width="754"/>
  <unicode hex="0048"/>
  <anchor x="377" y="0" name="bottom"/>
  <anchor x="606" y="106" name="bottomright"/>
  <anchor x="377" y="319" name="center"/>
  <anchor x="377" y="637" name="top"/>
  <anchor x="20" y="637" name="topleft"/>
  <outline>
    <contour>
      <point x="58" y="-12" type="line"/>
      <point x="60" y="-7"/>
      <point x="149" y="0"/>
      <point x="210" y="0" type="curve" smooth="yes"/>
      <point x="240" y="0"/>
      <point x="295" y="-2"/>
      <point x="295" y="-3" type="curve"/>
      <point x="304" y="43" type="line"/>
      <point x="302" y="47" type="line"/>
      <point x="291" y="46"/>
      <point x="272" y="44"/>
      <point x="257" y="44" type="curve" smooth="yes"/>
      <point x="222" y="44"/>
      <point x="213" y="58"/>
      <point x="213" y="112" type="curve" smooth="yes"/>
      <point x="217" y="291" type="line"/>
      <point x="284" y="297"/>
      <point x="363" y="302"/>
      <point x="383" y="302" type="curve" smooth="yes"/>
      <point x="417" y="302"/>
      <point x="489" y="301"/>
      <point x="535" y="301" type="curve"/>
      <point x="535" y="150" type="line" smooth="yes"/>
      <point x="535" y="62"/>
      <point x="522" y="44"/>
      <point x="459" y="43" type="curve"/>
      <point x="450" y="-2" type="line"/>
      <point x="486" y="-1"/>
      <point x="540" y="0"/>
      <point x="565" y="0" type="curve" smooth="yes"/>
      <point x="597" y="0"/>
      <point x="654" y="-2"/>
      <point x="688" y="-3" type="curve"/>
      <point x="697" y="43" type="line"/>
      <point x="695" y="47" type="line"/>
      <point x="684" y="46"/>
      <point x="665" y="44"/>
      <point x="650" y="44" type="curve" smooth="yes"/>
      <point x="615" y="44"/>
      <point x="606" y="57"/>
      <point x="606" y="106" type="curve" smooth="yes"/>
      <point x="606" y="191"/>
      <point x="612" y="389"/>
      <point x="620" y="544" type="curve" smooth="yes"/>
      <point x="622" y="583"/>
      <point x="635" y="594"/>
      <point x="684" y="601" type="curve"/>
      <point x="688" y="646" type="line"/>
      <point x="648" y="641"/>
      <point x="597" y="637"/>
      <point x="568" y="637" type="curve" smooth="yes"/>
      <point x="536" y="637"/>
      <point x="470" y="639"/>
      <point x="470" y="640" type="curve"/>
      <point x="463" y="596" type="line"/>
      <point x="465" y="592" type="line"/>
      <point x="475" y="593"/>
      <point x="490" y="594"/>
      <point x="499" y="594" type="curve" smooth="yes"/>
      <point x="529" y="594"/>
      <point x="536" y="583"/>
      <point x="536" y="540" type="curve" smooth="yes"/>
      <point x="535" y="358" type="line"/>
      <point x="467" y="350"/>
      <point x="431" y="348"/>
      <point x="387" y="348" type="curve"/>
      <point x="219" y="349" type="line"/>
      <point x="225" y="511" type="line" smooth="yes"/>
      <point x="228" y="583"/>
      <point x="235" y="592"/>
      <point x="291" y="601" type="curve"/>
      <point x="295" y="646" type="line"/>
      <point x="259" y="641"/>
      <point x="213" y="637"/>
      <point x="188" y="637" type="curve" smooth="yes"/>
      <point x="160" y="637"/>
      <point x="108" y="639"/>
      <point x="77" y="640" type="curve"/>
      <point x="70" y="596" type="line"/>
      <point x="72" y="592" type="line"/>
      <point x="82" y="593"/>
      <point x="98" y="594"/>
      <point x="106" y="594" type="curve" smooth="yes"/>
      <point x="136" y="594"/>
      <point x="143" y="583"/>
      <point x="143" y="540" type="curve" smooth="yes"/>
      <point x="142" y="120" type="line" smooth="yes"/>
      <point x="142" y="64"/>
      <point x="126" y="46"/>
      <point x="64" y="34" type="curve"/>
    </contour>
  </outline>
</glyph>
<glyph name="I" format="2">
  <advance width="361"/>
  <unicode hex="0049"/>
  <anchor x="181" y="0" name="bottom"/>
  <anchor x="244" y="40" name="ogonek"/>
  <anchor x="181" y="637" name="top"/>
  <anchor x="20" y="637" name="topleft"/>
  <outline>
    <contour>
      <point x="56" y="-12" type="line"/>
      <point x="95" y="-5"/>
      <point x="143" y="0"/>
      <point x="172" y="0" type="curve" smooth="yes"/>
      <point x="206" y="0"/>
      <point x="267" y="-2"/>
      <point x="303" y="-3" type="curve"/>
      <point x="312" y="43" type="line"/>
      <point x="310" y="47" type="line"/>
      <point x="298" y="46"/>
      <point x="275" y="44"/>
      <point x="257" y="44" type="curve" smooth="yes"/>
      <point x="222" y="44"/>
      <point x="213" y="58"/>
      <point x="213" y="112" type="curve" smooth="yes"/>
      <point x="213" y="195"/>
      <point x="220" y="398"/>
      <point x="227" y="544" type="curve" smooth="yes"/>
      <point x="229" y="582"/>
      <point x="244" y="594"/>
      <point x="299" y="601" type="curve"/>
      <point x="303" y="646" type="line"/>
      <point x="264" y="641"/>
      <point x="216" y="637"/>
      <point x="188" y="637" type="curve" smooth="yes"/>
      <point x="158" y="637"/>
      <point x="103" y="639"/>
      <point x="69" y="640" type="curve"/>
      <point x="62" y="596" type="line"/>
      <point x="64" y="592" type="line"/>
      <point x="77" y="593"/>
      <point x="96" y="594"/>
      <point x="106" y="594" type="curve" smooth="yes"/>
      <point x="135" y="594"/>
      <point x="143" y="583"/>
      <point x="143" y="540" type="curve" smooth="yes"/>
      <point x="142" y="120" type="line" smooth="yes"/>
      <point x="142" y="64"/>
      <point x="125" y="46"/>
      <point x="62" y="34" type="curve"/>
    </contour>
  </outline>
</glyph>
<glyph name="J" format="2">
  <advance width="327"/>
  <unicode hex="004A"/>
  <anchor x="143" y="0" name="bottom"/>
  <anchor x="168" y="647" name="top"/>
  <outline>
    <contour>
      <point x="40" y="-144" type="line"/>
      <point x="153" y="-98"/>
      <point x="202" y="-20"/>
      <point x="203" y="116" type="curve" smooth="yes"/>
      <point x="204" y="198"/>
      <point x="212" y="455"/>
      <point x="216" y="544" type="curve" smooth="yes"/>
      <point x="218" y="586"/>
      <point x="226" y="594"/>
      <point x="273" y="601" type="curve"/>
      <point x="277" y="646" type="line"/>
      <point x="277" y="646"/>
      <point x="204" y="637"/>
      <point x="161" y="637" type="curve" smooth="yes"/>
      <point x="53" y="637" type="line"/>
      <point x="46" y="593" type="line"/>
      <point x="48" y="589" type="line"/>
      <point x="48" y="589"/>
      <point x="83" y="593"/>
      <point x="95" y="593" type="curve" smooth="yes"/>
      <point x="125" y="593"/>
      <point x="132" y="583"/>
      <point x="132" y="540" type="curve" smooth="yes"/>
      <point x="131" y="115" type="line" smooth="yes"/>
      <point x="131" y="-5"/>
      <point x="107" y="-54"/>
      <point x="26" y="-103" type="curve"/>
      <point x="23" y="-111" type="line"/>
    </contour>
  </outline>
</glyph>
<glyph name="L" format="2">
  <advance width="507"/>
  <unicode hex="004C"/>
  <anchor x="287" y="0" name="bottom"/>
  <anchor x="190" y="647" name="top"/>
  <outline>
    <contour>
      <point x="68" y="-10" type="line"/>
      <point x="68" y="-10"/>
      <point x="127" y="0"/>
      <point x="202" y="0" type="curve" smooth="yes"/>
      <point x="297" y="0"/>
      <point x="471" y="-9"/>
      <point x="471" y="-9" type="curve"/>
      <point x="476" y="-3" type="line"/>
      <point x="487" y="96"/>
      <point x="505" y="187"/>
      <point x="505" y="187" type="curve"/>
      <point x="502" y="192" type="line"/>
      <point x="458" y="187" type="line"/>
      <point x="436" y="64"/>
      <point x="415" y="45"/>
      <point x="299" y="45" type="curve" smooth="yes"/>
      <point x="224" y="45"/>
      <point x="214" y="54"/>
      <point x="214" y="122" type="curve" smooth="yes"/>
      <point x="214" y="213"/>
      <point x="217" y="383"/>
      <point x="226" y="508" type="curve" smooth="yes"/>
      <point x="231" y="575"/>
      <point x="225" y="592"/>
      <point x="292" y="601" type="curve"/>
      <point x="296" y="646" type="line"/>
      <point x="296" y="646"/>
      <point x="232" y="637"/>
      <point x="189" y="637" type="curve" smooth="yes"/>
      <point x="151" y="637"/>
      <point x="77" y="640"/>
      <point x="77" y="640" type="curve"/>
      <point x="70" y="596" type="line"/>
      <point x="72" y="592" type="line"/>
      <point x="72" y="592"/>
      <point x="94" y="594"/>
      <point x="106" y="594" type="curve" smooth="yes"/>
      <point x="136" y="594"/>
      <point x="143" y="583"/>
      <point x="143" y="540" type="curve" smooth="yes"/>
      <point x="142" y="120" type="line" smooth="yes"/>
      <point x="142" y="63"/>
      <point x="126" y="44"/>
      <point x="74" y="36" type="curve"/>
    </contour>
  </outline>
</glyph>
<glyph name="M" format="2">
  <advance width="847"/>
  <unicode hex="004D"/>
  <anchor x="402" y="0" name="bottom"/>
  <anchor x="418" y="647" name="top"/>
  <outline>
    <contour>
      <point x="397" y="-19" type="curve"/>
      <point x="421" y="-12" type="line"/>
      <point x="485" y="165"/>
      <point x="550" y="343"/>
      <point x="614" y="520" type="curve"/>
      <point x="619" y="520" type="line"/>
      <point x="619" y="520"/>
      <point x="653" y="122"/>
      <point x="653" y="88" type="curve" smooth="yes"/>
      <point x="653" y="58"/>
      <point x="635" y="43"/>
      <point x="594" y="38" type="curve"/>
      <point x="590" y="-8" type="line"/>
      <point x="590" y="-8"/>
      <point x="651" y="0"/>
      <point x="694" y="0" type="curve" smooth="yes"/>
      <point x="730" y="0"/>
      <point x="789" y="-3"/>
      <point x="789" y="-3" type="curve"/>
      <point x="798" y="42" type="line"/>
      <point x="796" y="46" type="line"/>
      <point x="796" y="46"/>
      <point x="780" y="44"/>
      <point x="768" y="44" type="curve" smooth="yes"/>
      <point x="736" y="44"/>
      <point x="728" y="61"/>
      <point x="719" y="139" type="curve"/>
      <point x="708" y="279"/>
      <point x="693" y="518"/>
      <point x="693" y="547" type="curve" smooth="yes"/>
      <point x="693" y="580"/>
      <point x="714" y="595"/>
      <point x="772" y="602" type="curve"/>
      <point x="777" y="639" type="line"/>
      <point x="775" y="643" type="line"/>
      <point x="775" y="643"/>
      <point x="697" y="637"/>
      <point x="667" y="637" type="curve" smooth="yes"/>
      <point x="647" y="637"/>
      <point x="601" y="640"/>
      <point x="601" y="639" type="curve"/>
      <point x="506" y="352"/>
      <point x="428" y="145"/>
      <point x="428" y="145" type="curve"/>
      <point x="423" y="145" type="line"/>
      <point x="423" y="145"/>
      <point x="344" y="350"/>
      <point x="254" y="641" type="curve"/>
      <point x="254" y="641"/>
      <point x="215" y="637"/>
      <point x="186" y="637" type="curve" smooth="yes"/>
      <point x="154" y="637"/>
      <point x="77" y="642"/>
      <point x="77" y="642" type="curve"/>
      <point x="69" y="607" type="line"/>
      <point x="72" y="602" type="line"/>
      <point x="132" y="598"/>
      <point x="158" y="582"/>
      <point x="158" y="547" type="curve" smooth="yes"/>
      <point x="158" y="517"/>
      <point x="123" y="188"/>
      <point x="115" y="115" type="curve" smooth="yes"/>
      <point x="109" y="61"/>
      <point x="93" y="43"/>
      <point x="51" y="38" type="curve"/>
      <point x="46" y="-8" type="line"/>
      <point x="46" y="-8"/>
      <point x="92" y="0"/>
      <point x="132" y="0" type="curve" smooth="yes"/>
      <point x="165" y="0"/>
      <point x="229" y="-4"/>
      <point x="229" y="-4" type="curve"/>
      <point x="238" y="41" type="line"/>
      <point x="236" y="45" type="line"/>
      <point x="236" y="45"/>
      <point x="205" y="44"/>
      <point x="195" y="44" type="curve" smooth="yes"/>
      <point x="174" y="44"/>
      <point x="164" y="54"/>
      <point x="164" y="75" type="curve" smooth="yes"/>
      <point x="164" y="101"/>
      <point x="200" y="520"/>
      <point x="200" y="520" type="curve"/>
      <point x="205" y="520" type="line"/>
      <point x="269" y="340"/>
      <point x="333" y="161"/>
    </contour>
  </outline>
</glyph>
<glyph name="N" format="2">
  <advance width="719"/>
  <unicode hex="004E"/>
  <anchor x="360" y="0" name="bottom"/>
  <anchor x="360" y="637" name="top"/>
  <outline>
    <contour>
      <point x="570" y="-40" type="curve"/>
      <point x="599" y="-26" type="line"/>
      <point x="613" y="536" type="line" smooth="yes"/>
      <point x="614" y="575"/>
      <point x="635" y="593"/>
      <point x="681" y="599" type="curve"/>
      <point x="686" y="645" type="line"/>
      <point x="686" y="645"/>
      <point x="629" y="637"/>
      <point x="587" y="637" type="curve" smooth="yes"/>
      <point x="553" y="637"/>
      <point x="492" y="641"/>
      <point x="492" y="641" type="curve"/>
      <point x="483" y="596" type="line"/>
      <point x="485" y="592" type="line"/>
      <point x="485" y="592"/>
      <point x="505" y="593"/>
      <point x="523" y="593" type="curve" smooth="yes"/>
      <point x="545" y="593"/>
      <point x="556" y="579"/>
      <point x="556" y="550" type="curve" smooth="yes"/>
      <point x="556" y="145" type="line"/>
      <point x="551" y="145" type="line"/>
      <point x="551" y="145"/>
      <point x="381" y="383"/>
      <point x="215" y="641" type="curve"/>
      <point x="215" y="641"/>
      <point x="181" y="637"/>
      <point x="148" y="637" type="curve" smooth="yes"/>
      <point x="120" y="637"/>
      <point x="62" y="642"/>
      <point x="62" y="642" type="curve"/>
      <point x="54" y="605" type="line"/>
      <point x="57" y="600" type="line"/>
      <point x="124" y="593"/>
      <point x="144" y="579"/>
      <point x="144" y="538" type="curve"/>
      <point x="131" y="101" type="line" smooth="yes"/>
      <point x="130" y="60"/>
      <point x="110" y="43"/>
      <point x="69" y="38" type="curve"/>
      <point x="64" y="-8" type="line"/>
      <point x="64" y="-8"/>
      <point x="117" y="0"/>
      <point x="157" y="0" type="curve" smooth="yes"/>
      <point x="200" y="0"/>
      <point x="263" y="-4"/>
      <point x="263" y="-4" type="curve"/>
      <point x="272" y="41" type="line"/>
      <point x="270" y="45" type="line"/>
      <point x="270" y="45"/>
      <point x="229" y="44"/>
      <point x="219" y="44" type="curve" smooth="yes"/>
      <point x="196" y="44"/>
      <point x="188" y="54"/>
      <point x="188" y="84" type="curve" smooth="yes"/>
      <point x="193" y="511" type="line"/>
      <point x="198" y="511" type="line"/>
      <point x="198" y="511"/>
      <point x="375" y="264"/>
    </contour>
  </outline>
</glyph>
<glyph name="P" format="2">
  <advance width="551"/>
  <unicode hex="0050"/>
  <anchor x="200" y="0" name="bottom"/>
  <anchor x="317" y="647" name="top"/>
  <outline>
    <contour>
      <point x="63" y="-8" type="line"/>
      <point x="65" y="-5"/>
      <point x="158" y="0"/>
      <point x="212" y="0" type="curve" smooth="yes"/>
      <point x="246" y="0"/>
      <point x="304" y="-2"/>
      <point x="304" y="-3" type="curve"/>
      <point x="313" y="43" type="line"/>
      <point x="311" y="47" type="line"/>
      <point x="311" y="47"/>
      <point x="277" y="44"/>
      <point x="257" y="44" type="curve" smooth="yes"/>
      <point x="218" y="44"/>
      <point x="213" y="55"/>
      <point x="213" y="146" type="curve"/>
      <point x="215" y="244" type="line"/>
      <point x="299" y="244" type="line" smooth="yes"/>
      <point x="418" y="244"/>
      <point x="528" y="349"/>
      <point x="528" y="463" type="curve" smooth="yes"/>
      <point x="528" y="578"/>
      <point x="452" y="641"/>
      <point x="314" y="641" type="curve" smooth="yes"/>
      <point x="314" y="641"/>
      <point x="215" y="637"/>
      <point x="188" y="637" type="curve" smooth="yes"/>
      <point x="150" y="637"/>
      <point x="77" y="640"/>
      <point x="77" y="640" type="curve"/>
      <point x="70" y="596" type="line"/>
      <point x="72" y="592" type="line"/>
      <point x="72" y="592"/>
      <point x="94" y="594"/>
      <point x="106" y="594" type="curve" smooth="yes"/>
      <point x="135" y="594"/>
      <point x="143" y="583"/>
      <point x="143" y="540" type="curve" smooth="yes"/>
      <point x="142" y="120" type="line" smooth="yes"/>
      <point x="142" y="63"/>
      <point x="128" y="48"/>
      <point x="70" y="38" type="curve"/>
    </contour>
    <contour>
      <point x="323" y="288" type="curve"/>
      <point x="217" y="303" type="line"/>
      <point x="219" y="389"/>
      <point x="223" y="489"/>
      <point x="229" y="578" type="curve" smooth="yes"/>
      <point x="230" y="592"/>
      <point x="232" y="592"/>
      <point x="256" y="592" type="curve" smooth="yes"/>
      <point x="386" y="592"/>
      <point x="444" y="546"/>
      <point x="444" y="444" type="curve" smooth="yes"/>
      <point x="444" y="354"/>
      <point x="403" y="301"/>
    </contour>
  </outline>
</glyph>
<glyph name="Q" format="2">
  <advance width="697"/>
  <unicode hex="0051"/>
  <anchor x="423" y="0" name="bottom"/>
  <anchor x="333" y="647" name="top"/>
  <outline>
    <contour>
      <point x="709" y="-216" type="curve" smooth="yes"/>
      <point x="729" y="-216"/>
      <point x="804" y="-148"/>
      <point x="804" y="-148" type="curve"/>
      <point x="798" y="-130" type="line"/>
      <point x="794" y="-127" type="line"/>
      <point x="794" y="-127"/>
      <point x="761" y="-137"/>
      <point x="714" y="-137" type="curve" smooth="yes"/>
      <point x="634" y="-137"/>
      <point x="549" y="-101"/>
      <point x="407" y="-5" type="curve"/>
      <point x="407" y="0" type="line"/>
      <point x="550" y="40"/>
      <point x="652" y="175"/>
      <point x="652" y="341" type="curve" smooth="yes"/>
      <point x="652" y="523"/>
      <point x="536" y="649"/>
      <point x="369" y="649" type="curve" smooth="yes"/>
      <point x="184" y="649"/>
      <point x="40" y="495"/>
      <point x="40" y="297" type="curve" smooth="yes"/>
      <point x="40" y="114"/>
      <point x="153" y="-12"/>
      <point x="317" y="-12" type="curve"/>
      <point x="554" y="-185"/>
      <point x="614" y="-216"/>
    </contour>
    <contour>
      <point x="348" y="39" type="curve" smooth="yes"/>
      <point x="217" y="39"/>
      <point x="126" y="158"/>
      <point x="126" y="329" type="curve" smooth="yes"/>
      <point x="126" y="483"/>
      <point x="211" y="589"/>
      <point x="335" y="589" type="curve" smooth="yes"/>
      <point x="470" y="589"/>
      <point x="563" y="470"/>
      <point x="563" y="299" type="curve" smooth="yes"/>
      <point x="563" y="145"/>
      <point x="475" y="39"/>
    </contour>
  </outline>
</glyph>
<glyph name="R" format="2">
  <advance width="611"/>
  <unicode hex="0052"/>
  <anchor x="306" y="0" name="bottom"/>
  <anchor x="296" y="637" name="top"/>
  <outline>
    <contour>
      <point x="512" y="-16" type="curve"/>
      <point x="597" y="-5" type="line"/>
      <point x="603" y="29" type="line"/>
      <point x="599" y="33" type="line"/>
      <point x="545" y="33"/>
      <point x="514" y="55"/>
      <point x="475" y="118" type="curve" smooth="yes"/>
      <point x="365" y="292" type="line"/>
      <point x="458" y="334"/>
      <point x="512" y="404"/>
      <point x="512" y="484" type="curve" smooth="yes"/>
      <point x="512" y="581"/>
      <point x="435" y="641"/>
      <point x="311" y="641" type="curve" smooth="yes"/>
      <point x="311" y="641"/>
      <point x="222" y="637"/>
      <point x="188" y="637" type="curve" smooth="yes"/>
      <point x="150" y="637"/>
      <point x="77" y="640"/>
      <point x="77" y="640" type="curve"/>
      <point x="70" y="596" type="line"/>
      <point x="72" y="592" type="line"/>
      <point x="72" y="592"/>
      <point x="94" y="594"/>
      <point x="106" y="594" type="curve" smooth="yes"/>
      <point x="135" y="594"/>
      <point x="143" y="583"/>
      <point x="143" y="540" type="curve" smooth="yes"/>
      <point x="142" y="120" type="line" smooth="yes"/>
      <point x="142" y="62"/>
      <point x="128" y="48"/>
      <point x="66" y="41" type="curve"/>
      <point x="57" y="-4" type="line"/>
      <point x="57" y="-4"/>
      <point x="122" y="0"/>
      <point x="172" y="-1" type="curve" smooth="yes"/>
      <point x="219" y="-2"/>
      <point x="278" y="-3"/>
      <point x="278" y="-4" type="curve"/>
      <point x="287" y="38" type="line"/>
      <point x="285" y="42" type="line"/>
      <point x="221" y="42"/>
      <point x="213" y="52"/>
      <point x="213" y="124" type="curve" smooth="yes"/>
      <point x="216" y="273" type="line"/>
      <point x="299" y="273" type="line"/>
      <point x="406" y="79" type="line" smooth="yes"/>
      <point x="438" y="21"/>
      <point x="479" y="-16"/>
    </contour>
    <contour>
      <point x="321" y="319" type="curve"/>
      <point x="218" y="329" type="line"/>
      <point x="219" y="399"/>
      <point x="222" y="469"/>
      <point x="228" y="575" type="curve" smooth="yes"/>
      <point x="229" y="593"/>
      <point x="232" y="598"/>
      <point x="246" y="598" type="curve" smooth="yes"/>
      <point x="368" y="598"/>
      <point x="429" y="554"/>
      <point x="429" y="466" type="curve" smooth="yes"/>
      <point x="429" y="348"/>
      <point x="321" y="319"/>
    </contour>
  </outline>
</glyph>
<glyph name="S" format="2">
  <advance width="530"/>
  <unicode hex="0053"/>
  <anchor x="245" y="0" name="bottom"/>
  <anchor x="275" y="637" name="top"/>
  <outline>
    <contour>
      <point x="219" y="-12" type="curve" smooth="yes"/>
      <point x="364" y="-12"/>
      <point x="466" y="69"/>
      <point x="466" y="183" type="curve" smooth="yes"/>
      <point x="466" y="274"/>
      <point x="368" y="320"/>
      <point x="281" y="365" type="curve" smooth="yes"/>
      <point x="210" y="402"/>
      <point x="145" y="439"/>
      <point x="145" y="499" type="curve" smooth="yes"/>
      <point x="145" y="554"/>
      <point x="198" y="595"/>
      <point x="271" y="595" type="curve" smooth="yes"/>
      <point x="361" y="595"/>
      <point x="390" y="572"/>
      <point x="390" y="502" type="curve" smooth="yes"/>
      <point x="390" y="471"/>
      <point x="387" y="450"/>
      <point x="387" y="450" type="curve"/>
      <point x="393" y="445" type="line"/>
      <point x="432" y="449" type="line"/>
      <point x="438" y="541"/>
      <point x="454" y="618"/>
      <point x="454" y="618" type="curve"/>
      <point x="451" y="624" type="line"/>
      <point x="451" y="624"/>
      <point x="387" y="649"/>
      <point x="298" y="649" type="curve" smooth="yes"/>
      <point x="168" y="649"/>
      <point x="68" y="568"/>
      <point x="68" y="463" type="curve" smooth="yes"/>
      <point x="68" y="376"/>
      <point x="151" y="330"/>
      <point x="231" y="288" type="curve" smooth="yes"/>
      <point x="308" y="248"/>
      <point x="383" y="212"/>
      <point x="383" y="147" type="curve" smooth="yes"/>
      <point x="383" y="79"/>
      <point x="327" y="37"/>
      <point x="244" y="37" type="curve" smooth="yes"/>
      <point x="136" y="37"/>
      <point x="114" y="67"/>
      <point x="114" y="211" type="curve"/>
      <point x="69" y="206" type="line"/>
      <point x="69" y="109"/>
      <point x="57" y="32"/>
      <point x="57" y="32" type="curve"/>
      <point x="62" y="22" type="line"/>
      <point x="62" y="22"/>
      <point x="125" y="-12"/>
    </contour>
  </outline>
</glyph>
<glyph name="T" format="2">
  <advance width="546"/>
  <unicode hex="0054"/>
  <anchor x="273" y="0" name="bottom"/>
  <anchor x="273" y="324" name="center"/>
  <anchor x="273" y="637" name="top"/>
  <outline>
    <contour>
      <point x="125" y="-4" type="line"/>
      <point x="166" y="-2"/>
      <point x="229" y="0"/>
      <point x="262" y="0" type="curve" smooth="yes"/>
      <point x="296" y="0"/>
      <point x="366" y="-2"/>
      <point x="409" y="-3" type="curve"/>
      <point x="418" y="43" type="line"/>
      <point x="415" y="47" type="line"/>
      <point x="398" y="45"/>
      <point x="378" y="44"/>
      <point x="360" y="44" type="curve" smooth="yes"/>
      <point x="319" y="44"/>
      <point x="303" y="63"/>
      <point x="303" y="112" type="curve" smooth="yes"/>
      <point x="303" y="275"/>
      <point x="311" y="518"/>
      <point x="319" y="598" type="curve"/>
      <point x="464" y="591"/>
      <point x="468" y="588"/>
      <point x="488" y="468" type="curve"/>
      <point x="535" y="472" type="line"/>
      <point x="528" y="525"/>
      <point x="522" y="594"/>
      <point x="520" y="641" type="curve"/>
      <point x="511" y="649" type="line"/>
      <point x="426" y="638" type="line"/>
      <point x="116" y="638" type="line"/>
      <point x="33" y="649" type="line"/>
      <point x="24" y="641" type="line"/>
      <point x="22" y="594"/>
      <point x="16" y="525"/>
      <point x="9" y="468" type="curve"/>
      <point x="56" y="472" type="line"/>
      <point x="73" y="590"/>
      <point x="77" y="593"/>
      <point x="233" y="598" type="curve"/>
      <point x="233" y="162" type="line" smooth="yes"/>
      <point x="233" y="56"/>
      <point x="226" y="47"/>
      <point x="133" y="39" type="curve"/>
    </contour>
  </outline>
</glyph>
<glyph name="U" format="2">
  <advance width="681"/>
  <unicode hex="0055"/>
  <anchor x="341" y="0" name="bottom"/>
  <anchor x="613" y="10" name="ogonek"/>
  <anchor x="341" y="637" name="top"/>
  <anchor x="661" y="637" name="topright"/>
  <outline>
    <contour>
      <point x="327" y="-12" type="curve" smooth="yes"/>
      <point x="484" y="-12"/>
      <point x="575" y="68"/>
      <point x="575" y="208" type="curve" smooth="yes"/>
      <point x="575" y="544" type="line" smooth="yes"/>
      <point x="575" y="585"/>
      <point x="586" y="593"/>
      <point x="644" y="601" type="curve"/>
      <point x="648" y="646" type="line"/>
      <point x="648" y="646"/>
      <point x="594" y="637"/>
      <point x="551" y="637" type="curve" smooth="yes"/>
      <point x="513" y="637"/>
      <point x="438" y="640"/>
      <point x="438" y="640" type="curve"/>
      <point x="431" y="596" type="line"/>
      <point x="433" y="592" type="line"/>
      <point x="433" y="592"/>
      <point x="464" y="594"/>
      <point x="476" y="594" type="curve" smooth="yes"/>
      <point x="505" y="594"/>
      <point x="510" y="586"/>
      <point x="513" y="540" type="curve" smooth="yes"/>
      <point x="513" y="540"/>
      <point x="519" y="284"/>
      <point x="519" y="214" type="curve" smooth="yes"/>
      <point x="519" y="104"/>
      <point x="460" y="45"/>
      <point x="351" y="45" type="curve" smooth="yes"/>
      <point x="243" y="45"/>
      <point x="184" y="118"/>
      <point x="184" y="250" type="curve"/>
      <point x="192" y="544" type="line" smooth="yes"/>
      <point x="194" y="582"/>
      <point x="206" y="594"/>
      <point x="256" y="601" type="curve"/>
      <point x="260" y="646" type="line"/>
      <point x="260" y="646"/>
      <point x="198" y="637"/>
      <point x="155" y="637" type="curve" smooth="yes"/>
      <point x="117" y="637"/>
      <point x="42" y="640"/>
      <point x="42" y="640" type="curve"/>
      <point x="35" y="596" type="line"/>
      <point x="37" y="592" type="line"/>
      <point x="37" y="592"/>
      <point x="59" y="594"/>
      <point x="71" y="594" type="curve" smooth="yes"/>
      <point x="101" y="594"/>
      <point x="108" y="583"/>
      <point x="108" y="540" type="curve" smooth="yes"/>
      <point x="108" y="209" type="line" smooth="yes"/>
      <point x="108" y="68"/>
      <point x="187" y="-12"/>
    </contour>
  </outline>
</glyph>
<glyph name="V" format="2">
  <advance width="610"/>
  <unicode hex="0056"/>
  <anchor x="312" y="0" name="bottom"/>
  <anchor x="346" y="647" name="top"/>
  <outline>
    <contour>
      <point x="258" y="-17" type="curve"/>
      <point x="322" y="5" type="line"/>
      <point x="537" y="545" type="line"/>
      <point x="551" y="583"/>
      <point x="562" y="591"/>
      <point x="603" y="593" type="curve"/>
      <point x="611" y="640" type="line"/>
      <point x="611" y="640"/>
      <point x="549" y="637"/>
      <point x="501" y="637" type="curve" smooth="yes"/>
      <point x="435" y="637"/>
      <point x="358" y="644"/>
      <point x="358" y="644" type="curve"/>
      <point x="352" y="601" type="line"/>
      <point x="354" y="597" type="line"/>
      <point x="406" y="597" type="line" smooth="yes"/>
      <point x="455" y="597"/>
      <point x="475" y="585"/>
      <point x="475" y="557" type="curve" smooth="yes"/>
      <point x="475" y="527"/>
      <point x="361" y="231"/>
      <point x="309" y="97" type="curve"/>
      <point x="300" y="97" type="line"/>
      <point x="300" y="97"/>
      <point x="174" y="528"/>
      <point x="174" y="560" type="curve" smooth="yes"/>
      <point x="174" y="589"/>
      <point x="192" y="597"/>
      <point x="263" y="602" type="curve"/>
      <point x="267" y="641" type="line"/>
      <point x="264" y="648" type="line"/>
      <point x="264" y="648"/>
      <point x="167" y="637"/>
      <point x="114" y="637" type="curve" smooth="yes"/>
      <point x="80" y="637"/>
      <point x="-2" y="640"/>
      <point x="-2" y="640" type="curve"/>
      <point x="-9" y="597" type="line"/>
      <point x="-7" y="593" type="line"/>
      <point x="45" y="592"/>
      <point x="73" y="574"/>
      <point x="85" y="536" type="curve" smooth="yes"/>
      <point x="169" y="275"/>
      <point x="258" y="-17"/>
    </contour>
  </outline>
</glyph>
<glyph name="W" format="2">
  <advance width="932"/>
  <unicode hex="0057"/>
  <anchor x="495" y="0" name="bottom"/>
  <anchor x="518" y="647" name="top"/>
  <outline>
    <contour>
      <point x="251" y="-17" type="curve"/>
      <point x="315" y="5" type="line"/>
      <point x="457" y="407" type="line"/>
      <point x="463" y="407" type="line"/>
      <point x="531" y="188"/>
      <point x="588" y="-17"/>
      <point x="588" y="-17" type="curve"/>
      <point x="650" y="5" type="line"/>
      <point x="860" y="545" type="line"/>
      <point x="874" y="584"/>
      <point x="885" y="591"/>
      <point x="924" y="593" type="curve"/>
      <point x="931" y="640" type="line"/>
      <point x="931" y="640"/>
      <point x="871" y="637"/>
      <point x="825" y="637" type="curve" smooth="yes"/>
      <point x="761" y="637"/>
      <point x="686" y="644"/>
      <point x="686" y="644" type="curve"/>
      <point x="679" y="601" type="line"/>
      <point x="681" y="597" type="line"/>
      <point x="731" y="597" type="line" smooth="yes"/>
      <point x="779" y="597"/>
      <point x="799" y="587"/>
      <point x="799" y="562" type="curve" smooth="yes"/>
      <point x="799" y="532"/>
      <point x="687" y="232"/>
      <point x="637" y="97" type="curve"/>
      <point x="631" y="97" type="line"/>
      <point x="631" y="97"/>
      <point x="507" y="527"/>
      <point x="507" y="560" type="curve" smooth="yes"/>
      <point x="507" y="589"/>
      <point x="525" y="597"/>
      <point x="594" y="602" type="curve"/>
      <point x="598" y="641" type="line"/>
      <point x="595" y="648" type="line"/>
      <point x="595" y="648"/>
      <point x="510" y="637"/>
      <point x="450" y="637" type="curve" smooth="yes"/>
      <point x="417" y="637"/>
      <point x="337" y="640"/>
      <point x="337" y="640" type="curve"/>
      <point x="330" y="597" type="line"/>
      <point x="332" y="593" type="line"/>
      <point x="381" y="591"/>
      <point x="409" y="576"/>
      <point x="422" y="536" type="curve" smooth="yes"/>
      <point x="428" y="518"/>
      <point x="434" y="499"/>
      <point x="440" y="481" type="curve"/>
      <point x="393" y="353"/>
      <point x="346" y="225"/>
      <point x="299" y="97" type="curve"/>
      <point x="293" y="97" type="line"/>
      <point x="293" y="97"/>
      <point x="170" y="522"/>
      <point x="170" y="561" type="curve" smooth="yes"/>
      <point x="170" y="589"/>
      <point x="188" y="597"/>
      <point x="256" y="602" type="curve"/>
      <point x="260" y="641" type="line"/>
      <point x="257" y="648" type="line"/>
      <point x="257" y="648"/>
      <point x="183" y="637"/>
      <point x="112" y="637" type="curve" smooth="yes"/>
      <point x="79" y="637"/>
      <point x="-1" y="640"/>
      <point x="-1" y="640" type="curve"/>
      <point x="-7" y="597" type="line"/>
      <point x="-7" y="596"/>
      <point x="-6" y="594"/>
      <point x="-6" y="593" type="curve"/>
      <point x="44" y="592"/>
      <point x="72" y="574"/>
      <point x="84" y="536" type="curve" smooth="yes"/>
      <point x="168" y="276"/>
      <point x="251" y="-17"/>
    </contour>
  </outline>
</glyph>
<glyph name="Y" format="2">
  <advance width="538"/>
  <unicode hex="0059"/>
  <anchor x="269" y="0" name="bottom"/>
  <anchor x="267" y="181" name="center"/>
  <anchor x="279" y="637" name="top"/>
  <anchor x="20" y="637" name="topleft"/>
  <outline>
    <contour>
      <point x="144" y="-12" type="line"/>
      <point x="144" y="-12"/>
      <point x="208" y="0"/>
      <point x="258" y="0" type="curve" smooth="yes"/>
      <point x="302" y="0"/>
      <point x="385" y="-3"/>
      <point x="385" y="-3" type="curve"/>
      <point x="394" y="43" type="line"/>
      <point x="392" y="47" type="line"/>
      <point x="392" y="47"/>
      <point x="363" y="44"/>
      <point x="343" y="44" type="curve" smooth="yes"/>
      <point x="308" y="44"/>
      <point x="298" y="61"/>
      <point x="299" y="112" type="curve" smooth="yes"/>
      <point x="301" y="221"/>
      <point x="300" y="255"/>
      <point x="321" y="291" type="curve" smooth="yes"/>
      <point x="421" y="467" type="line" smooth="yes"/>
      <point x="475" y="562"/>
      <point x="483" y="584"/>
      <point x="552" y="597" type="curve"/>
      <point x="558" y="634" type="line"/>
      <point x="554" y="641" type="line"/>
      <point x="554" y="641"/>
      <point x="501" y="637"/>
      <point x="462" y="637" type="curve" smooth="yes"/>
      <point x="425" y="637"/>
      <point x="351" y="644"/>
      <point x="351" y="644" type="curve"/>
      <point x="345" y="605" type="line"/>
      <point x="347" y="601" type="line"/>
      <point x="390" y="598"/>
      <point x="410" y="588"/>
      <point x="410" y="571" type="curve" smooth="yes"/>
      <point x="410" y="557"/>
      <point x="404" y="539"/>
      <point x="394" y="521" type="curve" smooth="yes"/>
      <point x="280" y="309" type="line"/>
      <point x="275" y="309" type="line"/>
      <point x="274" y="309"/>
      <point x="163" y="538"/>
      <point x="163" y="567" type="curve" smooth="yes"/>
      <point x="163" y="590"/>
      <point x="179" y="598"/>
      <point x="239" y="603" type="curve"/>
      <point x="242" y="638" type="line"/>
      <point x="239" y="645" type="line"/>
      <point x="239" y="645"/>
      <point x="153" y="637"/>
      <point x="97" y="637" type="curve" smooth="yes"/>
      <point x="51" y="637"/>
      <point x="-13" y="640"/>
      <point x="-13" y="640" type="curve"/>
      <point x="-19" y="601" type="line"/>
      <point x="-17" y="597" type="line"/>
      <point x="61" y="590"/>
      <point x="69" y="564"/>
      <point x="109" y="482" type="curve" smooth="yes"/>
      <point x="199" y="299" type="line" smooth="yes"/>
      <point x="223" y="251"/>
      <point x="228" y="225"/>
      <point x="228" y="186" type="curve" smooth="yes"/>
      <point x="228" y="142" type="line" smooth="yes"/>
      <point x="228" y="68"/>
      <point x="222" y="48"/>
      <point x="150" y="34" type="curve"/>
    </contour>
  </outline>
</glyph>
<glyph name="Z" format="2">
  <advance width="568"/>
  <unicode hex="005A"/>
  <anchor x="313" y="0" name="bottom"/>
  <anchor x="331" y="647" name="top"/>
  <outline>
    <contour>
      <point x="48" y="-3" type="line"/>
      <point x="118" y="3" type="line"/>
      <point x="480" y="-3" type="line"/>
      <point x="495" y="13" type="line"/>
      <point x="500" y="109"/>
      <point x="520" y="218"/>
      <point x="520" y="218" type="curve"/>
      <point x="473" y="213" type="line"/>
      <point x="451" y="99"/>
      <point x="410" y="48"/>
      <point x="341" y="47" type="curve"/>
      <point x="138" y="40" type="line"/>
      <point x="181" y="108"/>
      <point x="335" y="351"/>
      <point x="524" y="602" type="curve"/>
      <point x="513" y="631" type="line"/>
      <point x="255" y="638" type="line"/>
      <point x="80" y="649" type="line"/>
      <point x="70" y="640" type="line"/>
      <point x="68" y="548"/>
      <point x="52" y="445"/>
      <point x="52" y="445" type="curve"/>
      <point x="99" y="449" type="line"/>
      <point x="110" y="550"/>
      <point x="142" y="583"/>
      <point x="234" y="587" type="curve"/>
      <point x="407" y="593" type="line"/>
      <point x="34" y="29" type="line"/>
    </contour>
  </outline>
</glyph>
<glyph name="bracketleft" format="2">
  <advance width="309"/>
  <unicode hex="005B"/>
  <outline>
    <contour>
      <point x="278" y="-137" type="line"/>
      <point x="284" y="-107" type="line"/>
      <point x="280" y="-100" type="line"/>
      <point x="164" y="-76" type="line"/>
      <point x="164" y="579" type="line"/>
      <point x="278" y="603" type="line"/>
      <point x="284" y="634" type="line"/>
      <point x="280" y="640" type="line"/>
      <point x="96" y="629" type="line"/>
      <point x="96" y="629"/>
      <point x="107" y="350"/>
      <point x="107" y="250" type="curve" smooth="yes"/>
      <point x="107" y="150"/>
      <point x="96" y="-126"/>
      <point x="96" y="-126" type="curve"/>
    </contour>
  </outline>
</glyph>
<glyph name="a" format="2">
  <advance width="466"/>
  <unicode hex="0061"/>
  <anchor x="229" y="0" name="bottom"/>
  <anchor x="420" y="41" name="ogonek"/>
  <anchor x="217" y="452" name="top"/>
  <outline>
    <contour>
      <point x="372" y="-12" type="curve"/>
      <point x="409" y="0"/>
      <point x="443" y="41"/>
      <point x="459" y="68" type="curve"/>
      <point x="445" y="84" type="line"/>
      <point x="433" y="73"/>
      <point x="408" y="59"/>
      <point x="385" y="59" type="curve" smooth="yes"/>
      <point x="359" y="59"/>
      <point x="344" y="76"/>
      <point x="344" y="105" type="curve" smooth="yes"/>
      <point x="344" y="164"/>
      <point x="362" y="299"/>
      <point x="362" y="335" type="curve" smooth="yes"/>
      <point x="362" y="416"/>
      <point x="310" y="464"/>
      <point x="223" y="464" type="curve" smooth="yes"/>
      <point x="192" y="464"/>
      <point x="112" y="424"/>
      <point x="60" y="394" type="curve"/>
      <point x="72" y="351" type="line"/>
      <point x="77" y="348" type="line"/>
      <point x="117" y="380"/>
      <point x="160" y="398"/>
      <point x="197" y="398" type="curve" smooth="yes"/>
      <point x="253" y="398"/>
      <point x="285" y="359"/>
      <point x="285" y="292" type="curve"/>
      <point x="284" y="248" type="line"/>
      <point x="94" y="196" type="line" smooth="yes"/>
      <point x="62" y="187"/>
      <point x="41" y="155"/>
      <point x="41" y="116" type="curve" smooth="yes"/>
      <point x="41" y="44"/>
      <point x="95" y="-8"/>
      <point x="169" y="-8" type="curve" smooth="yes"/>
      <point x="189" y="-8"/>
      <point x="231" y="22"/>
      <point x="279" y="70" type="curve"/>
      <point x="283" y="69" type="line"/>
      <point x="288" y="15"/>
      <point x="318" y="-12"/>
    </contour>
    <contour>
      <point x="186" y="60" type="curve" smooth="yes"/>
      <point x="146" y="60"/>
      <point x="117" y="89"/>
      <point x="117" y="127" type="curve" smooth="yes"/>
      <point x="117" y="148"/>
      <point x="127" y="163"/>
      <point x="146" y="169" type="curve" smooth="yes"/>
      <point x="282" y="210" type="line"/>
      <point x="277" y="108" type="line"/>
      <point x="249" y="80"/>
      <point x="211" y="60"/>
    </contour>
  </outline>
</glyph>
<glyph name="b" format="2">
  <advance width="508"/>
  <unicode hex="0062"/>
  <anchor x="252" y="0" name="bottom"/>
  <anchor x="215" y="463" name="top"/>
  <outline>
    <contour>
      <point x="223" y="-12" type="curve" smooth="yes"/>
      <point x="361" y="-12"/>
      <point x="472" y="104"/>
      <point x="472" y="250" type="curve" smooth="yes"/>
      <point x="472" y="377"/>
      <point x="393" y="464"/>
      <point x="279" y="464" type="curve" smooth="yes"/>
      <point x="265" y="464"/>
      <point x="219" y="438"/>
      <point x="158" y="394" type="curve" smooth="yes"/>
      <point x="163" y="582"/>
      <point x="172" y="715"/>
      <point x="181" y="729" type="curve" smooth="yes"/>
      <point x="175" y="742" type="line" smooth="yes"/>
      <point x="175" y="742"/>
      <point x="96" y="722"/>
      <point x="27" y="713" type="curve" smooth="yes"/>
      <point x="23" y="680" type="line"/>
      <point x="26" y="677" type="line"/>
      <point x="26" y="677"/>
      <point x="37" y="680"/>
      <point x="48" y="680" type="curve" smooth="yes"/>
      <point x="73" y="680"/>
      <point x="85" y="663"/>
      <point x="85" y="626" type="curve"/>
      <point x="85" y="8" type="line"/>
      <point x="94" y="0" type="line" smooth="yes"/>
      <point x="94" y="0"/>
      <point x="156" y="-12"/>
    </contour>
    <contour>
      <point x="251" y="43" type="curve" smooth="yes"/>
      <point x="219" y="43"/>
      <point x="177" y="52"/>
      <point x="153" y="64" type="curve" smooth="yes"/>
      <point x="156" y="342" type="line" smooth="yes"/>
      <point x="190" y="373"/>
      <point x="236" y="396"/>
      <point x="263" y="396" type="curve" smooth="yes"/>
      <point x="337" y="396"/>
      <point x="395" y="315"/>
      <point x="395" y="213" type="curve" smooth="yes"/>
      <point x="395" y="108"/>
      <point x="340" y="43"/>
    </contour>
  </outline>
</glyph>
<glyph name="c" format="2">
  <advance width="424"/>
  <unicode hex="0063"/>
  <anchor x="248" y="0" name="bottom"/>
  <anchor x="307" y="105" name="bottomright"/>
  <anchor x="260" y="452" name="top"/>
  <outline>
    <contour>
      <point x="245" y="-12" type="curve" smooth="yes"/>
      <point x="294" y="-12"/>
      <point x="382" y="55"/>
      <point x="382" y="55" type="curve"/>
      <point x="371" y="86" type="line"/>
      <point x="365" y="88" type="line"/>
      <point x="365" y="88"/>
      <point x="308" y="55"/>
      <point x="252" y="55" type="curve" smooth="yes"/>
      <point x="168" y="55"/>
      <point x="116" y="127"/>
      <point x="116" y="243" type="curve" smooth="yes"/>
      <point x="116" y="350"/>
      <point x="161" y="410"/>
      <point x="243" y="410" type="curve" smooth="yes"/>
      <point x="292" y="410"/>
      <point x="325" y="377"/>
      <point x="325" y="328" type="curve" smooth="yes"/>
      <point x="325" y="297" type="line"/>
      <point x="366" y="300" type="line"/>
      <point x="369" y="378"/>
      <point x="387" y="438"/>
      <point x="387" y="438" type="curve"/>
      <point x="384" y="445" type="line"/>
      <point x="384" y="445"/>
      <point x="331" y="464"/>
      <point x="267" y="464" type="curve" smooth="yes"/>
      <point x="136" y="464"/>
      <point x="36" y="353"/>
      <point x="36" y="209" type="curve" smooth="yes"/>
      <point x="36" y="75"/>
      <point x="118" y="-12"/>
    </contour>
  </outline>
</glyph>
<glyph name="d" format="2">
  <advance width="537"/>
  <unicode hex="0064"/>
  <anchor x="264" y="0" name="bottom"/>
  <anchor x="376" y="236" name="center"/>
  <anchor x="390" y="730" name="top"/>
  <outline>
    <contour>
      <point x="450" y="-12" type="curve"/>
      <point x="497" y="2"/>
      <point x="537" y="68"/>
      <point x="537" y="68" type="curve"/>
      <point x="523" y="84" type="line"/>
      <point x="523" y="84"/>
      <point x="495" y="59"/>
      <point x="463" y="59" type="curve" smooth="yes"/>
      <point x="437" y="59"/>
      <point x="422" y="76"/>
      <point x="422" y="105" type="curve" smooth="yes"/>
      <point x="422" y="398"/>
      <point x="436" y="706"/>
      <point x="450" y="729" type="curve"/>
      <point x="444" y="742" type="line"/>
      <point x="444" y="742"/>
      <point x="365" y="722"/>
      <point x="296" y="713" type="curve"/>
      <point x="292" y="676" type="line"/>
      <point x="292" y="676"/>
      <point x="306" y="680"/>
      <point x="317" y="680" type="curve" smooth="yes"/>
      <point x="342" y="680"/>
      <point x="354" y="663"/>
      <point x="354" y="626" type="curve" smooth="yes"/>
      <point x="354" y="460" type="line"/>
      <point x="326" y="463"/>
      <point x="303" y="464"/>
      <point x="285" y="464" type="curve" smooth="yes"/>
      <point x="148" y="464"/>
      <point x="36" y="346"/>
      <point x="36" y="202" type="curve" smooth="yes"/>
      <point x="36" y="76"/>
      <point x="114" y="-9"/>
      <point x="229" y="-9" type="curve" smooth="yes"/>
      <point x="243" y="-9"/>
      <point x="285" y="15"/>
      <point x="354" y="62" type="curve"/>
      <point x="361" y="59" type="line"/>
      <point x="368" y="12"/>
      <point x="397" y="-12"/>
    </contour>
    <contour>
      <point x="245" y="56" type="curve" smooth="yes"/>
      <point x="171" y="56"/>
      <point x="113" y="135"/>
      <point x="113" y="236" type="curve" smooth="yes"/>
      <point x="113" y="341"/>
      <point x="168" y="406"/>
      <point x="257" y="406" type="curve" smooth="yes"/>
      <point x="317" y="406"/>
      <point x="354" y="383"/>
      <point x="354" y="383" type="curve"/>
      <point x="354" y="109" type="line"/>
      <point x="354" y="109"/>
      <point x="293" y="56"/>
    </contour>
  </outline>
</glyph>
<glyph name="e" format="2">
  <advance width="448"/>
  <unicode hex="0065"/>
  <anchor x="261" y="0" name="bottom"/>
  <anchor x="392" y="41" name="ogonek"/>
  <anchor x="255" y="452" name="top"/>
  <outline>
    <contour>
      <point x="246" y="-12" type="curve" smooth="yes"/>
      <point x="290" y="-12"/>
      <point x="359" y="27"/>
      <point x="399" y="56" type="curve"/>
      <point x="388" y="85" type="line"/>
      <point x="382" y="87" type="line"/>
      <point x="216" y="11"/>
      <point x="109" y="79"/>
      <point x="111" y="258" type="curve"/>
      <point x="387" y="258" type="line"/>
      <point x="400" y="270" type="line"/>
      <point x="403" y="280"/>
      <point x="406" y="301"/>
      <point x="406" y="319" type="curve" smooth="yes"/>
      <point x="406" y="414"/>
      <point x="355" y="464"/>
      <point x="257" y="464" type="curve" smooth="yes"/>
      <point x="138" y="464"/>
      <point x="36" y="346"/>
      <point x="36" y="209" type="curve" smooth="yes"/>
      <point x="36" y="77"/>
      <point x="120" y="-12"/>
    </contour>
    <contour>
      <point x="115" y="295" type="line"/>
      <point x="127" y="368"/>
      <point x="176" y="413"/>
      <point x="238" y="413" type="curve" smooth="yes"/>
      <point x="291" y="413"/>
      <point x="321" y="384"/>
      <point x="321" y="331" type="curve" smooth="yes"/>
      <point x="321" y="311"/>
      <point x="316" y="306"/>
      <point x="296" y="304" type="curve" smooth="yes"/>
    </contour>
  </outline>
</glyph>
<glyph name="f" format="2">
  <advance width="330"/>
  <unicode hex="0066"/>
  <anchor x="157" y="0" name="bottom"/>
  <anchor x="265" y="749" name="top"/>
  <outline>
    <contour>
      <point x="46" y="-4" type="line"/>
      <point x="46" y="-4"/>
      <point x="102" y="0"/>
      <point x="158" y="0" type="curve" smooth="yes"/>
      <point x="197" y="0"/>
      <point x="282" y="-2"/>
      <point x="282" y="-2" type="curve"/>
      <point x="289" y="41" type="line"/>
      <point x="287" y="45" type="line"/>
      <point x="287" y="45"/>
      <point x="261" y="43"/>
      <point x="227" y="43" type="curve" smooth="yes"/>
      <point x="192" y="43"/>
      <point x="176" y="60"/>
      <point x="176" y="98" type="curve" smooth="yes"/>
      <point x="180" y="399" type="line"/>
      <point x="250" y="399"/>
      <point x="312" y="396"/>
      <point x="312" y="396" type="curve"/>
      <point x="322" y="449" type="line"/>
      <point x="319" y="452" type="line"/>
      <point x="319" y="452"/>
      <point x="252" y="449"/>
      <point x="181" y="449" type="curve"/>
      <point x="182" y="498" type="line" smooth="yes"/>
      <point x="184" y="623"/>
      <point x="221" y="683"/>
      <point x="297" y="683" type="curve" smooth="yes"/>
      <point x="362" y="683"/>
      <point x="412" y="646"/>
      <point x="412" y="646" type="curve"/>
      <point x="423" y="649" type="line"/>
      <point x="438" y="686"/>
      <point x="454" y="714"/>
      <point x="454" y="714" type="curve"/>
      <point x="452" y="723" type="line"/>
      <point x="452" y="723"/>
      <point x="406" y="742"/>
      <point x="338" y="742" type="curve" smooth="yes"/>
      <point x="198" y="742"/>
      <point x="109" y="634"/>
      <point x="108" y="460" type="curve" smooth="yes"/>
      <point x="108" y="456" type="line"/>
      <point x="48" y="445" type="line"/>
      <point x="41" y="411" type="line"/>
      <point x="45" y="405" type="line"/>
      <point x="94" y="403"/>
      <point x="106" y="396"/>
      <point x="108" y="364" type="curve"/>
      <point x="108" y="94" type="line" smooth="yes"/>
      <point x="108" y="60"/>
      <point x="89" y="40"/>
      <point x="51" y="35" type="curve"/>
    </contour>
  </outline>
</glyph>
<glyph name="g" format="2">
  <advance width="501"/>
  <unicode hex="0067"/>
  <anchor x="244" y="-215" name="bottom"/>
  <anchor x="263" y="452" name="top"/>
  <outline>
    <contour>
      <point x="213" y="-242" type="curve" smooth="yes"/>
      <point x="338" y="-242"/>
      <point x="460" y="-154"/>
      <point x="460" y="-65" type="curve" smooth="yes"/>
      <point x="460" y="82"/>
      <point x="129" y="12"/>
      <point x="129" y="92" type="curve" smooth="yes"/>
      <point x="129" y="109"/>
      <point x="145" y="124"/>
      <point x="187" y="146" type="curve"/>
      <point x="135" y="163" type="line"/>
      <point x="135" y="149" type="line"/>
      <point x="103" y="130"/>
      <point x="75" y="108"/>
      <point x="51" y="85" type="curve"/>
      <point x="53" y="33"/>
      <point x="91" y="-1"/>
      <point x="160" y="-13" type="curve"/>
      <point x="160" y="-19" type="line"/>
      <point x="117" y="-51"/>
      <point x="79" y="-86"/>
      <point x="61" y="-109" type="curve"/>
      <point x="61" y="-192"/>
      <point x="119" y="-242"/>
    </contour>
    <contour>
      <point x="247" y="-193" type="curve" smooth="yes"/>
      <point x="183" y="-193"/>
      <point x="141" y="-163"/>
      <point x="141" y="-118" type="curve" smooth="yes"/>
      <point x="141" y="-85"/>
      <point x="163" y="-49"/>
      <point x="203" y="-21" type="curve"/>
      <point x="363" y="-42"/>
      <point x="396" y="-55"/>
      <point x="396" y="-94" type="curve" smooth="yes"/>
      <point x="396" y="-147"/>
      <point x="325" y="-193"/>
    </contour>
    <contour>
      <point x="251" y="174" type="curve" smooth="yes"/>
      <point x="183" y="174"/>
      <point x="136" y="226"/>
      <point x="136" y="302" type="curve" smooth="yes"/>
      <point x="136" y="370"/>
      <point x="174" y="413"/>
      <point x="235" y="413" type="curve" smooth="yes"/>
      <point x="303" y="413"/>
      <point x="350" y="360"/>
      <point x="350" y="283" type="curve" smooth="yes"/>
      <point x="350" y="215"/>
      <point x="312" y="174"/>
    </contour>
    <contour>
      <point x="228" y="130" type="curve" smooth="yes"/>
      <point x="338" y="130"/>
      <point x="425" y="209"/>
      <point x="425" y="307" type="curve" smooth="yes"/>
      <point x="425" y="345"/>
      <point x="412" y="379"/>
      <point x="385" y="409" type="curve"/>
      <point x="389" y="414" type="line"/>
      <point x="410" y="416"/>
      <point x="446" y="419"/>
      <point x="475" y="423" type="curve"/>
      <point x="486" y="479" type="line"/>
      <point x="483" y="483" type="line"/>
      <point x="423" y="467"/>
      <point x="371" y="456"/>
      <point x="345" y="453" type="curve"/>
      <point x="319" y="453"/>
      <point x="284" y="464"/>
      <point x="247" y="464" type="curve" smooth="yes"/>
      <point x="146" y="464"/>
      <point x="61" y="381"/>
      <point x="61" y="282" type="curve" smooth="yes"/>
      <point x="61" y="193"/>
      <point x="130" y="130"/>
    </contour>
  </outline>
</glyph>
<glyph name="h" format="2">
  <advance width="534"/>
  <unicode hex="0068"/>
  <anchor x="257" y="0" name="bottom"/>
  <anchor x="267" y="226" name="center"/>
  <anchor x="129" y="690" name="top"/>
  <outline>
    <contour>
      <point x="35" y="39" type="curve"/>
      <point x="29" y="-2" type="line"/>
      <point x="57" y="-1"/>
      <point x="100" y="0"/>
      <point x="128" y="0" type="curve" smooth="yes"/>
      <point x="155" y="0"/>
      <point x="196" y="-2"/>
      <point x="219" y="-3" type="curve"/>
      <point x="228" y="40" type="line"/>
      <point x="226" y="44" type="line"/>
      <point x="215" y="43"/>
      <point x="199" y="42"/>
      <point x="191" y="42" type="curve" smooth="yes"/>
      <point x="165" y="42"/>
      <point x="155" y="57"/>
      <point x="155" y="98" type="curve" smooth="yes"/>
      <point x="155" y="183"/>
      <point x="156" y="266"/>
      <point x="158" y="341" type="curve"/>
      <point x="197" y="372"/>
      <point x="252" y="396"/>
      <point x="285" y="396" type="curve" smooth="yes"/>
      <point x="338" y="396"/>
      <point x="368" y="358"/>
      <point x="368" y="292" type="curve" smooth="yes"/>
      <point x="362" y="94" type="line" smooth="yes"/>
      <point x="362" y="59"/>
      <point x="346" y="40"/>
      <point x="306" y="29" type="curve"/>
      <point x="302" y="-12" type="line"/>
      <point x="339" y="-5"/>
      <point x="381" y="0"/>
      <point x="405" y="0" type="curve" smooth="yes"/>
      <point x="432" y="0"/>
      <point x="472" y="-2"/>
      <point x="494" y="-3" type="curve"/>
      <point x="502" y="40" type="line"/>
      <point x="500" y="44" type="line"/>
      <point x="489" y="43"/>
      <point x="473" y="42"/>
      <point x="465" y="42" type="curve" smooth="yes"/>
      <point x="440" y="42"/>
      <point x="430" y="59"/>
      <point x="430" y="98" type="curve" smooth="yes"/>
      <point x="430" y="156"/>
      <point x="446" y="300"/>
      <point x="446" y="335" type="curve" smooth="yes"/>
      <point x="446" y="417"/>
      <point x="396" y="464"/>
      <point x="309" y="464" type="curve" smooth="yes"/>
      <point x="271" y="464"/>
      <point x="178" y="399"/>
      <point x="159" y="386" type="curve"/>
      <point x="164" y="574"/>
      <point x="174" y="714"/>
      <point x="183" y="729" type="curve"/>
      <point x="177" y="742" type="line"/>
      <point x="140" y="732"/>
      <point x="75" y="719"/>
      <point x="29" y="713" type="curve"/>
      <point x="25" y="681" type="line"/>
      <point x="29" y="678" type="line"/>
      <point x="50" y="678" type="line"/>
      <point x="76" y="678"/>
      <point x="87" y="662"/>
      <point x="87" y="626" type="curve" smooth="yes"/>
      <point x="87" y="94" type="line"/>
      <point x="87" y="57"/>
      <point x="73" y="43"/>
    </contour>
  </outline>
</glyph>
<glyph name="k" format="2">
  <advance width="497"/>
  <unicode hex="006B"/>
  <anchor x="282" y="0" name="bottom"/>
  <anchor x="119" y="687" name="top"/>
  <outline>
    <contour>
      <point x="34" y="35" type="curve"/>
      <point x="29" y="-6" type="line"/>
      <point x="29" y="-6"/>
      <point x="86" y="0"/>
      <point x="128" y="0" type="curve" smooth="yes"/>
      <point x="165" y="0"/>
      <point x="219" y="-3"/>
      <point x="219" y="-3" type="curve"/>
      <point x="228" y="40" type="line"/>
      <point x="226" y="44" type="line"/>
      <point x="226" y="44"/>
      <point x="203" y="42"/>
      <point x="191" y="42" type="curve" smooth="yes"/>
      <point x="165" y="42"/>
      <point x="155" y="57"/>
      <point x="155" y="98" type="curve" smooth="yes"/>
      <point x="155" y="398"/>
      <point x="169" y="707"/>
      <point x="183" y="729" type="curve"/>
      <point x="177" y="742" type="line"/>
      <point x="177" y="742"/>
      <point x="98" y="722"/>
      <point x="29" y="713" type="curve"/>
      <point x="27" y="694" type="line" smooth="yes"/>
      <point x="26" y="688"/>
      <point x="25" y="682"/>
      <point x="25" y="676" type="curve" smooth="yes"/>
      <point x="25" y="676"/>
      <point x="39" y="680"/>
      <point x="50" y="680" type="curve" smooth="yes"/>
      <point x="75" y="680"/>
      <point x="87" y="663"/>
      <point x="87" y="626" type="curve" smooth="yes"/>
      <point x="87" y="135" type="line" smooth="yes"/>
      <point x="87" y="68"/>
      <point x="88" y="43"/>
    </contour>
    <contour>
      <point x="180" y="234" type="line"/>
      <point x="298" y="71" type="line" smooth="yes"/>
      <point x="329" y="28"/>
      <point x="347" y="7"/>
      <point x="368" y="-4" type="curve" smooth="yes"/>
      <point x="378" y="-9"/>
      <point x="390" y="-14"/>
      <point x="403" y="-14" type="curve" smooth="yes"/>
      <point x="418" y="-14"/>
      <point x="477" y="2"/>
      <point x="477" y="2" type="curve"/>
      <point x="483" y="31" type="line"/>
      <point x="480" y="36" type="line"/>
      <point x="439" y="36"/>
      <point x="405" y="59"/>
      <point x="359" y="118" type="curve" smooth="yes"/>
      <point x="254" y="253" type="line"/>
      <point x="320" y="317"/>
      <point x="395" y="401"/>
      <point x="467" y="422" type="curve"/>
      <point x="475" y="453" type="line"/>
      <point x="472" y="458" type="line"/>
      <point x="472" y="458"/>
      <point x="415" y="452"/>
      <point x="377" y="452" type="curve" smooth="yes"/>
      <point x="341" y="452"/>
      <point x="276" y="454"/>
      <point x="276" y="454" type="curve"/>
      <point x="267" y="425" type="line"/>
      <point x="270" y="420" type="line"/>
      <point x="309" y="420"/>
      <point x="325" y="414"/>
      <point x="325" y="399" type="curve" smooth="yes"/>
      <point x="325" y="389"/>
      <point x="319" y="381"/>
      <point x="301" y="364" type="curve" smooth="yes"/>
      <point x="182" y="250" type="line"/>
    </contour>
  </outline>
</glyph>
<glyph name="m" format="2">
  <advance width="832"/>
  <unicode hex="006D"/>
  <anchor x="438" y="0" name="bottom"/>
  <anchor x="435" y="452" name="top"/>
  <outline>
    <contour>
      <point x="325" y="29" type="curve"/>
      <point x="321" y="-12" type="line"/>
      <point x="321" y="-12"/>
      <point x="382" y="0"/>
      <point x="424" y="0" type="curve" smooth="yes"/>
      <point x="461" y="0"/>
      <point x="513" y="-3"/>
      <point x="513" y="-3" type="curve"/>
      <point x="521" y="40" type="line"/>
      <point x="519" y="44" type="line"/>
      <point x="519" y="44"/>
      <point x="496" y="42"/>
      <point x="484" y="42" type="curve" smooth="yes"/>
      <point x="459" y="42"/>
      <point x="449" y="59"/>
      <point x="449" y="98" type="curve"/>
      <point x="460" y="346" type="line"/>
      <point x="482" y="362"/>
      <point x="533" y="396"/>
      <point x="581" y="396" type="curve" smooth="yes"/>
      <point x="634" y="396"/>
      <point x="664" y="358"/>
      <point x="664" y="292" type="curve" smooth="yes"/>
      <point x="660" y="94" type="line"/>
      <point x="660" y="57"/>
      <point x="645" y="41"/>
      <point x="607" y="35" type="curve"/>
      <point x="602" y="-6" type="line"/>
      <point x="602" y="-6"/>
      <point x="659" y="0"/>
      <point x="701" y="0" type="curve" smooth="yes"/>
      <point x="738" y="0"/>
      <point x="792" y="-3"/>
      <point x="792" y="-3" type="curve"/>
      <point x="801" y="40" type="line"/>
      <point x="799" y="44" type="line"/>
      <point x="799" y="44"/>
      <point x="776" y="42"/>
      <point x="764" y="42" type="curve" smooth="yes"/>
      <point x="738" y="42"/>
      <point x="728" y="57"/>
      <point x="728" y="98" type="curve" smooth="yes"/>
      <point x="728" y="156"/>
      <point x="742" y="300"/>
      <point x="742" y="335" type="curve" smooth="yes"/>
      <point x="742" y="414"/>
      <point x="689" y="464"/>
      <point x="605" y="464" type="curve" smooth="yes"/>
      <point x="566" y="464"/>
      <point x="471" y="397"/>
      <point x="454" y="385" type="curve"/>
      <point x="436" y="435"/>
      <point x="390" y="464"/>
      <point x="326" y="464" type="curve" smooth="yes"/>
      <point x="290" y="464"/>
      <point x="204" y="405"/>
      <point x="179" y="388" type="curve"/>
      <point x="177" y="391" type="line"/>
      <point x="179" y="425"/>
      <point x="188" y="457"/>
      <point x="188" y="457" type="curve"/>
      <point x="182" y="465" type="line"/>
      <point x="182" y="465"/>
      <point x="111" y="447"/>
      <point x="42" y="436" type="curve"/>
      <point x="39" y="403" type="line"/>
      <point x="42" y="399" type="line"/>
      <point x="53" y="399" type="line"/>
      <point x="89" y="399"/>
      <point x="102" y="383"/>
      <point x="102" y="338" type="curve" smooth="yes"/>
      <point x="102" y="94" type="line"/>
      <point x="102" y="57"/>
      <point x="88" y="43"/>
      <point x="50" y="39" type="curve"/>
      <point x="44" y="-2" type="line"/>
      <point x="44" y="-2"/>
      <point x="101" y="0"/>
      <point x="143" y="0" type="curve" smooth="yes"/>
      <point x="180" y="0"/>
      <point x="234" y="-3"/>
      <point x="234" y="-3" type="curve"/>
      <point x="243" y="40" type="line"/>
      <point x="241" y="44" type="line"/>
      <point x="241" y="44"/>
      <point x="218" y="42"/>
      <point x="206" y="42" type="curve" smooth="yes"/>
      <point x="180" y="42"/>
      <point x="170" y="57"/>
      <point x="170" y="98" type="curve" smooth="yes"/>
      <point x="170" y="137"/>
      <point x="176" y="275"/>
      <point x="179" y="344" type="curve"/>
      <point x="199" y="359"/>
      <point x="253" y="396"/>
      <point x="302" y="396" type="curve" smooth="yes"/>
      <point x="355" y="396"/>
      <point x="385" y="358"/>
      <point x="385" y="292" type="curve" smooth="yes"/>
      <point x="381" y="94" type="line"/>
      <point x="381" y="59"/>
      <point x="365" y="40"/>
    </contour>
  </outline>
</glyph>
<glyph name="n" format="2">
  <advance width="548"/>
  <unicode hex="006E"/>
  <anchor x="293" y="0" name="bottom"/>
  <anchor x="310" y="452" name="top"/>
  <outline>
    <contour>
      <point x="327" y="29" type="curve"/>
      <point x="323" y="-12" type="line"/>
      <point x="323" y="-12"/>
      <point x="384" y="0"/>
      <point x="426" y="0" type="curve" smooth="yes"/>
      <point x="463" y="0"/>
      <point x="515" y="-3"/>
      <point x="515" y="-3" type="curve"/>
      <point x="523" y="40" type="line"/>
      <point x="521" y="44" type="line"/>
      <point x="521" y="44"/>
      <point x="498" y="42"/>
      <point x="486" y="42" type="curve" smooth="yes"/>
      <point x="461" y="42"/>
      <point x="451" y="59"/>
      <point x="451" y="98" type="curve" smooth="yes"/>
      <point x="451" y="156"/>
      <point x="465" y="300"/>
      <point x="465" y="335" type="curve" smooth="yes"/>
      <point x="465" y="414"/>
      <point x="412" y="464"/>
      <point x="328" y="464" type="curve" smooth="yes"/>
      <point x="296" y="464"/>
      <point x="205" y="404"/>
      <point x="181" y="388" type="curve"/>
      <point x="179" y="391" type="line"/>
      <point x="181" y="425"/>
      <point x="190" y="457"/>
      <point x="190" y="457" type="curve"/>
      <point x="184" y="465" type="line"/>
      <point x="184" y="465"/>
      <point x="113" y="447"/>
      <point x="44" y="436" type="curve"/>
      <point x="41" y="403" type="line"/>
      <point x="44" y="399" type="line"/>
      <point x="55" y="399" type="line" smooth="yes"/>
      <point x="91" y="399"/>
      <point x="104" y="383"/>
      <point x="104" y="338" type="curve" smooth="yes"/>
      <point x="104" y="94" type="line" smooth="yes"/>
      <point x="104" y="57"/>
      <point x="89" y="41"/>
      <point x="51" y="35" type="curve"/>
      <point x="46" y="-6" type="line"/>
      <point x="46" y="-6"/>
      <point x="103" y="0"/>
      <point x="145" y="0" type="curve" smooth="yes"/>
      <point x="182" y="0"/>
      <point x="236" y="-3"/>
      <point x="236" y="-3" type="curve"/>
      <point x="245" y="40" type="line"/>
      <point x="243" y="44" type="line"/>
      <point x="243" y="44"/>
      <point x="220" y="42"/>
      <point x="208" y="42" type="curve" smooth="yes"/>
      <point x="182" y="42"/>
      <point x="172" y="57"/>
      <point x="172" y="98" type="curve" smooth="yes"/>
      <point x="172" y="137"/>
      <point x="178" y="275"/>
      <point x="181" y="344" type="curve"/>
      <point x="201" y="359"/>
      <point x="255" y="396"/>
      <point x="304" y="396" type="curve" smooth="yes"/>
      <point x="357" y="396"/>
      <point x="387" y="358"/>
      <point x="387" y="292" type="curve" smooth="yes"/>
      <point x="383" y="94" type="line" smooth="yes"/>
      <point x="383" y="59"/>
      <point x="367" y="40"/>
    </contour>
  </outline>
</glyph>
<glyph name="o" format="2">
  <advance width="498"/>
  <unicode hex="006F"/>
  <anchor x="249" y="0" name="bottom"/>
  <anchor x="249" y="226" name="center"/>
  <anchor x="318" y="40" name="ogonek"/>
  <anchor x="249" y="452" name="top"/>
  <anchor x="478" y="452" name="topright"/>
  <outline>
    <contour>
      <point x="230" y="-12" type="curve" smooth="yes"/>
      <point x="361" y="-12"/>
      <point x="462" y="99"/>
      <point x="462" y="242" type="curve" smooth="yes"/>
      <point x="462" y="373"/>
      <point x="382" y="464"/>
      <point x="268" y="464" type="curve" smooth="yes"/>
      <point x="137" y="464"/>
      <point x="36" y="353"/>
      <point x="36" y="210" type="curve" smooth="yes"/>
      <point x="36" y="79"/>
      <point x="115" y="-12"/>
    </contour>
    <contour>
      <point x="258" y="37" type="curve" smooth="yes"/>
      <point x="174" y="37"/>
      <point x="116" y="119"/>
      <point x="116" y="239" type="curve" smooth="yes"/>
      <point x="116" y="344"/>
      <point x="163" y="410"/>
      <point x="238" y="410" type="curve" smooth="yes"/>
      <point x="322" y="410"/>
      <point x="380" y="326"/>
      <point x="380" y="206" type="curve" smooth="yes"/>
      <point x="380" y="102"/>
      <point x="333" y="37"/>
    </contour>
  </outline>
</glyph>
<glyph name="p" format="2">
  <advance width="528"/>
  <unicode hex="0070"/>
  <anchor x="380" y="0" name="bottom"/>
  <anchor x="291" y="452" name="top"/>
  <outline>
    <contour>
      <point x="45" y="-237" type="line"/>
      <point x="45" y="-237"/>
      <point x="94" y="-230"/>
      <point x="151" y="-230" type="curve" smooth="yes"/>
      <point x="183" y="-230"/>
      <point x="214" y="-230"/>
      <point x="246" y="-230" type="curve"/>
      <point x="254" y="-192" type="line"/>
      <point x="252" y="-189" type="line"/>
      <point x="241" y="-189"/>
      <point x="229" y="-190"/>
      <point x="218" y="-190" type="curve" smooth="yes"/>
      <point x="180" y="-190"/>
      <point x="171" y="-172"/>
      <point x="171" y="-111" type="curve" smooth="yes"/>
      <point x="171" y="-77"/>
      <point x="170" y="-42"/>
      <point x="170" y="-8" type="curve" smooth="yes"/>
      <point x="170" y="-8"/>
      <point x="219" y="-12"/>
      <point x="243" y="-12" type="curve" smooth="yes"/>
      <point x="379" y="-12"/>
      <point x="492" y="106"/>
      <point x="492" y="250" type="curve" smooth="yes"/>
      <point x="492" y="376"/>
      <point x="414" y="461"/>
      <point x="299" y="461" type="curve" smooth="yes"/>
      <point x="284" y="461"/>
      <point x="242" y="437"/>
      <point x="183" y="396" type="curve"/>
      <point x="179" y="403" type="line"/>
      <point x="182" y="429"/>
      <point x="189" y="457"/>
      <point x="189" y="457" type="curve"/>
      <point x="183" y="465" type="line"/>
      <point x="183" y="465"/>
      <point x="112" y="447"/>
      <point x="43" y="436" type="curve"/>
      <point x="40" y="403" type="line"/>
      <point x="43" y="399" type="line"/>
      <point x="54" y="399" type="line" smooth="yes"/>
      <point x="90" y="399"/>
      <point x="103" y="383"/>
      <point x="103" y="338" type="curve" smooth="yes"/>
      <point x="103" y="40" type="line" smooth="yes"/>
      <point x="103" y="-3"/>
      <point x="101" y="-94"/>
      <point x="101" y="-126" type="curve" smooth="yes"/>
      <point x="101" y="-181"/>
      <point x="93" y="-193"/>
      <point x="50" y="-198" type="curve"/>
    </contour>
    <contour>
      <point x="271" y="43" type="curve" smooth="yes"/>
      <point x="238" y="43"/>
      <point x="197" y="51"/>
      <point x="171" y="62" type="curve"/>
      <point x="171" y="148"/>
      <point x="174" y="262"/>
      <point x="179" y="344" type="curve"/>
      <point x="214" y="373"/>
      <point x="256" y="393"/>
      <point x="283" y="393" type="curve" smooth="yes"/>
      <point x="357" y="393"/>
      <point x="415" y="314"/>
      <point x="415" y="213" type="curve" smooth="yes"/>
      <point x="415" y="108"/>
      <point x="360" y="43"/>
    </contour>
  </outline>
</glyph>
<glyph name="q" format="2">
  <advance width="516"/>
  <unicode hex="0071"/>
  <anchor x="149" y="0" name="bottom"/>
  <anchor x="272" y="452" name="top"/>
  <outline>
    <contour>
      <point x="279" y="-234" type="line"/>
      <point x="279" y="-234"/>
      <point x="340" y="-230"/>
      <point x="386" y="-230" type="curve" smooth="yes"/>
      <point x="478" y="-230" type="line"/>
      <point x="485" y="-191" type="line"/>
      <point x="483" y="-189" type="line"/>
      <point x="483" y="-189"/>
      <point x="471" y="-190"/>
      <point x="457" y="-190" type="curve" smooth="yes"/>
      <point x="426" y="-190"/>
      <point x="421" y="-178"/>
      <point x="421" y="-106" type="curve" smooth="yes"/>
      <point x="421" y="222"/>
      <point x="428" y="439"/>
      <point x="440" y="469" type="curve"/>
      <point x="432" y="478" type="line"/>
      <point x="432" y="478"/>
      <point x="407" y="466"/>
      <point x="377" y="455" type="curve"/>
      <point x="347" y="461"/>
      <point x="313" y="464"/>
      <point x="285" y="464" type="curve" smooth="yes"/>
      <point x="148" y="464"/>
      <point x="36" y="346"/>
      <point x="36" y="202" type="curve" smooth="yes"/>
      <point x="36" y="75"/>
      <point x="115" y="-12"/>
      <point x="229" y="-12" type="curve" smooth="yes"/>
      <point x="243" y="-12"/>
      <point x="289" y="15"/>
      <point x="354" y="60" type="curve"/>
      <point x="350" y="-135" type="line" smooth="yes"/>
      <point x="348" y="-184"/>
      <point x="339" y="-193"/>
      <point x="284" y="-196" type="curve"/>
    </contour>
    <contour>
      <point x="245" y="53" type="curve" smooth="yes"/>
      <point x="171" y="53"/>
      <point x="113" y="134"/>
      <point x="113" y="236" type="curve" smooth="yes"/>
      <point x="113" y="341"/>
      <point x="168" y="406"/>
      <point x="257" y="406" type="curve" smooth="yes"/>
      <point x="317" y="406"/>
      <point x="354" y="383"/>
      <point x="354" y="383" type="curve"/>
      <point x="354" y="109" type="line"/>
      <point x="354" y="109"/>
      <point x="293" y="53"/>
    </contour>
  </outline>
</glyph>
<glyph name="r" format="2">
  <advance width="383"/>
  <unicode hex="0072"/>
  <anchor x="160" y="0" name="bottom"/>
  <anchor x="222" y="452" name="top"/>
  <outline>
    <contour>
      <point x="59" y="36" type="curve" smooth="yes"/>
      <point x="54" y="-4" type="line" smooth="yes"/>
      <point x="54" y="-4"/>
      <point x="100" y="0"/>
      <point x="159" y="0" type="curve" smooth="yes"/>
      <point x="198" y="0"/>
      <point x="261" y="-2"/>
      <point x="261" y="-2" type="curve" smooth="yes"/>
      <point x="270" y="42" type="line"/>
      <point x="269" y="46" type="line" smooth="yes"/>
      <point x="269" y="46"/>
      <point x="239" y="44"/>
      <point x="225" y="44" type="curve" smooth="yes"/>
      <point x="187" y="44"/>
      <point x="177" y="57"/>
      <point x="177" y="102" type="curve" smooth="yes"/>
      <point x="177" y="124"/>
      <point x="185" y="306"/>
      <point x="185" y="306" type="curve"/>
      <point x="213" y="348"/>
      <point x="249" y="374"/>
      <point x="278" y="374" type="curve" smooth="yes"/>
      <point x="300" y="374"/>
      <point x="305" y="361"/>
      <point x="305" y="306" type="curve" smooth="yes"/>
      <point x="344" y="309" type="line" smooth="yes"/>
      <point x="346" y="370"/>
      <point x="360" y="452"/>
      <point x="360" y="452" type="curve" smooth="yes"/>
      <point x="357" y="456" type="line" smooth="yes"/>
      <point x="357" y="456"/>
      <point x="348" y="460"/>
      <point x="326" y="460" type="curve" smooth="yes"/>
      <point x="286" y="460"/>
      <point x="226" y="416"/>
      <point x="185" y="353" type="curve" smooth="yes"/>
      <point x="181" y="356" type="line" smooth="yes"/>
      <point x="180" y="403"/>
      <point x="190" y="459"/>
      <point x="190" y="459" type="curve" smooth="yes"/>
      <point x="183" y="465" type="line" smooth="yes"/>
      <point x="183" y="465"/>
      <point x="109" y="446"/>
      <point x="48" y="435" type="curve" smooth="yes"/>
      <point x="45" y="404" type="line"/>
      <point x="50" y="397" type="line"/>
      <point x="50" y="397"/>
      <point x="60" y="400"/>
      <point x="71" y="400" type="curve" smooth="yes"/>
      <point x="98" y="400"/>
      <point x="109" y="383"/>
      <point x="109" y="339" type="curve" smooth="yes"/>
      <point x="109" y="119" type="line" smooth="yes"/>
      <point x="109" y="56"/>
      <point x="99" y="40"/>
    </contour>
  </outline>
</glyph>
<glyph name="s" format="2">
  <advance width="402"/>
  <unicode hex="0073"/>
  <anchor x="201" y="0" name="bottom"/>
  <anchor x="201" y="452" name="top"/>
  <outline>
    <contour>
      <point x="171" y="-12" type="curve" smooth="yes"/>
      <point x="269" y="-12"/>
      <point x="354" y="54"/>
      <point x="354" y="131" type="curve" smooth="yes"/>
      <point x="354" y="181"/>
      <point x="322" y="214"/>
      <point x="214" y="271" type="curve" smooth="yes"/>
      <point x="152" y="303"/>
      <point x="127" y="329"/>
      <point x="127" y="361" type="curve" smooth="yes"/>
      <point x="127" y="391"/>
      <point x="163" y="416"/>
      <point x="208" y="416" type="curve" smooth="yes"/>
      <point x="265" y="416"/>
      <point x="290" y="395"/>
      <point x="290" y="347" type="curve" smooth="yes"/>
      <point x="290" y="338"/>
      <point x="288" y="318"/>
      <point x="288" y="318" type="curve"/>
      <point x="325" y="321" type="line"/>
      <point x="330" y="387"/>
      <point x="344" y="443"/>
      <point x="344" y="443" type="curve"/>
      <point x="342" y="448" type="line"/>
      <point x="342" y="448"/>
      <point x="296" y="464"/>
      <point x="242" y="464" type="curve" smooth="yes"/>
      <point x="137" y="464"/>
      <point x="58" y="404"/>
      <point x="58" y="322" type="curve" smooth="yes"/>
      <point x="58" y="274"/>
      <point x="91" y="236"/>
      <point x="167" y="197" type="curve" smooth="yes"/>
      <point x="259" y="148"/>
      <point x="283" y="127"/>
      <point x="283" y="94" type="curve" smooth="yes"/>
      <point x="283" y="61"/>
      <point x="243" y="35"/>
      <point x="193" y="35" type="curve" smooth="yes"/>
      <point x="122" y="35"/>
      <point x="96" y="67"/>
      <point x="96" y="155" type="curve"/>
      <point x="61" y="150" type="line"/>
      <point x="60" y="117"/>
      <point x="53" y="37"/>
      <point x="49" y="16" type="curve"/>
      <point x="52" y="9" type="line"/>
      <point x="52" y="9"/>
      <point x="98" y="-12"/>
    </contour>
  </outline>
</glyph>
<glyph name="t" format="2">
  <advance width="330"/>
  <unicode hex="0074"/>
  <anchor x="195" y="0" name="bottom"/>
  <anchor x="167" y="236" name="center"/>
  <anchor x="164" y="471" name="top"/>
  <outline>
    <contour>
      <point x="206" y="-12" type="curve" smooth="yes"/>
      <point x="230" y="-12"/>
      <point x="307" y="48"/>
      <point x="307" y="48" type="curve"/>
      <point x="297" y="74" type="line"/>
      <point x="297" y="74"/>
      <point x="262" y="56"/>
      <point x="229" y="56" type="curve" smooth="yes"/>
      <point x="172" y="56"/>
      <point x="151" y="81"/>
      <point x="151" y="149" type="curve" smooth="yes"/>
      <point x="151" y="252"/>
      <point x="154" y="336"/>
      <point x="158" y="399" type="curve"/>
      <point x="303" y="396" type="line"/>
      <point x="312" y="449" type="line"/>
      <point x="309" y="452" type="line"/>
      <point x="162" y="449" type="line"/>
      <point x="166" y="498"/>
      <point x="170" y="524"/>
      <point x="170" y="524" type="curve"/>
      <point x="150" y="532" type="line"/>
      <point x="150" y="532"/>
      <point x="91" y="473"/>
      <point x="26" y="441" type="curve"/>
      <point x="21" y="411" type="line"/>
      <point x="25" y="405" type="line"/>
      <point x="69" y="403"/>
      <point x="82" y="391"/>
      <point x="82" y="355" type="curve" smooth="yes"/>
      <point x="82" y="109" type="line" smooth="yes"/>
      <point x="82" y="21"/>
      <point x="115" y="-12"/>
    </contour>
  </outline>
</glyph>
<glyph name="v" format="2">
  <advance width="445"/>
  <unicode hex="0076"/>
  <anchor x="200" y="0" name="bottom"/>
  <anchor x="270" y="452" name="top"/>
  <outline>
    <contour>
      <point x="182" y="-17" type="curve"/>
      <point x="238" y="0" type="line"/>
      <point x="381" y="341" type="line"/>
      <point x="406" y="399"/>
      <point x="417" y="412"/>
      <point x="445" y="416" type="curve"/>
      <point x="452" y="453" type="line"/>
      <point x="452" y="453"/>
      <point x="405" y="452"/>
      <point x="370" y="452" type="curve" smooth="yes"/>
      <point x="321" y="452"/>
      <point x="263" y="453"/>
      <point x="263" y="453" type="curve"/>
      <point x="258" y="422" type="line"/>
      <point x="262" y="416" type="line"/>
      <point x="300" y="416" type="line"/>
      <point x="332" y="416"/>
      <point x="343" y="410"/>
      <point x="343" y="392" type="curve" smooth="yes"/>
      <point x="343" y="368"/>
      <point x="299" y="270"/>
      <point x="225" y="86" type="curve"/>
      <point x="221" y="86" type="line"/>
      <point x="221" y="86"/>
      <point x="136" y="368"/>
      <point x="136" y="397" type="curve" smooth="yes"/>
      <point x="136" y="415"/>
      <point x="149" y="421"/>
      <point x="195" y="423" type="curve"/>
      <point x="201" y="454" type="line"/>
      <point x="199" y="459" type="line"/>
      <point x="199" y="459"/>
      <point x="140" y="452"/>
      <point x="79" y="452" type="curve" smooth="yes"/>
      <point x="56" y="452"/>
      <point x="-4" y="453"/>
      <point x="-4" y="453" type="curve"/>
      <point x="-10" y="420" type="line"/>
      <point x="-8" y="416" type="line"/>
      <point x="26" y="415"/>
      <point x="49" y="398"/>
      <point x="60" y="366" type="curve" smooth="yes"/>
      <point x="89" y="280"/>
      <point x="182" y="-17"/>
    </contour>
  </outline>
</glyph>
<glyph name="w" format="2">
  <advance width="705"/>
  <unicode hex="0077"/>
  <anchor x="345" y="0" name="bottom"/>
  <anchor x="394" y="452" name="top"/>
  <outline>
    <contour>
      <point x="182" y="-17" type="curve"/>
      <point x="237" y="0" type="line"/>
      <point x="347" y="278" type="line"/>
      <point x="353" y="278" type="line"/>
      <point x="390" y="158"/>
      <point x="443" y="-17"/>
      <point x="443" y="-17" type="curve"/>
      <point x="497" y="0" type="line"/>
      <point x="637" y="341" type="line" smooth="yes"/>
      <point x="661" y="399"/>
      <point x="672" y="413"/>
      <point x="699" y="416" type="curve"/>
      <point x="706" y="453" type="line"/>
      <point x="706" y="453"/>
      <point x="657" y="452"/>
      <point x="624" y="452" type="curve" smooth="yes"/>
      <point x="576" y="452"/>
      <point x="525" y="454"/>
      <point x="525" y="454" type="curve"/>
      <point x="520" y="423" type="line"/>
      <point x="524" y="417" type="line"/>
      <point x="561" y="417" type="line" smooth="yes"/>
      <point x="591" y="417"/>
      <point x="602" y="410"/>
      <point x="602" y="392" type="curve" smooth="yes"/>
      <point x="602" y="368"/>
      <point x="558" y="269"/>
      <point x="486" y="85" type="curve"/>
      <point x="482" y="85" type="line"/>
      <point x="482" y="85"/>
      <point x="399" y="368"/>
      <point x="399" y="397" type="curve" smooth="yes"/>
      <point x="399" y="414"/>
      <point x="410" y="419"/>
      <point x="456" y="421" type="curve"/>
      <point x="462" y="452" type="line"/>
      <point x="460" y="457" type="line"/>
      <point x="460" y="457"/>
      <point x="402" y="452"/>
      <point x="343" y="452" type="curve" smooth="yes"/>
      <point x="321" y="452"/>
      <point x="263" y="453"/>
      <point x="263" y="453" type="curve"/>
      <point x="257" y="420" type="line"/>
      <point x="259" y="416" type="line"/>
      <point x="300" y="416"/>
      <point x="316" y="392"/>
      <point x="330" y="350" type="curve"/>
      <point x="312" y="300"/>
      <point x="276" y="215"/>
      <point x="225" y="85" type="curve"/>
      <point x="221" y="85" type="line"/>
      <point x="221" y="85"/>
      <point x="138" y="366"/>
      <point x="138" y="397" type="curve" smooth="yes"/>
      <point x="138" y="415"/>
      <point x="151" y="421"/>
      <point x="195" y="423" type="curve"/>
      <point x="201" y="454" type="line"/>
      <point x="199" y="459" type="line"/>
      <point x="199" y="459"/>
      <point x="142" y="452"/>
      <point x="82" y="452" type="curve" smooth="yes"/>
      <point x="60" y="452"/>
      <point x="2" y="453"/>
      <point x="2" y="453" type="curve"/>
      <point x="-4" y="420" type="line"/>
      <point x="-2" y="416" type="line"/>
      <point x="32" y="415"/>
      <point x="53" y="398"/>
      <point x="64" y="366" type="curve" smooth="yes"/>
      <point x="92" y="280"/>
      <point x="182" y="-17"/>
    </contour>
  </outline>
</glyph>
<glyph name="x" format="2">
  <advance width="475"/>
  <unicode hex="0078"/>
  <anchor x="182" y="0" name="bottom"/>
  <anchor x="199" y="452" name="top"/>
  <outline>
    <contour>
      <point x="256" y="-6" type="line"/>
      <point x="256" y="-6"/>
      <point x="328" y="0"/>
      <point x="368" y="0" type="curve" smooth="yes"/>
      <point x="400" y="0"/>
      <point x="459" y="-2"/>
      <point x="459" y="-2" type="curve"/>
      <point x="465" y="32" type="line"/>
      <point x="463" y="36" type="line"/>
      <point x="423" y="40"/>
      <point x="396" y="62"/>
      <point x="362" y="111" type="curve" smooth="yes"/>
      <point x="270" y="242" type="line"/>
      <point x="356" y="343" type="line" smooth="yes"/>
      <point x="389" y="381"/>
      <point x="419" y="411"/>
      <point x="440" y="418" type="curve"/>
      <point x="446" y="450" type="line"/>
      <point x="443" y="455" type="line"/>
      <point x="443" y="455"/>
      <point x="399" y="452"/>
      <point x="372" y="452" type="curve" smooth="yes"/>
      <point x="299" y="452" type="line"/>
      <point x="294" y="419" type="line"/>
      <point x="296" y="415" type="line"/>
      <point x="330" y="415"/>
      <point x="339" y="412"/>
      <point x="339" y="402" type="curve" smooth="yes"/>
      <point x="339" y="388"/>
      <point x="326" y="373"/>
      <point x="308" y="351" type="curve" smooth="yes"/>
      <point x="247" y="274" type="line"/>
      <point x="192" y="354" type="line" smooth="yes"/>
      <point x="179" y="373"/>
      <point x="168" y="388"/>
      <point x="168" y="401" type="curve" smooth="yes"/>
      <point x="168" y="415"/>
      <point x="181" y="420"/>
      <point x="213" y="420" type="curve"/>
      <point x="219" y="451" type="line"/>
      <point x="217" y="456" type="line"/>
      <point x="217" y="456"/>
      <point x="172" y="452"/>
      <point x="115" y="452" type="curve" smooth="yes"/>
      <point x="83" y="452"/>
      <point x="14" y="454"/>
      <point x="14" y="454" type="curve"/>
      <point x="8" y="420" type="line"/>
      <point x="10" y="416" type="line"/>
      <point x="58" y="408"/>
      <point x="74" y="392"/>
      <point x="118" y="329" type="curve" smooth="yes"/>
      <point x="194" y="221" type="line"/>
      <point x="108" y="121" type="line" smooth="yes"/>
      <point x="65" y="71"/>
      <point x="51" y="52"/>
      <point x="15" y="33" type="curve"/>
      <point x="9" y="2" type="line"/>
      <point x="12" y="-3" type="line"/>
      <point x="12" y="-3"/>
      <point x="45" y="0"/>
      <point x="72" y="0" type="curve" smooth="yes"/>
      <point x="95" y="0"/>
      <point x="155" y="-4"/>
      <point x="155" y="-4" type="curve"/>
      <point x="161" y="29" type="line"/>
      <point x="159" y="33" type="line"/>
      <point x="124" y="35"/>
      <point x="115" y="38"/>
      <point x="115" y="51" type="curve" smooth="yes"/>
      <point x="115" y="69"/>
      <point x="179" y="145"/>
      <point x="216" y="190" type="curve"/>
      <point x="289" y="88" type="line" smooth="yes"/>
      <point x="301" y="71"/>
      <point x="306" y="59"/>
      <point x="306" y="51" type="curve" smooth="yes"/>
      <point x="306" y="37"/>
      <point x="293" y="31"/>
      <point x="260" y="30" type="curve"/>
      <point x="254" y="-1" type="line"/>
    </contour>
  </outline>
</glyph>
<glyph name="y" format="2">
  <advance width="446"/>
  <unicode hex="0079"/>
  <anchor x="323" y="0" name="bottom"/>
  <anchor x="223" y="452" name="top"/>
  <outline>
    <contour>
      <point x="36" y="-241" type="curve" smooth="yes"/>
      <point x="124" y="-243"/>
      <point x="164" y="-183"/>
      <point x="263" y="55" type="curve" smooth="yes"/>
      <point x="390" y="359" type="line"/>
      <point x="404" y="398"/>
      <point x="416" y="411"/>
      <point x="446" y="416" type="curve"/>
      <point x="453" y="453" type="line"/>
      <point x="453" y="453"/>
      <point x="403" y="452"/>
      <point x="368" y="452" type="curve" smooth="yes"/>
      <point x="319" y="452"/>
      <point x="266" y="456"/>
      <point x="266" y="456" type="curve"/>
      <point x="260" y="423" type="line"/>
      <point x="262" y="419" type="line"/>
      <point x="308" y="419" type="line" smooth="yes"/>
      <point x="334" y="419"/>
      <point x="346" y="411"/>
      <point x="346" y="393" type="curve" smooth="yes"/>
      <point x="346" y="373"/>
      <point x="277" y="204"/>
      <point x="231" y="94" type="curve"/>
      <point x="227" y="94" type="line"/>
      <point x="227" y="94"/>
      <point x="139" y="362"/>
      <point x="139" y="397" type="curve" smooth="yes"/>
      <point x="139" y="415"/>
      <point x="150" y="421"/>
      <point x="196" y="423" type="curve"/>
      <point x="202" y="454" type="line"/>
      <point x="200" y="459" type="line"/>
      <point x="200" y="459"/>
      <point x="139" y="452"/>
      <point x="80" y="452" type="curve" smooth="yes"/>
      <point x="57" y="452"/>
      <point x="-3" y="453"/>
      <point x="-3" y="453" type="curve"/>
      <point x="-9" y="420" type="line"/>
      <point x="-7" y="416" type="line"/>
      <point x="26" y="415"/>
      <point x="48" y="403"/>
      <point x="61" y="368" type="curve" smooth="yes"/>
      <point x="98" y="270"/>
      <point x="154" y="98"/>
      <point x="185" y="0" type="curve"/>
      <point x="139" y="-109"/>
      <point x="74" y="-177"/>
      <point x="-3" y="-177" type="curve"/>
      <point x="-8" y="-184" type="line"/>
      <point x="-8" y="-197"/>
      <point x="26" y="-241"/>
    </contour>
  </outline>
</glyph>
<glyph name="z" format="2">
  <advance width="460"/>
  <unicode hex="007A"/>
  <anchor x="210" y="0" name="bottom"/>
  <anchor x="245" y="452" name="top"/>
  <outline>
    <contour>
      <point x="36" y="23" type="line"/>
      <point x="46" y="-2" type="line"/>
      <point x="98" y="3" type="line"/>
      <point x="379" y="-6" type="line"/>
      <point x="395" y="10" type="line"/>
      <point x="395" y="82"/>
      <point x="412" y="171"/>
      <point x="412" y="171" type="curve"/>
      <point x="372" y="166" type="line"/>
      <point x="358" y="83"/>
      <point x="331" y="48"/>
      <point x="278" y="44" type="curve" smooth="yes"/>
      <point x="130" y="35" type="line"/>
      <point x="159" y="78"/>
      <point x="274" y="245"/>
      <point x="416" y="428" type="curve"/>
      <point x="408" y="449" type="line"/>
      <point x="198" y="454" type="line"/>
      <point x="70" y="462" type="line"/>
      <point x="64" y="457" type="line"/>
      <point x="63" y="393"/>
      <point x="53" y="312"/>
      <point x="53" y="312" type="curve"/>
      <point x="92" y="318" type="line"/>
      <point x="99" y="385"/>
      <point x="118" y="404"/>
      <point x="183" y="408" type="curve"/>
      <point x="308" y="414" type="line"/>
    </contour>
  </outline>
</glyph>
<glyph name="bar" format="2">
  <advance width="372"/>
  <unicode hex="007C"/>
  <outline>
    <contour>
      <point x="161" y="-269" type="line"/>
      <point x="220" y="-258" type="line"/>
      <point x="220" y="-258"/>
      <point x="219" y="119"/>
      <point x="219" y="291" type="curve" smooth="yes"/>
      <point x="219" y="457"/>
      <point x="225" y="801"/>
      <point x="225" y="801" type="curve"/>
      <point x="214" y="807" type="line"/>
      <point x="154" y="796" type="line"/>
      <point x="153" y="276" type="line" smooth="yes"/>
      <point x="152" y="97"/>
      <point x="152" y="-263"/>
      <point x="152" y="-263" type="curve"/>
    </contour>
  </outline>
</glyph>
<glyph name="exclamdown" format="2">
  <advance width="285"/>
  <unicode hex="00A1"/>
  <outline>
    <contour>
      <point x="97" y="-242" type="line"/>
      <point x="180" y="-224" type="line"/>
      <point x="187" y="-214" type="line"/>
      <point x="179" y="242" type="line"/>
      <point x="168" y="250" type="line"/>
      <point x="140" y="243" type="line"/>
      <point x="88" y="-231" type="line"/>
    </contour>
    <contour>
      <point x="162" y="345" type="curve" smooth="yes"/>
      <point x="200" y="345"/>
      <point x="224" y="373"/>
      <point x="224" y="407" type="curve" smooth="yes"/>
      <point x="224" y="436"/>
      <point x="206" y="464"/>
      <point x="168" y="464" type="curve" smooth="yes"/>
      <point x="129" y="464"/>
      <point x="105" y="436"/>
      <point x="105" y="402" type="curve" smooth="yes"/>
      <point x="105" y="371"/>
      <point x="125" y="345"/>
    </contour>
  </outline>
</glyph>
<glyph name="cent" format="2">
  <advance width="424"/>
  <unicode hex="00A2"/>
  <anchor x="248" y="0" name="bottom"/>
  <anchor x="307" y="105" name="bottomright"/>
  <anchor x="260" y="472" name="top"/>
  <outline>
    <contour>
      <point x="281" y="658" type="line"/>
      <point x="255" y="654" type="line"/>
      <point x="180" y="-147" type="line"/>
      <point x="185" y="-154" type="line"/>
      <point x="211" y="-151" type="line"/>
      <point x="287" y="649" type="line"/>
    </contour>
    <contour>
      <point x="245" y="-12" type="curve" smooth="yes"/>
      <point x="294" y="-12"/>
      <point x="382" y="55"/>
      <point x="382" y="55" type="curve"/>
      <point x="371" y="86" type="line"/>
      <point x="365" y="88" type="line"/>
      <point x="365" y="88"/>
      <point x="308" y="55"/>
      <point x="252" y="55" type="curve" smooth="yes"/>
      <point x="168" y="55"/>
      <point x="116" y="127"/>
      <point x="116" y="243" type="curve" smooth="yes"/>
      <point x="116" y="350"/>
      <point x="161" y="410"/>
      <point x="243" y="410" type="curve" smooth="yes"/>
      <point x="292" y="410"/>
      <point x="325" y="377"/>
      <point x="325" y="328" type="curve" smooth="yes"/>
      <point x="325" y="297" type="line"/>
      <point x="366" y="300" type="line"/>
      <point x="369" y="378"/>
      <point x="387" y="438"/>
      <point x="387" y="438" type="curve"/>
      <point x="384" y="445" type="line"/>
      <point x="384" y="445"/>
      <point x="331" y="464"/>
      <point x="267" y="464" type="curve" smooth="yes"/>
      <point x="136" y="464"/>
      <point x="36" y="353"/>
      <point x="36" y="209" type="curve" smooth="yes"/>
      <point x="36" y="75"/>
      <point x="118" y="-12"/>
    </contour>
  </outline>
</glyph>
<glyph name="sterling" format="2">
  <advance width="525"/>
  <unicode hex="00A3"/>
  <outline>
    <contour>
      <point x="395" y="-12" type="curve" smooth="yes"/>
      <point x="438" y="-12"/>
      <point x="471" y="28"/>
      <point x="471" y="82" type="curve" smooth="yes"/>
      <point x="471" y="101"/>
      <point x="467" y="119"/>
      <point x="458" y="140" type="curve"/>
      <point x="440" y="142" type="line"/>
      <point x="435" y="91"/>
      <point x="410" y="67"/>
      <point x="365" y="67" type="curve" smooth="yes"/>
      <point x="315" y="67"/>
      <point x="251" y="89"/>
      <point x="193" y="89" type="curve"/>
      <point x="138" y="78" type="line"/>
      <point x="177" y="110"/>
      <point x="199" y="155"/>
      <point x="202" y="208" type="curve"/>
      <point x="204" y="287" type="line"/>
      <point x="281" y="287"/>
      <point x="360" y="284"/>
      <point x="360" y="284" type="curve"/>
      <point x="370" y="337" type="line"/>
      <point x="367" y="340" type="line"/>
      <point x="367" y="340"/>
      <point x="283" y="337"/>
      <point x="206" y="337" type="curve"/>
      <point x="209" y="415" type="line" smooth="yes"/>
      <point x="212" y="498"/>
      <point x="242" y="539"/>
      <point x="300" y="539" type="curve" smooth="yes"/>
      <point x="327" y="539"/>
      <point x="362" y="528"/>
      <point x="403" y="506" type="curve"/>
      <point x="422" y="509" type="line"/>
      <point x="445" y="572" type="line"/>
      <point x="440" y="583" type="line"/>
      <point x="420" y="592"/>
      <point x="377" y="598"/>
      <point x="337" y="598" type="curve" smooth="yes"/>
      <point x="220" y="598"/>
      <point x="142" y="504"/>
      <point x="142" y="361" type="curve" smooth="yes"/>
      <point x="142" y="344" type="line"/>
      <point x="82" y="333" type="line"/>
      <point x="75" y="299" type="line"/>
      <point x="79" y="293" type="line"/>
      <point x="129" y="290"/>
      <point x="140" y="283"/>
      <point x="142" y="252" type="curve"/>
      <point x="142" y="204" type="line" smooth="yes"/>
      <point x="142" y="141"/>
      <point x="107" y="87"/>
      <point x="38" y="41" type="curve"/>
      <point x="53" y="7" type="line"/>
      <point x="60" y="3" type="line"/>
      <point x="88" y="24"/>
      <point x="114" y="33"/>
      <point x="144" y="33" type="curve" smooth="yes"/>
      <point x="223" y="33"/>
      <point x="324" y="-12"/>
    </contour>
  </outline>
</glyph>
<glyph name="currency" format="2">
  <advance width="475"/>
  <unicode hex="00A4"/>
  <outline>
    <contour>
      <point x="84" y="173" type="line"/>
      <point x="84" y="173"/>
      <point x="116" y="204"/>
      <point x="151" y="240" type="curve"/>
      <point x="175" y="223"/>
      <point x="204" y="213"/>
      <point x="236" y="213" type="curve" smooth="yes"/>
      <point x="268" y="213"/>
      <point x="298" y="223"/>
      <point x="322" y="240" type="curve"/>
      <point x="388" y="174" type="line"/>
      <point x="428" y="204" type="line"/>
      <point x="431" y="215" type="line"/>
      <point x="431" y="215"/>
      <point x="396" y="247"/>
      <point x="360" y="281" type="curve"/>
      <point x="374" y="303"/>
      <point x="383" y="330"/>
      <point x="383" y="359" type="curve" smooth="yes"/>
      <point x="383" y="391"/>
      <point x="373" y="421"/>
      <point x="355" y="445" type="curve"/>
      <point x="425" y="514" type="line"/>
      <point x="398" y="554" type="line"/>
      <point x="385" y="557" type="line"/>
      <point x="385" y="557"/>
      <point x="352" y="520"/>
      <point x="317" y="482" type="curve"/>
      <point x="294" y="497"/>
      <point x="266" y="506"/>
      <point x="236" y="506" type="curve" smooth="yes"/>
      <point x="206" y="506"/>
      <point x="178" y="497"/>
      <point x="155" y="482" type="curve"/>
      <point x="120" y="517"/>
      <point x="88" y="551"/>
      <point x="88" y="551" type="curve"/>
      <point x="49" y="525" type="line"/>
      <point x="47" y="513" type="line"/>
      <point x="47" y="513"/>
      <point x="81" y="480"/>
      <point x="117" y="444" type="curve"/>
      <point x="100" y="420"/>
      <point x="90" y="391"/>
      <point x="90" y="359" type="curve" smooth="yes"/>
      <point x="90" y="329"/>
      <point x="99" y="300"/>
      <point x="115" y="277" type="curve"/>
      <point x="82" y="245"/>
      <point x="50" y="215"/>
      <point x="50" y="215" type="curve"/>
      <point x="73" y="176" type="line"/>
    </contour>
    <contour>
      <point x="236" y="261" type="curve" smooth="yes"/>
      <point x="182" y="261"/>
      <point x="138" y="305"/>
      <point x="138" y="359" type="curve" smooth="yes"/>
      <point x="138" y="414"/>
      <point x="182" y="458"/>
      <point x="236" y="458" type="curve" smooth="yes"/>
      <point x="291" y="458"/>
      <point x="335" y="414"/>
      <point x="335" y="359" type="curve" smooth="yes"/>
      <point x="335" y="305"/>
      <point x="291" y="261"/>
    </contour>
  </outline>
</glyph>
<glyph name="yen" format="2">
  <advance width="532"/>
  <unicode hex="00A5"/>
  <outline>
    <contour>
      <point x="158" y="-10" type="line"/>
      <point x="158" y="-10"/>
      <point x="218" y="0"/>
      <point x="258" y="0" type="curve" smooth="yes"/>
      <point x="296" y="0"/>
      <point x="368" y="-2"/>
      <point x="368" y="-2" type="curve"/>
      <point x="377" y="36" type="line"/>
      <point x="375" y="44" type="line"/>
      <point x="375" y="44"/>
      <point x="362" y="44"/>
      <point x="348" y="43" type="curve" smooth="yes"/>
      <point x="341" y="43"/>
      <point x="335" y="42"/>
      <point x="329" y="42" type="curve" smooth="yes"/>
      <point x="303" y="42"/>
      <point x="297" y="53"/>
      <point x="297" y="90" type="curve" smooth="yes"/>
      <point x="297" y="109"/>
      <point x="298" y="129"/>
      <point x="298" y="148" type="curve"/>
      <point x="485" y="148" type="line"/>
      <point x="488" y="178" type="line"/>
      <point x="482" y="187" type="line"/>
      <point x="421" y="186"/>
      <point x="360" y="184"/>
      <point x="299" y="183" type="curve"/>
      <point x="300" y="196"/>
      <point x="304" y="212"/>
      <point x="309" y="222" type="curve"/>
      <point x="344" y="279" type="line"/>
      <point x="485" y="279" type="line"/>
      <point x="488" y="309" type="line"/>
      <point x="482" y="318" type="line"/>
      <point x="444" y="317"/>
      <point x="405" y="317"/>
      <point x="367" y="316" type="curve"/>
      <point x="409" y="384" type="line"/>
      <point x="444" y="437"/>
      <point x="452" y="453"/>
      <point x="506" y="461" type="curve"/>
      <point x="512" y="498" type="line"/>
      <point x="507" y="505" type="line"/>
      <point x="507" y="505"/>
      <point x="460" y="502"/>
      <point x="427" y="502" type="curve" smooth="yes"/>
      <point x="391" y="502"/>
      <point x="329" y="508"/>
      <point x="329" y="508" type="curve"/>
      <point x="324" y="471" type="line" smooth="yes"/>
      <point x="324" y="469"/>
      <point x="325" y="466"/>
      <point x="325" y="464" type="curve"/>
      <point x="357" y="461"/>
      <point x="378" y="455"/>
      <point x="378" y="444" type="curve" smooth="yes"/>
      <point x="378" y="431"/>
      <point x="372" y="419"/>
      <point x="365" y="407" type="curve" smooth="yes"/>
      <point x="272" y="248" type="line"/>
      <point x="192" y="405" type="line"/>
      <point x="192" y="405"/>
      <point x="193" y="405"/>
      <point x="193" y="405" type="curve"/>
      <point x="185" y="422"/>
      <point x="181" y="432"/>
      <point x="181" y="441" type="curve" smooth="yes"/>
      <point x="181" y="454"/>
      <point x="188" y="459"/>
      <point x="244" y="465" type="curve"/>
      <point x="247" y="499" type="line"/>
      <point x="242" y="509" type="line"/>
      <point x="242" y="510"/>
      <point x="171" y="502"/>
      <point x="122" y="502" type="curve" smooth="yes"/>
      <point x="83" y="502"/>
      <point x="25" y="505"/>
      <point x="25" y="505" type="curve"/>
      <point x="23" y="493"/>
      <point x="20" y="481"/>
      <point x="18" y="469" type="curve"/>
      <point x="19" y="466"/>
      <point x="19" y="463"/>
      <point x="20" y="460" type="curve"/>
      <point x="104" y="456"/>
      <point x="110" y="407"/>
      <point x="161" y="314" type="curve"/>
      <point x="49" y="314" type="line"/>
      <point x="44" y="285" type="line"/>
      <point x="49" y="278" type="line"/>
      <point x="93" y="278"/>
      <point x="137" y="279"/>
      <point x="181" y="279" type="curve"/>
      <point x="205" y="236" type="line" smooth="yes"/>
      <point x="216" y="216"/>
      <point x="221" y="200"/>
      <point x="226" y="183" type="curve"/>
      <point x="49" y="183" type="line"/>
      <point x="44" y="154" type="line"/>
      <point x="49" y="147" type="line"/>
      <point x="109" y="147"/>
      <point x="169" y="148"/>
      <point x="229" y="148" type="curve"/>
      <point x="229" y="63"/>
      <point x="233" y="45"/>
      <point x="163" y="33" type="curve"/>
    </contour>
  </outline>
</glyph>
<glyph name="brokenbar" format="2">
  <advance width="372"/>
  <unicode hex="00A6"/>
  <outline>
    <contour>
      <point x="157" y="367" type="line"/>
      <point x="219" y="376" type="line"/>
      <point x="220" y="552"/>
      <point x="225" y="801"/>
      <point x="225" y="801" type="curve"/>
      <point x="214" y="807" type="line"/>
      <point x="154" y="796" type="line"/>
      <point x="154" y="654"/>
      <point x="153" y="512"/>
      <point x="153" y="370" type="curve"/>
    </contour>
    <contour>
      <point x="161" y="-269" type="line"/>
      <point x="220" y="-258" type="line"/>
      <point x="220" y="-258"/>
      <point x="219" y="-19"/>
      <point x="219" y="175" type="curve"/>
      <point x="216" y="178" type="line"/>
      <point x="152" y="166" type="line"/>
      <point x="152" y="23"/>
      <point x="152" y="-120"/>
      <point x="152" y="-263" type="curve"/>
    </contour>
  </outline>
</glyph>
<glyph name="section" format="2">
  <advance width="512"/>
  <unicode hex="00A7"/>
  <outline>
    <contour>
      <point x="360" y="42" type="curve"/>
      <point x="360" y="191"/>
      <point x="91" y="263"/>
      <point x="91" y="383" type="curve" smooth="yes"/>
      <point x="91" y="426"/>
      <point x="112" y="455"/>
      <point x="164" y="484" type="curve"/>
      <point x="160" y="518" type="line"/>
      <point x="83" y="475"/>
      <point x="35" y="410"/>
      <point x="35" y="350" type="curve" smooth="yes"/>
      <point x="35" y="184"/>
      <point x="302" y="137"/>
      <point x="302" y="14" type="curve" smooth="yes"/>
      <point x="302" y="-27"/>
      <point x="267" y="-58"/>
      <point x="225" y="-58" type="curve" smooth="yes"/>
      <point x="166" y="-58"/>
      <point x="120" y="-11"/>
      <point x="107" y="60" type="curve"/>
      <point x="92" y="60" type="line"/>
      <point x="85" y="50"/>
      <point x="77" y="5"/>
      <point x="77" y="-25" type="curve" smooth="yes"/>
      <point x="77" y="-71"/>
      <point x="127" y="-105"/>
      <point x="194" y="-105" type="curve" smooth="yes"/>
      <point x="290" y="-105"/>
      <point x="362" y="-19"/>
    </contour>
    <contour>
      <point x="348" y="68" type="curve"/>
      <point x="351" y="31" type="line"/>
      <point x="424" y="64"/>
      <point x="477" y="138"/>
      <point x="477" y="208" type="curve" smooth="yes"/>
      <point x="477" y="365"/>
      <point x="206" y="414"/>
      <point x="206" y="538" type="curve" smooth="yes"/>
      <point x="206" y="574"/>
      <point x="230" y="600"/>
      <point x="262" y="600" type="curve" smooth="yes"/>
      <point x="302" y="600"/>
      <point x="345" y="568"/>
      <point x="364" y="522" type="curve"/>
      <point x="378" y="522" type="line"/>
      <point x="386" y="531"/>
      <point x="397" y="576"/>
      <point x="397" y="600" type="curve" smooth="yes"/>
      <point x="397" y="626"/>
      <point x="350" y="649"/>
      <point x="298" y="649" type="curve" smooth="yes"/>
      <point x="217" y="649"/>
      <point x="151" y="582"/>
      <point x="151" y="504" type="curve" smooth="yes"/>
      <point x="151" y="366"/>
      <point x="419" y="284"/>
      <point x="419" y="173" type="curve" smooth="yes"/>
      <point x="419" y="129"/>
      <point x="394" y="94"/>
    </contour>
  </outline>
</glyph>
<glyph name="copyright" format="2">
  <advance width="693"/>
  <unicode hex="00A9"/>
  <outline>
    <contour>
      <point x="346" y="-12" type="curve" smooth="yes"/>
      <point x="515" y="-12"/>
      <point x="651" y="125"/>
      <point x="651" y="293" type="curve" smooth="yes"/>
      <point x="651" y="461"/>
      <point x="515" y="598"/>
      <point x="346" y="598" type="curve" smooth="yes"/>
      <point x="177" y="598"/>
      <point x="42" y="461"/>
      <point x="42" y="293" type="curve" smooth="yes"/>
      <point x="42" y="125"/>
      <point x="177" y="-12"/>
    </contour>
    <contour>
      <point x="339" y="131" type="curve" smooth="yes"/>
      <point x="402" y="131"/>
      <point x="447" y="150"/>
      <point x="447" y="150" type="curve"/>
      <point x="451" y="157" type="line"/>
      <point x="453" y="195"/>
      <point x="464" y="244"/>
      <point x="464" y="244" type="curve"/>
      <point x="432" y="242" type="line"/>
      <point x="422" y="190"/>
      <point x="399" y="167"/>
      <point x="353" y="167" type="curve" smooth="yes"/>
      <point x="286" y="167"/>
      <point x="255" y="222"/>
      <point x="255" y="304" type="curve" smooth="yes"/>
      <point x="255" y="383"/>
      <point x="292" y="423"/>
      <point x="351" y="423" type="curve" smooth="yes"/>
      <point x="399" y="423"/>
      <point x="415" y="404"/>
      <point x="415" y="379" type="curve" smooth="yes"/>
      <point x="415" y="368"/>
      <point x="414" y="355"/>
      <point x="414" y="355" type="curve"/>
      <point x="447" y="357" type="line"/>
      <point x="450" y="408"/>
      <point x="460" y="447"/>
      <point x="460" y="447" type="curve"/>
      <point x="458" y="451" type="line"/>
      <point x="458" y="451"/>
      <point x="408" y="463"/>
      <point x="362" y="463" type="curve" smooth="yes"/>
      <point x="257" y="463"/>
      <point x="189" y="387"/>
      <point x="189" y="287" type="curve" smooth="yes"/>
      <point x="189" y="202"/>
      <point x="237" y="131"/>
    </contour>
    <contour>
      <point x="346" y="28" type="curve" smooth="yes"/>
      <point x="201" y="28"/>
      <point x="84" y="147"/>
      <point x="84" y="293" type="curve" smooth="yes"/>
      <point x="84" y="439"/>
      <point x="201" y="558"/>
      <point x="346" y="558" type="curve" smooth="yes"/>
      <point x="491" y="558"/>
      <point x="609" y="439"/>
      <point x="609" y="293" type="curve" smooth="yes"/>
      <point x="609" y="147"/>
      <point x="491" y="28"/>
    </contour>
  </outline>
</glyph>
<glyph name="ordfeminine" format="2">
  <advance width="321"/>
  <unicode hex="00AA"/>
  <anchor x="229" y="0" name="bottom"/>
  <anchor x="420" y="41" name="ogonek"/>
  <anchor x="235" y="474" name="top"/>
  <outline>
    <contour>
      <point x="251" y="343" type="curve"/>
      <point x="282" y="353"/>
      <point x="310" y="401"/>
      <point x="310" y="401" type="curve"/>
      <point x="301" y="413" type="line"/>
      <point x="301" y="413"/>
      <point x="284" y="400"/>
      <point x="266" y="400" type="curve" smooth="yes"/>
      <point x="251" y="400"/>
      <point x="242" y="410"/>
      <point x="242" y="427" type="curve" smooth="yes"/>
      <point x="242" y="459"/>
      <point x="254" y="541"/>
      <point x="254" y="563" type="curve" smooth="yes"/>
      <point x="254" y="612"/>
      <point x="222" y="647"/>
      <point x="155" y="647" type="curve" smooth="yes"/>
      <point x="126" y="647"/>
      <point x="44" y="600"/>
      <point x="44" y="600" type="curve"/>
      <point x="53" y="567" type="line"/>
      <point x="58" y="565" type="line"/>
      <point x="58" y="565"/>
      <point x="94" y="595"/>
      <point x="134" y="595" type="curve" smooth="yes"/>
      <point x="169" y="595"/>
      <point x="189" y="572"/>
      <point x="189" y="534" type="curve"/>
      <point x="188" y="514" type="line"/>
      <point x="66" y="484" type="line" smooth="yes"/>
      <point x="44" y="478"/>
      <point x="30" y="457"/>
      <point x="30" y="432" type="curve" smooth="yes"/>
      <point x="30" y="383"/>
      <point x="67" y="346"/>
      <point x="115" y="346" type="curve" smooth="yes"/>
      <point x="130" y="346"/>
      <point x="158" y="367"/>
      <point x="186" y="394" type="curve"/>
      <point x="190" y="393" type="line"/>
      <point x="193" y="360"/>
      <point x="214" y="343"/>
    </contour>
    <contour>
      <point x="134" y="399" type="curve" smooth="yes"/>
      <point x="111" y="399"/>
      <point x="94" y="416"/>
      <point x="94" y="439" type="curve" smooth="yes"/>
      <point x="94" y="451"/>
      <point x="100" y="459"/>
      <point x="111" y="462" type="curve" smooth="yes"/>
      <point x="187" y="484" type="line"/>
      <point x="185" y="422" type="line"/>
      <point x="169" y="409"/>
      <point x="148" y="399"/>
    </contour>
  </outline>
</glyph>
<glyph name="degree" format="2">
  <advance width="302"/>
  <unicode hex="00B0"/>
  <outline>
    <contour>
      <point x="151" y="397" type="curve" smooth="yes"/>
      <point x="221" y="397"/>
      <point x="277" y="453"/>
      <point x="277" y="523" type="curve" smooth="yes"/>
      <point x="277" y="593"/>
      <point x="221" y="649"/>
      <point x="151" y="649" type="curve" smooth="yes"/>
      <point x="81" y="649"/>
      <point x="25" y="593"/>
      <point x="25" y="523" type="curve" smooth="yes"/>
      <point x="25" y="453"/>
      <point x="81" y="397"/>
    </contour>
    <contour>
      <point x="151" y="439" type="curve" smooth="yes"/>
      <point x="105" y="439"/>
      <point x="67" y="477"/>
      <point x="67" y="523" type="curve" smooth="yes"/>
      <point x="67" y="569"/>
      <point x="105" y="607"/>
      <point x="151" y="607" type="curve" smooth="yes"/>
      <point x="197" y="607"/>
      <point x="235" y="569"/>
      <point x="235" y="523" type="curve" smooth="yes"/>
      <point x="235" y="477"/>
      <point x="197" y="439"/>
    </contour>
  </outline>
</glyph>
<glyph name="twosuperior" format="2">
  <advance width="329"/>
  <unicode hex="00B2"/>
  <outline>
    <contour>
      <point x="24" y="369" type="line"/>
      <point x="30" y="344" type="line"/>
      <point x="72" y="351" type="line"/>
      <point x="130" y="351"/>
      <point x="280" y="346"/>
      <point x="280" y="346" type="curve"/>
      <point x="289" y="352" type="line"/>
      <point x="294" y="401"/>
      <point x="308" y="463"/>
      <point x="308" y="463" type="curve"/>
      <point x="270" y="459" type="line"/>
      <point x="259" y="413"/>
      <point x="247" y="402"/>
      <point x="204" y="402" type="curve" smooth="yes"/>
      <point x="122" y="402" type="line"/>
      <point x="119" y="407" type="line"/>
      <point x="226" y="531"/>
      <point x="263" y="592"/>
      <point x="263" y="643" type="curve" smooth="yes"/>
      <point x="263" y="694"/>
      <point x="220" y="728"/>
      <point x="155" y="728" type="curve" smooth="yes"/>
      <point x="108" y="728"/>
      <point x="54" y="693"/>
      <point x="28" y="648" type="curve"/>
      <point x="38" y="607" type="line"/>
      <point x="45" y="607" type="line"/>
      <point x="69" y="647"/>
      <point x="101" y="669"/>
      <point x="137" y="669" type="curve" smooth="yes"/>
      <point x="170" y="669"/>
      <point x="188" y="654"/>
      <point x="188" y="624" type="curve" smooth="yes"/>
      <point x="189" y="583"/>
      <point x="156" y="523"/>
      <point x="93" y="446" type="curve" smooth="yes"/>
    </contour>
  </outline>
</glyph>
<glyph name="threesuperior" format="2">
  <advance width="293"/>
  <unicode hex="00B3"/>
  <outline>
    <contour>
      <point x="78" y="343" type="curve" smooth="yes"/>
      <point x="163" y="343"/>
      <point x="254" y="411"/>
      <point x="254" y="472" type="curve" smooth="yes"/>
      <point x="254" y="515"/>
      <point x="225" y="544"/>
      <point x="167" y="560" type="curve"/>
      <point x="167" y="565" type="line"/>
      <point x="210" y="585"/>
      <point x="237" y="619"/>
      <point x="237" y="653" type="curve" smooth="yes"/>
      <point x="237" y="697"/>
      <point x="200" y="728"/>
      <point x="148" y="728" type="curve" smooth="yes"/>
      <point x="102" y="728"/>
      <point x="44" y="692"/>
      <point x="35" y="685" type="curve"/>
      <point x="45" y="648" type="line"/>
      <point x="52" y="648" type="line"/>
      <point x="73" y="665"/>
      <point x="102" y="676"/>
      <point x="124" y="676" type="curve" smooth="yes"/>
      <point x="151" y="676"/>
      <point x="168" y="660"/>
      <point x="168" y="635" type="curve" smooth="yes"/>
      <point x="168" y="610"/>
      <point x="146" y="584"/>
      <point x="115" y="569" type="curve"/>
      <point x="73" y="560" type="line"/>
      <point x="77" y="528" type="line"/>
      <point x="82" y="523" type="line"/>
      <point x="154" y="523"/>
      <point x="186" y="505"/>
      <point x="186" y="463" type="curve" smooth="yes"/>
      <point x="186" y="427"/>
      <point x="145" y="399"/>
      <point x="90" y="399" type="curve" smooth="yes"/>
      <point x="72" y="399"/>
      <point x="54" y="402"/>
      <point x="37" y="407" type="curve"/>
      <point x="31" y="400" type="line"/>
      <point x="32" y="359"/>
      <point x="45" y="343"/>
    </contour>
  </outline>
</glyph>
<glyph name="periodcentered" format="2">
  <advance width="238"/>
  <unicode hex="00B7"/>
  <outline>
    <contour>
      <point x="116" y="168" type="curve" smooth="yes"/>
      <point x="155" y="168"/>
      <point x="179" y="196"/>
      <point x="179" y="230" type="curve" smooth="yes"/>
      <point x="179" y="261"/>
      <point x="159" y="287"/>
      <point x="122" y="287" type="curve" smooth="yes"/>
      <point x="84" y="287"/>
      <point x="60" y="259"/>
      <point x="60" y="225" type="curve" smooth="yes"/>
      <point x="60" y="196"/>
      <point x="78" y="168"/>
    </contour>
  </outline>
</glyph>
<glyph name="onesuperior" format="2">
  <advance width="249"/>
  <unicode hex="00B9"/>
  <outline>
    <contour>
      <point x="35" y="344" type="line"/>
      <point x="35" y="344"/>
      <point x="89" y="351"/>
      <point x="126" y="351" type="curve" smooth="yes"/>
      <point x="158" y="351"/>
      <point x="214" y="349"/>
      <point x="214" y="349" type="curve"/>
      <point x="221" y="385" type="line"/>
      <point x="219" y="388" type="line"/>
      <point x="219" y="388"/>
      <point x="202" y="386"/>
      <point x="187" y="386" type="curve" smooth="yes"/>
      <point x="164" y="386"/>
      <point x="157" y="397"/>
      <point x="157" y="429" type="curve" smooth="yes"/>
      <point x="157" y="481"/>
      <point x="160" y="606"/>
      <point x="163" y="662" type="curve"/>
      <point x="166" y="689"/>
      <point x="172" y="700"/>
      <point x="187" y="713" type="curve"/>
      <point x="182" y="728" type="line"/>
      <point x="181" y="728"/>
      <point x="167" y="725"/>
      <point x="104" y="716" type="curve" smooth="yes"/>
      <point x="73" y="711"/>
      <point x="38" y="707"/>
      <point x="30" y="706" type="curve"/>
      <point x="27" y="674" type="line"/>
      <point x="30" y="671" type="line"/>
      <point x="30" y="671"/>
      <point x="50" y="674"/>
      <point x="63" y="674" type="curve" smooth="yes"/>
      <point x="85" y="674"/>
      <point x="96" y="670"/>
      <point x="96" y="639" type="curve" smooth="yes"/>
      <point x="96" y="430" type="line" smooth="yes"/>
      <point x="96" y="393"/>
      <point x="78" y="382"/>
      <point x="39" y="379" type="curve"/>
    </contour>
  </outline>
</glyph>
<glyph name="ordmasculine" format="2">
  <advance width="338"/>
  <unicode hex="00BA"/>
  <anchor x="259" y="0" name="bottom"/>
  <anchor x="263" y="472" name="top"/>
  <outline>
    <contour>
      <point x="159" y="343" type="curve" smooth="yes"/>
      <point x="247" y="343"/>
      <point x="310" y="411"/>
      <point x="310" y="504" type="curve" smooth="yes"/>
      <point x="310" y="591"/>
      <point x="259" y="647"/>
      <point x="180" y="647" type="curve" smooth="yes"/>
      <point x="92" y="647"/>
      <point x="28" y="579"/>
      <point x="28" y="486" type="curve" smooth="yes"/>
      <point x="28" y="401"/>
      <point x="80" y="343"/>
    </contour>
    <contour>
      <point x="174" y="384" type="curve" smooth="yes"/>
      <point x="127" y="384"/>
      <point x="98" y="429"/>
      <point x="98" y="507" type="curve" smooth="yes"/>
      <point x="98" y="567"/>
      <point x="122" y="601"/>
      <point x="163" y="601" type="curve" smooth="yes"/>
      <point x="210" y="601"/>
      <point x="239" y="556"/>
      <point x="239" y="478" type="curve" smooth="yes"/>
      <point x="239" y="418"/>
      <point x="215" y="384"/>
    </contour>
  </outline>
</glyph>
<glyph name="AE" format="2">
  <advance width="810"/>
  <unicode hex="00C6"/>
  <anchor x="499" y="647" name="top"/>
  <outline>
    <contour>
      <point x="301" y="36" type="curve"/>
      <point x="299" y="-3" type="line"/>
      <point x="301" y="-10" type="line"/>
      <point x="301" y="-10"/>
      <point x="372" y="0"/>
      <point x="449" y="0" type="curve" smooth="yes"/>
      <point x="483" y="0" type="line" smooth="yes"/>
      <point x="584" y="0"/>
      <point x="752" y="-8"/>
      <point x="752" y="-7" type="curve"/>
      <point x="757" y="-1" type="line"/>
      <point x="766" y="84"/>
      <point x="784" y="167"/>
      <point x="784" y="167" type="curve"/>
      <point x="781" y="172" type="line"/>
      <point x="737" y="167" type="line"/>
      <point x="722" y="57"/>
      <point x="704" y="45"/>
      <point x="559" y="45" type="curve" smooth="yes"/>
      <point x="505" y="45"/>
      <point x="483" y="62"/>
      <point x="475" y="113" type="curve" smooth="yes"/>
      <point x="447" y="282" type="line"/>
      <point x="556" y="291" type="line"/>
      <point x="642" y="294" type="line"/>
      <point x="655" y="347" type="line"/>
      <point x="651" y="352" type="line"/>
      <point x="559" y="339" type="line"/>
      <point x="441" y="328" type="line"/>
      <point x="410" y="556" type="line"/>
      <point x="411" y="584"/>
      <point x="418" y="587"/>
      <point x="480" y="587" type="curve" smooth="yes"/>
      <point x="623" y="587"/>
      <point x="637" y="581"/>
      <point x="637" y="516" type="curve" smooth="yes"/>
      <point x="637" y="502"/>
      <point x="635" y="473"/>
      <point x="635" y="473" type="curve"/>
      <point x="683" y="477" type="line"/>
      <point x="689" y="569"/>
      <point x="706" y="643"/>
      <point x="706" y="643" type="curve"/>
      <point x="703" y="649" type="line"/>
      <point x="643" y="640"/>
      <point x="563" y="637"/>
      <point x="405" y="637" type="curve" smooth="yes"/>
      <point x="310" y="637"/>
      <point x="246" y="641"/>
      <point x="246" y="640" type="curve"/>
      <point x="239" y="596" type="line"/>
      <point x="241" y="592" type="line"/>
      <point x="241" y="592"/>
      <point x="263" y="594"/>
      <point x="275" y="594" type="curve" smooth="yes"/>
      <point x="289" y="594"/>
      <point x="297" y="590"/>
      <point x="300" y="578" type="curve"/>
      <point x="53" y="121" type="line" smooth="yes"/>
      <point x="23" y="66"/>
      <point x="-10" y="31"/>
      <point x="-10" y="31" type="curve"/>
      <point x="-3" y="-4" type="line"/>
      <point x="-3" y="-4"/>
      <point x="43" y="0"/>
      <point x="65" y="0" type="curve" smooth="yes"/>
      <point x="129" y="0"/>
      <point x="203" y="-7"/>
      <point x="203" y="-7" type="curve"/>
      <point x="208" y="40" type="line"/>
      <point x="151" y="40" type="line" smooth="yes"/>
      <point x="113" y="40"/>
      <point x="96" y="51"/>
      <point x="96" y="74" type="curve" smooth="yes"/>
      <point x="96" y="85"/>
      <point x="100" y="97"/>
      <point x="112" y="120" type="curve" smooth="yes"/>
      <point x="183" y="258" type="line"/>
      <point x="274" y="268" type="line"/>
      <point x="373" y="276" type="line"/>
      <point x="391" y="153" type="line" smooth="yes"/>
      <point x="394" y="131"/>
      <point x="398" y="109"/>
      <point x="398" y="87" type="curve" smooth="yes"/>
      <point x="398" y="51"/>
      <point x="380" y="42"/>
    </contour>
    <contour>
      <point x="294" y="315" type="line"/>
      <point x="210" y="310" type="line"/>
      <point x="328" y="539" type="line"/>
      <point x="337" y="539" type="line"/>
      <point x="367" y="321" type="line"/>
    </contour>
  </outline>
</glyph>
<glyph name="Thorn" format="2">
  <advance width="543"/>
  <unicode hex="00DE"/>
  <outline>
    <contour>
      <point x="56" y="-12" type="line"/>
      <point x="56" y="-12"/>
      <point x="121" y="0"/>
      <point x="172" y="0" type="curve" smooth="yes"/>
      <point x="219" y="0"/>
      <point x="303" y="-3"/>
      <point x="303" y="-3" type="curve"/>
      <point x="312" y="43" type="line"/>
      <point x="310" y="47" type="line"/>
      <point x="310" y="47"/>
      <point x="281" y="44"/>
      <point x="257" y="44" type="curve" smooth="yes"/>
      <point x="222" y="44"/>
      <point x="213" y="58"/>
      <point x="213" y="112" type="curve" smooth="yes"/>
      <point x="213" y="148" type="line"/>
      <point x="284" y="148" type="line" smooth="yes"/>
      <point x="410" y="148"/>
      <point x="521" y="237"/>
      <point x="521" y="340" type="curve" smooth="yes"/>
      <point x="521" y="445"/>
      <point x="445" y="503"/>
      <point x="307" y="503" type="curve" smooth="yes"/>
      <point x="225" y="503" type="line"/>
      <point x="224" y="513"/>
      <point x="226" y="523"/>
      <point x="227" y="544" type="curve"/>
      <point x="229" y="582"/>
      <point x="243" y="594"/>
      <point x="299" y="601" type="curve"/>
      <point x="303" y="646" type="line"/>
      <point x="303" y="646"/>
      <point x="234" y="637"/>
      <point x="188" y="637" type="curve" smooth="yes"/>
      <point x="147" y="637"/>
      <point x="69" y="640"/>
      <point x="69" y="640" type="curve"/>
      <point x="62" y="596" type="line"/>
      <point x="64" y="592" type="line"/>
      <point x="64" y="592"/>
      <point x="91" y="594"/>
      <point x="106" y="594" type="curve" smooth="yes"/>
      <point x="136" y="594"/>
      <point x="143" y="582"/>
      <point x="143" y="540" type="curve" smooth="yes"/>
      <point x="142" y="120" type="line" smooth="yes"/>
      <point x="142" y="64"/>
      <point x="125" y="46"/>
      <point x="62" y="34" type="curve"/>
    </contour>
    <contour>
      <point x="316" y="192" type="curve"/>
      <point x="287" y="193"/>
      <point x="238" y="201"/>
      <point x="214" y="209" type="curve"/>
      <point x="215" y="260"/>
      <point x="217" y="331"/>
      <point x="222" y="446" type="curve" smooth="yes"/>
      <point x="224" y="453"/>
      <point x="226" y="454"/>
      <point x="249" y="454" type="curve" smooth="yes"/>
      <point x="379" y="454"/>
      <point x="437" y="413"/>
      <point x="437" y="321" type="curve" smooth="yes"/>
      <point x="437" y="246"/>
      <point x="396" y="202"/>
    </contour>
  </outline>
</glyph>
<glyph name="germandbls" format="2">
  <advance width="591"/>
  <unicode hex="00DF"/>
  <outline>
    <contour>
      <point x="404" y="-12" type="curve" smooth="yes"/>
      <point x="500" y="-12"/>
      <point x="582" y="62"/>
      <point x="582" y="147" type="curve" smooth="yes"/>
      <point x="582" y="284"/>
      <point x="365" y="309"/>
      <point x="365" y="397" type="curve" smooth="yes"/>
      <point x="365" y="473"/>
      <point x="491" y="507"/>
      <point x="491" y="620" type="curve" smooth="yes"/>
      <point x="491" y="683"/>
      <point x="418" y="742"/>
      <point x="339" y="742" type="curve" smooth="yes"/>
      <point x="194" y="742"/>
      <point x="108" y="636"/>
      <point x="108" y="456" type="curve" smooth="yes"/>
      <point x="48" y="445" type="line"/>
      <point x="41" y="411" type="line"/>
      <point x="45" y="405" type="line" smooth="yes"/>
      <point x="92" y="403"/>
      <point x="106" y="394"/>
      <point x="108" y="364" type="curve" smooth="yes"/>
      <point x="108" y="108" type="line" smooth="yes"/>
      <point x="108" y="58"/>
      <point x="98" y="41"/>
      <point x="51" y="35" type="curve" smooth="yes"/>
      <point x="46" y="-4" type="line" smooth="yes"/>
      <point x="46" y="-4"/>
      <point x="102" y="0"/>
      <point x="158" y="0" type="curve" smooth="yes"/>
      <point x="188" y="0"/>
      <point x="257" y="-2"/>
      <point x="257" y="-2" type="curve" smooth="yes"/>
      <point x="264" y="40" type="line"/>
      <point x="262" y="44" type="line" smooth="yes"/>
      <point x="262" y="44"/>
      <point x="244" y="43"/>
      <point x="215" y="43" type="curve" smooth="yes"/>
      <point x="189" y="43"/>
      <point x="175" y="63"/>
      <point x="176" y="98" type="curve" smooth="yes"/>
      <point x="182" y="498" type="line" smooth="yes"/>
      <point x="183" y="625"/>
      <point x="219" y="683"/>
      <point x="295" y="683" type="curve" smooth="yes"/>
      <point x="373" y="683"/>
      <point x="422" y="646"/>
      <point x="422" y="588" type="curve" smooth="yes"/>
      <point x="422" y="513"/>
      <point x="291" y="471"/>
      <point x="291" y="378" type="curve" smooth="yes"/>
      <point x="291" y="241"/>
      <point x="511" y="220"/>
      <point x="511" y="115" type="curve" smooth="yes"/>
      <point x="511" y="72"/>
      <point x="475" y="32"/>
      <point x="435" y="32" type="curve" smooth="yes"/>
      <point x="375" y="32"/>
      <point x="340" y="67"/>
      <point x="340" y="127" type="curve"/>
      <point x="326" y="127" type="line"/>
      <point x="310" y="108"/>
      <point x="288" y="60"/>
      <point x="288" y="41" type="curve" smooth="yes"/>
      <point x="288" y="11"/>
      <point x="339" y="-12"/>
    </contour>
  </outline>
</glyph>
<glyph name="ae" format="2">
  <advance width="653"/>
  <unicode hex="00E6"/>
  <anchor x="350" y="472" name="top"/>
  <outline>
    <contour>
      <point x="480" y="-12" type="curve" smooth="yes"/>
      <point x="541" y="-12"/>
      <point x="633" y="56"/>
      <point x="633" y="56" type="curve"/>
      <point x="622" y="85" type="line"/>
      <point x="616" y="87" type="line"/>
      <point x="616" y="87"/>
      <point x="553" y="52"/>
      <point x="493" y="52" type="curve" smooth="yes"/>
      <point x="411" y="52"/>
      <point x="351" y="122"/>
      <point x="344" y="225" type="curve"/>
      <point x="614" y="289" type="line"/>
      <point x="623" y="303" type="line"/>
      <point x="623" y="303"/>
      <point x="625" y="313"/>
      <point x="625" y="322" type="curve" smooth="yes"/>
      <point x="625" y="411"/>
      <point x="573" y="464"/>
      <point x="488" y="464" type="curve" smooth="yes"/>
      <point x="431" y="464"/>
      <point x="375" y="435"/>
      <point x="336" y="384" type="curve"/>
      <point x="319" y="437"/>
      <point x="277" y="464"/>
      <point x="212" y="464" type="curve" smooth="yes"/>
      <point x="170" y="464"/>
      <point x="49" y="394"/>
      <point x="49" y="394" type="curve"/>
      <point x="61" y="351" type="line"/>
      <point x="66" y="348" type="line"/>
      <point x="66" y="348"/>
      <point x="124" y="401"/>
      <point x="189" y="401" type="curve" smooth="yes"/>
      <point x="245" y="401"/>
      <point x="275" y="364"/>
      <point x="275" y="297" type="curve" smooth="yes"/>
      <point x="274" y="247" type="line"/>
      <point x="83" y="195" type="line" smooth="yes"/>
      <point x="51" y="186"/>
      <point x="30" y="155"/>
      <point x="30" y="116" type="curve" smooth="yes"/>
      <point x="30" y="44"/>
      <point x="84" y="-8"/>
      <point x="158" y="-8" type="curve" smooth="yes"/>
      <point x="193" y="1"/>
      <point x="245" y="40"/>
      <point x="297" y="95" type="curve"/>
      <point x="329" y="27"/>
      <point x="396" y="-12"/>
    </contour>
    <contour>
      <point x="170" y="57" type="curve" smooth="yes"/>
      <point x="134" y="57"/>
      <point x="103" y="90"/>
      <point x="103" y="127" type="curve" smooth="yes"/>
      <point x="103" y="146"/>
      <point x="113" y="163"/>
      <point x="135" y="169" type="curve" smooth="yes"/>
      <point x="273" y="210" type="line"/>
      <point x="273" y="178"/>
      <point x="277" y="150"/>
      <point x="285" y="125" type="curve"/>
      <point x="238" y="81"/>
      <point x="198" y="57"/>
    </contour>
    <contour>
      <point x="343" y="262" type="line"/>
      <point x="343" y="269" type="line" smooth="yes"/>
      <point x="343" y="352"/>
      <point x="392" y="408"/>
      <point x="465" y="408" type="curve" smooth="yes"/>
      <point x="507" y="408"/>
      <point x="538" y="374"/>
      <point x="538" y="330" type="curve" smooth="yes"/>
      <point x="538" y="321"/>
      <point x="531" y="316"/>
      <point x="518" y="312" type="curve" smooth="yes"/>
    </contour>
  </outline>
</glyph>
<glyph name="eth" format="2">
  <advance width="508"/>
  <unicode hex="00F0"/>
  <outline>
    <contour>
      <point x="243" y="-12" type="curve" smooth="yes"/>
      <point x="368" y="-12"/>
      <point x="465" y="99"/>
      <point x="465" y="242" type="curve" smooth="yes"/>
      <point x="465" y="376"/>
      <point x="407" y="500"/>
      <point x="301" y="599" type="curve"/>
      <point x="422" y="658" type="line"/>
      <point x="418" y="687" type="line"/>
      <point x="410" y="692" type="line"/>
      <point x="272" y="625" type="line"/>
      <point x="217" y="670"/>
      <point x="152" y="709"/>
      <point x="78" y="741" type="curve"/>
      <point x="68" y="737" type="line"/>
      <point x="53" y="704" type="line"/>
      <point x="118" y="674"/>
      <point x="173" y="639"/>
      <point x="219" y="599" type="curve"/>
      <point x="101" y="541" type="line"/>
      <point x="105" y="511" type="line"/>
      <point x="114" y="508" type="line"/>
      <point x="247" y="572" type="line"/>
      <point x="288" y="530"/>
      <point x="319" y="482"/>
      <point x="342" y="429" type="curve"/>
      <point x="340" y="427" type="line"/>
      <point x="340" y="427"/>
      <point x="297" y="453"/>
      <point x="266" y="453" type="curve" smooth="yes"/>
      <point x="144" y="453"/>
      <point x="43" y="342"/>
      <point x="43" y="206" type="curve" smooth="yes"/>
      <point x="43" y="77"/>
      <point x="125" y="-12"/>
    </contour>
    <contour>
      <point x="271" y="37" type="curve" smooth="yes"/>
      <point x="184" y="37"/>
      <point x="123" y="118"/>
      <point x="123" y="235" type="curve" smooth="yes"/>
      <point x="123" y="338"/>
      <point x="171" y="399"/>
      <point x="250" y="399" type="curve" smooth="yes"/>
      <point x="313" y="399"/>
      <point x="349" y="373"/>
      <point x="365" y="358" type="curve"/>
      <point x="377" y="311"/>
      <point x="383" y="261"/>
      <point x="383" y="206" type="curve" smooth="yes"/>
      <point x="383" y="102"/>
      <point x="340" y="37"/>
    </contour>
  </outline>
</glyph>
<glyph name="oslash" format="2">
  <advance width="498"/>
  <unicode hex="00F8"/>
  <anchor x="255" y="472" name="top"/>
  <outline>
    <contour>
      <point x="176" y="56" type="line"/>
      <point x="357" y="403" type="line"/>
      <point x="324" y="417" type="line"/>
      <point x="144" y="70" type="line"/>
    </contour>
    <contour>
      <point x="94" y="-98" type="line"/>
      <point x="176" y="56" type="line"/>
      <point x="144" y="70" type="line"/>
      <point x="65" y="-82" type="line"/>
      <point x="67" y="-92" type="line"/>
    </contour>
    <contour>
      <point x="357" y="403" type="line"/>
      <point x="420" y="520" type="line"/>
      <point x="417" y="532" type="line"/>
      <point x="388" y="539" type="line"/>
      <point x="324" y="417" type="line"/>
    </contour>
    <component base="o"/>
  </outline>
</glyph>
<glyph name="thorn" format="2">
  <advance width="510"/>
  <unicode hex="00FE"/>
  <anchor x="217" y="0" name="bottom"/>
  <anchor x="217" y="463" name="top"/>
  <outline>
    <contour>
      <point x="21" y="-237" type="line"/>
      <point x="54" y="-233"/>
      <point x="108" y="-230"/>
      <point x="165" y="-230" type="curve" smooth="yes"/>
      <point x="186" y="-230"/>
      <point x="207" y="-230"/>
      <point x="228" y="-230" type="curve"/>
      <point x="236" y="-192" type="line"/>
      <point x="234" y="-189" type="line"/>
      <point x="160" y="-192"/>
      <point x="152" y="-184"/>
      <point x="152" y="-111" type="curve" smooth="yes"/>
      <point x="152" y="-8" type="line"/>
      <point x="223" y="-12" type="line"/>
      <point x="360" y="-12"/>
      <point x="472" y="106"/>
      <point x="472" y="250" type="curve" smooth="yes"/>
      <point x="472" y="376"/>
      <point x="393" y="464"/>
      <point x="279" y="464" type="curve" smooth="yes"/>
      <point x="265" y="464"/>
      <point x="220" y="438"/>
      <point x="158" y="394" type="curve"/>
      <point x="163" y="584"/>
      <point x="172" y="715"/>
      <point x="181" y="729" type="curve"/>
      <point x="175" y="742" type="line"/>
      <point x="137" y="732"/>
      <point x="75" y="719"/>
      <point x="27" y="713" type="curve"/>
      <point x="23" y="676" type="line"/>
      <point x="71" y="683"/>
      <point x="85" y="673"/>
      <point x="85" y="633" type="curve" smooth="yes"/>
      <point x="85" y="94" type="line"/>
      <point x="83" y="-97" type="line" smooth="yes"/>
      <point x="82" y="-168"/>
      <point x="84" y="-191"/>
      <point x="26" y="-198" type="curve"/>
    </contour>
    <contour>
      <point x="251" y="43" type="curve"/>
      <point x="153" y="64" type="line"/>
      <point x="156" y="342" type="line"/>
      <point x="194" y="374"/>
      <point x="238" y="396"/>
      <point x="263" y="396" type="curve" smooth="yes"/>
      <point x="337" y="396"/>
      <point x="395" y="315"/>
      <point x="395" y="213" type="curve" smooth="yes"/>
      <point x="395" y="108"/>
      <point x="340" y="43"/>
    </contour>
  </outline>
</glyph>
<glyph name="aogonek" format="2">
  <advance width="466"/>
  <unicode hex="0105"/>
  <outline>
    <contour>
      <point x="373" y="-241" type="curve"/>
      <point x="424" y="-224"/>
      <point x="473" y="-178"/>
      <point x="473" y="-178" type="curve"/>
      <point x="460" y="-159" type="line"/>
      <point x="460" y="-159"/>
      <point x="422" y="-182"/>
      <point x="383" y="-182" type="curve" smooth="yes"/>
      <point x="348" y="-182"/>
      <point x="325" y="-160"/>
      <point x="325" y="-128" type="curve" smooth="yes"/>
      <point x="325" y="-89"/>
      <point x="355" y="-46"/>
      <point x="461" y="65" type="curve"/>
      <point x="445" y="84" type="line"/>
      <point x="445" y="84"/>
      <point x="417" y="59"/>
      <point x="385" y="59" type="curve" smooth="yes"/>
      <point x="359" y="59"/>
      <point x="344" y="76"/>
      <point x="344" y="105" type="curve" smooth="yes"/>
      <point x="344" y="144"/>
      <point x="362" y="310"/>
      <point x="362" y="335" type="curve" smooth="yes"/>
      <point x="362" y="430"/>
      <point x="294" y="464"/>
      <point x="223" y="464" type="curve" smooth="yes"/>
      <point x="180" y="464"/>
      <point x="60" y="394"/>
      <point x="60" y="394" type="curve"/>
      <point x="72" y="351" type="line"/>
      <point x="77" y="348" type="line"/>
      <point x="77" y="348"/>
      <point x="132" y="398"/>
      <point x="197" y="398" type="curve" smooth="yes"/>
      <point x="253" y="398"/>
      <point x="285" y="359"/>
      <point x="285" y="292" type="curve"/>
      <point x="283" y="248" type="line"/>
      <point x="94" y="196" type="line" smooth="yes"/>
      <point x="62" y="187"/>
      <point x="41" y="155"/>
      <point x="41" y="116" type="curve" smooth="yes"/>
      <point x="41" y="44"/>
      <point x="95" y="-8"/>
      <point x="169" y="-8" type="curve" smooth="yes"/>
      <point x="189" y="-8"/>
      <point x="231" y="22"/>
      <point x="279" y="70" type="curve"/>
      <point x="283" y="69" type="line"/>
      <point x="286" y="25"/>
      <point x="308" y="-3"/>
      <point x="347" y="-9" type="curve"/>
      <point x="285" y="-73"/>
      <point x="262" y="-111"/>
      <point x="262" y="-147" type="curve" smooth="yes"/>
      <point x="262" y="-205"/>
      <point x="305" y="-241"/>
    </contour>
    <contour>
      <point x="186" y="60" type="curve" smooth="yes"/>
      <point x="146" y="60"/>
      <point x="117" y="89"/>
      <point x="117" y="127" type="curve" smooth="yes"/>
      <point x="117" y="148"/>
      <point x="127" y="162"/>
      <point x="146" y="169" type="curve" smooth="yes"/>
      <point x="281" y="210" type="line"/>
      <point x="277" y="108" type="line"/>
      <point x="249" y="80"/>
      <point x="211" y="60"/>
    </contour>
  </outline>
</glyph>
<glyph name="dcaron" format="2">
  <advance width="571"/>
  <unicode hex="010F"/>
  <outline>
    <contour>
      <point x="511" y="475" type="line"/>
      <point x="536" y="489" type="line"/>
      <point x="557" y="591"/>
      <point x="571" y="701"/>
      <point x="571" y="701" type="curve"/>
      <point x="564" y="709" type="line"/>
      <point x="494" y="695" type="line"/>
      <point x="494" y="695"/>
      <point x="504" y="587"/>
      <point x="500" y="477" type="curve"/>
    </contour>
    <component base="d"/>
  </outline>
</glyph>
<glyph name="Dcroat" format="2">
  <advance width="713"/>
  <unicode hex="0110"/>
  <outline>
    <contour>
      <point x="324" y="-12" type="curve"/>
      <point x="518" y="-12"/>
      <point x="670" y="143"/>
      <point x="670" y="342" type="curve" smooth="yes"/>
      <point x="670" y="516"/>
      <point x="533" y="641"/>
      <point x="341" y="641" type="curve" smooth="yes"/>
      <point x="341" y="641"/>
      <point x="235" y="637"/>
      <point x="189" y="637" type="curve" smooth="yes"/>
      <point x="151" y="637"/>
      <point x="84" y="640"/>
      <point x="84" y="640" type="curve"/>
      <point x="77" y="596" type="line"/>
      <point x="79" y="592" type="line"/>
      <point x="79" y="592"/>
      <point x="101" y="594"/>
      <point x="113" y="594" type="curve" smooth="yes"/>
      <point x="143" y="594"/>
      <point x="150" y="583"/>
      <point x="150" y="540" type="curve" smooth="yes"/>
      <point x="149" y="343" type="line"/>
      <point x="16" y="343" type="line"/>
      <point x="9" y="311" type="line"/>
      <point x="16" y="304" type="line"/>
      <point x="149" y="304" type="line"/>
      <point x="149" y="157" type="line" smooth="yes"/>
      <point x="149" y="61"/>
      <point x="141" y="47"/>
      <point x="71" y="34" type="curve"/>
      <point x="65" y="-12" type="line"/>
      <point x="65" y="-12"/>
      <point x="130" y="0"/>
      <point x="180" y="0" type="curve" smooth="yes"/>
      <point x="231" y="0"/>
      <point x="324" y="-12"/>
    </contour>
    <contour>
      <point x="227" y="343" type="line"/>
      <point x="236" y="570" type="line" smooth="yes"/>
      <point x="237" y="588"/>
      <point x="244" y="592"/>
      <point x="272" y="592" type="curve" smooth="yes"/>
      <point x="469" y="592"/>
      <point x="579" y="494"/>
      <point x="579" y="318" type="curve" smooth="yes"/>
      <point x="579" y="145"/>
      <point x="491" y="39"/>
      <point x="347" y="39" type="curve" smooth="yes"/>
      <point x="247" y="39"/>
      <point x="221" y="58"/>
      <point x="221" y="131" type="curve" smooth="yes"/>
      <point x="226" y="304" type="line"/>
      <point x="396" y="304" type="line"/>
      <point x="402" y="336" type="line"/>
      <point x="397" y="343" type="line"/>
    </contour>
  </outline>
</glyph>
<glyph name="dcroat" format="2">
  <advance width="537"/>
  <unicode hex="0111"/>
  <outline>
    <contour>
      <point x="240" y="535" type="line"/>
      <point x="383" y="536" type="line"/>
      <point x="522" y="537" type="line"/>
      <point x="526" y="574" type="line"/>
      <point x="513" y="587" type="line"/>
      <point x="405" y="582" type="line"/>
      <point x="238" y="583" type="line"/>
      <point x="231" y="544" type="line"/>
    </contour>
    <component base="d"/>
  </outline>
</glyph>
<glyph name="Hbar" format="2">
  <advance width="750"/>
  <unicode hex="0126"/>
  <anchor x="376" y="0" name="bottom"/>
  <anchor x="368" y="324" name="center"/>
  <anchor x="371" y="647" name="top"/>
  <outline>
    <contour>
      <point x="51" y="448" type="line"/>
      <point x="51" y="448"/>
      <point x="233" y="449"/>
      <point x="374" y="449" type="curve" smooth="yes"/>
      <point x="703" y="450" type="line"/>
      <point x="707" y="487" type="line"/>
      <point x="694" y="500" type="line"/>
      <point x="694" y="500"/>
      <point x="516" y="495"/>
      <point x="396" y="495" type="curve" smooth="yes"/>
      <point x="256" y="495"/>
      <point x="49" y="496"/>
      <point x="49" y="496" type="curve"/>
      <point x="42" y="457" type="line"/>
    </contour>
    <component base="H" xOffset="-2"/>
  </outline>
</glyph>
<glyph name="hbar" format="2">
  <advance width="536"/>
  <unicode hex="0127"/>
  <outline>
    <contour>
      <point x="17" y="521" type="line"/>
      <point x="17" y="521"/>
      <point x="80" y="522"/>
      <point x="130" y="522" type="curve" smooth="yes"/>
      <point x="299" y="523" type="line"/>
      <point x="303" y="560" type="line"/>
      <point x="290" y="573" type="line"/>
      <point x="290" y="573"/>
      <point x="195" y="568"/>
      <point x="152" y="568" type="curve" smooth="yes"/>
      <point x="97" y="568"/>
      <point x="15" y="569"/>
      <point x="15" y="569" type="curve"/>
      <point x="8" y="530" type="line"/>
    </contour>
    <component base="h" xOffset="2"/>
  </outline>
</glyph>
<glyph name="imacron" format="2">
  <advance width="282"/>
  <unicode hex="012B"/>
  <outline>
    <contour>
      <point x="44" y="-12" type="line"/>
      <point x="44" y="-12"/>
      <point x="105" y="0"/>
      <point x="147" y="0" type="curve" smooth="yes"/>
      <point x="184" y="0"/>
      <point x="236" y="-3"/>
      <point x="236" y="-3" type="curve"/>
      <point x="244" y="40" type="line"/>
      <point x="242" y="44" type="line"/>
      <point x="242" y="44"/>
      <point x="219" y="42"/>
      <point x="207" y="42" type="curve" smooth="yes"/>
      <point x="182" y="42"/>
      <point x="172" y="59"/>
      <point x="172" y="98" type="curve" smooth="yes"/>
      <point x="172" y="255"/>
      <point x="183" y="424"/>
      <point x="195" y="452" type="curve"/>
      <point x="190" y="464" type="line"/>
      <point x="190" y="464"/>
      <point x="113" y="445"/>
      <point x="46" y="435" type="curve"/>
      <point x="42" y="398" type="line"/>
      <point x="42" y="398"/>
      <point x="56" y="402"/>
      <point x="67" y="402" type="curve" smooth="yes"/>
      <point x="92" y="402"/>
      <point x="104" y="385"/>
      <point x="104" y="348" type="curve" smooth="yes"/>
      <point x="104" y="94" type="line" smooth="yes"/>
      <point x="104" y="59"/>
      <point x="88" y="40"/>
      <point x="48" y="29" type="curve"/>
    </contour>
    <contour>
      <point x="12.399999999999999" y="574" type="line"/>
      <point x="12.399999999999999" y="574"/>
      <point x="88.9" y="575"/>
      <point x="142.0" y="575" type="curve" smooth="yes"/>
      <point x="269.8" y="576" type="line"/>
      <point x="276.1" y="623" type="line"/>
      <point x="270.7" y="633" type="line"/>
      <point x="270.7" y="633"/>
      <point x="199.6" y="627"/>
      <point x="154.6" y="627" type="curve" smooth="yes"/>
      <point x="101.5" y="627"/>
      <point x="16.0" y="628"/>
      <point x="16.0" y="628" type="curve"/>
      <point x="7.0" y="583" type="line"/>
    </contour>
  </outline>
</glyph>
<glyph name="idotless" format="2">
  <advance width="282"/>
  <unicode hex="0131"/>
  <anchor x="159" y="0" name="bottom"/>
  <anchor x="238" y="49" name="ogonek"/>
  <anchor x="137" y="452" name="top"/>
  <outline>
    <contour>
      <point x="44" y="-12" type="line"/>
      <point x="44" y="-12"/>
      <point x="105" y="0"/>
      <point x="147" y="0" type="curve" smooth="yes"/>
      <point x="184" y="0"/>
      <point x="236" y="-3"/>
      <point x="236" y="-3" type="curve"/>
      <point x="244" y="40" type="line"/>
      <point x="242" y="44" type="line"/>
      <point x="242" y="44"/>
      <point x="219" y="42"/>
      <point x="207" y="42" type="curve" smooth="yes"/>
      <point x="182" y="42"/>
      <point x="172" y="59"/>
      <point x="172" y="98" type="curve" smooth="yes"/>
      <point x="172" y="255"/>
      <point x="183" y="424"/>
      <point x="195" y="452" type="curve"/>
      <point x="190" y="464" type="line"/>
      <point x="190" y="464"/>
      <point x="113" y="445"/>
      <point x="46" y="435" type="curve"/>
      <point x="42" y="398" type="line"/>
      <point x="42" y="398"/>
      <point x="56" y="402"/>
      <point x="67" y="402" type="curve" smooth="yes"/>
      <point x="92" y="402"/>
      <point x="104" y="385"/>
      <point x="104" y="348" type="curve" smooth="yes"/>
      <point x="104" y="94" type="line" smooth="yes"/>
      <point x="104" y="59"/>
      <point x="88" y="40"/>
      <point x="48" y="29" type="curve"/>
    </contour>
  </outline>
</glyph>
<glyph name="kgreenlandic" format="2">
  <advance width="512"/>
  <unicode hex="0138"/>
  <outline>
    <contour>
      <point x="195" y="238" type="line"/>
      <point x="313" y="71" type="line" smooth="yes"/>
      <point x="343" y="28"/>
      <point x="362" y="7"/>
      <point x="383" y="-4" type="curve" smooth="yes"/>
      <point x="393" y="-9"/>
      <point x="405" y="-14"/>
      <point x="418" y="-14" type="curve" smooth="yes"/>
      <point x="433" y="-14"/>
      <point x="492" y="2"/>
      <point x="492" y="2" type="curve"/>
      <point x="498" y="31" type="line"/>
      <point x="495" y="36" type="line"/>
      <point x="454" y="36"/>
      <point x="420" y="59"/>
      <point x="374" y="118" type="curve" smooth="yes"/>
      <point x="269" y="253" type="line"/>
      <point x="335" y="317"/>
      <point x="410" y="401"/>
      <point x="482" y="422" type="curve"/>
      <point x="490" y="453" type="line"/>
      <point x="487" y="458" type="line"/>
      <point x="487" y="458"/>
      <point x="430" y="452"/>
      <point x="392" y="452" type="curve" smooth="yes"/>
      <point x="356" y="452"/>
      <point x="294" y="454"/>
      <point x="294" y="454" type="curve"/>
      <point x="285" y="425" type="line"/>
      <point x="288" y="420" type="line"/>
      <point x="327" y="420"/>
      <point x="343" y="414"/>
      <point x="343" y="399" type="curve" smooth="yes"/>
      <point x="343" y="389"/>
      <point x="337" y="381"/>
      <point x="319" y="364" type="curve" smooth="yes"/>
      <point x="197" y="252" type="line"/>
    </contour>
    <contour>
      <point x="49" y="35" type="curve"/>
      <point x="44" y="-6" type="line"/>
      <point x="44" y="-6"/>
      <point x="101" y="0"/>
      <point x="143" y="0" type="curve" smooth="yes"/>
      <point x="180" y="0"/>
      <point x="234" y="-3"/>
      <point x="234" y="-3" type="curve"/>
      <point x="243" y="40" type="line"/>
      <point x="241" y="44" type="line"/>
      <point x="241" y="44"/>
      <point x="218" y="42"/>
      <point x="206" y="42" type="curve" smooth="yes"/>
      <point x="180" y="42"/>
      <point x="170" y="57"/>
      <point x="170" y="98" type="curve" smooth="yes"/>
      <point x="170" y="310"/>
      <point x="178" y="429"/>
      <point x="182" y="451" type="curve"/>
      <point x="176" y="464" type="line"/>
      <point x="176" y="464"/>
      <point x="102" y="453"/>
      <point x="43" y="447" type="curve"/>
      <point x="39" y="412" type="line"/>
      <point x="45" y="407" type="line"/>
      <point x="92" y="407"/>
      <point x="102" y="392"/>
      <point x="102" y="358" type="curve" smooth="yes"/>
      <point x="102" y="135" type="line" smooth="yes"/>
      <point x="102" y="68"/>
      <point x="103" y="43"/>
    </contour>
  </outline>
</glyph>
<glyph name="Lcaron" format="2">
  <advance width="507"/>
  <unicode hex="013D"/>
  <outline>
    <contour>
      <point x="427" y="399" type="line"/>
      <point x="452" y="413" type="line"/>
      <point x="473" y="515"/>
      <point x="487" y="625"/>
      <point x="487" y="625" type="curve"/>
      <point x="480" y="633" type="line"/>
      <point x="410" y="619" type="line"/>
      <point x="410" y="619"/>
      <point x="420" y="511"/>
      <point x="416" y="401" type="curve"/>
    </contour>
    <component base="L"/>
  </outline>
</glyph>
<glyph name="lcaron" format="2">
  <advance width="304"/>
  <unicode hex="013E"/>
  <outline>
    <contour>
      <point x="244" y="465" type="line"/>
      <point x="269" y="479" type="line"/>
      <point x="290" y="581"/>
      <point x="304" y="691"/>
      <point x="304" y="691" type="curve"/>
      <point x="297" y="699" type="line"/>
      <point x="227" y="685" type="line"/>
      <point x="227" y="685"/>
      <point x="237" y="577"/>
      <point x="233" y="467" type="curve"/>
    </contour>
    <component base="l"/>
  </outline>
</glyph>
<glyph name="Lslash" format="2">
  <advance width="551"/>
  <unicode hex="0141"/>
  <outline>
    <contour>
      <point x="75" y="258" type="line"/>
      <point x="190" y="315" type="line"/>
      <point x="190" y="309" type="line"/>
      <point x="411" y="418" type="line"/>
      <point x="406" y="449" type="line"/>
      <point x="398" y="454" type="line"/>
      <point x="190" y="351" type="line"/>
      <point x="190" y="357" type="line"/>
      <point x="61" y="293" type="line"/>
      <point x="66" y="261" type="line"/>
    </contour>
    <component base="L"/>
  </outline>
</glyph>
<glyph name="lslash" format="2">
  <advance width="270"/>
  <unicode hex="0142"/>
  <outline>
    <contour>
      <point x="31" y="308" type="line"/>
      <point x="134" y="365" type="line"/>
      <point x="134" y="361" type="line"/>
      <point x="255" y="428" type="line"/>
      <point x="249" y="459" type="line"/>
      <point x="241" y="463" type="line"/>
      <point x="134" y="404" type="line"/>
      <point x="134" y="408" type="line"/>
      <point x="16" y="342" type="line"/>
      <point x="22" y="310" type="line"/>
    </contour>
    <component base="l" xOffset="13"/>
  </outline>
</glyph>
<glyph name="eng" format="2">
  <advance width="533"/>
  <unicode hex="014B"/>
  <anchor x="291" y="0" name="bottom"/>
  <anchor x="308" y="472" name="top"/>
  <outline>
    <contour>
      <point x="292" y="-144" type="line"/>
      <point x="405" y="-102"/>
      <point x="444" y="-38"/>
      <point x="452" y="96" type="curve" smooth="yes"/>
      <point x="463" y="335" type="line"/>
      <point x="463" y="414"/>
      <point x="410" y="464"/>
      <point x="326" y="464" type="curve" smooth="yes"/>
      <point x="294" y="464"/>
      <point x="203" y="404"/>
      <point x="179" y="388" type="curve"/>
      <point x="177" y="391" type="line"/>
      <point x="179" y="425"/>
      <point x="188" y="457"/>
      <point x="188" y="457" type="curve"/>
      <point x="182" y="465" type="line"/>
      <point x="182" y="465"/>
      <point x="111" y="447"/>
      <point x="42" y="436" type="curve"/>
      <point x="39" y="403" type="line"/>
      <point x="42" y="399" type="line"/>
      <point x="53" y="399" type="line" smooth="yes"/>
      <point x="89" y="399"/>
      <point x="102" y="383"/>
      <point x="102" y="338" type="curve" smooth="yes"/>
      <point x="102" y="94" type="line" smooth="yes"/>
      <point x="102" y="57"/>
      <point x="87" y="41"/>
      <point x="49" y="35" type="curve"/>
      <point x="44" y="-6" type="line"/>
      <point x="44" y="-6"/>
      <point x="101" y="0"/>
      <point x="143" y="0" type="curve" smooth="yes"/>
      <point x="180" y="0"/>
      <point x="234" y="-3"/>
      <point x="234" y="-3" type="curve"/>
      <point x="243" y="40" type="line"/>
      <point x="241" y="44" type="line"/>
      <point x="241" y="44"/>
      <point x="218" y="42"/>
      <point x="206" y="42" type="curve" smooth="yes"/>
      <point x="180" y="42"/>
      <point x="170" y="57"/>
      <point x="170" y="98" type="curve" smooth="yes"/>
      <point x="170" y="137"/>
      <point x="176" y="275"/>
      <point x="179" y="344" type="curve"/>
      <point x="199" y="359"/>
      <point x="253" y="396"/>
      <point x="302" y="396" type="curve" smooth="yes"/>
      <point x="355" y="396"/>
      <point x="385" y="358"/>
      <point x="385" y="292" type="curve" smooth="yes"/>
      <point x="384" y="94" type="line" smooth="yes"/>
      <point x="382" y="-15"/>
      <point x="361" y="-58"/>
      <point x="278" y="-103" type="curve"/>
      <point x="275" y="-111" type="line"/>
    </contour>
  </outline>
</glyph>
<glyph name="OE" format="2">
  <advance width="963"/>
  <unicode hex="0152"/>
  <anchor x="508" y="647" name="top"/>
  <outline>
    <contour>
      <point x="311" y="-12" type="curve" smooth="yes"/>
      <point x="382" y="-12"/>
      <point x="462" y="1"/>
      <point x="565" y="1" type="curve" smooth="yes"/>
      <point x="660" y="1"/>
      <point x="870" y="-7"/>
      <point x="870" y="-7" type="curve"/>
      <point x="875" y="-1" type="line"/>
      <point x="884" y="84"/>
      <point x="902" y="167"/>
      <point x="902" y="167" type="curve"/>
      <point x="899" y="172" type="line"/>
      <point x="855" y="167" type="line"/>
      <point x="839" y="57"/>
      <point x="820" y="45"/>
      <point x="662" y="45" type="curve" smooth="yes"/>
      <point x="590" y="45"/>
      <point x="583" y="51"/>
      <point x="583" y="105" type="curve" smooth="yes"/>
      <point x="586" y="296" type="line"/>
      <point x="664" y="303" type="line" smooth="yes"/>
      <point x="718" y="303"/>
      <point x="804" y="300"/>
      <point x="804" y="300" type="curve"/>
      <point x="818" y="359" type="line"/>
      <point x="814" y="364" type="line"/>
      <point x="814" y="364"/>
      <point x="728" y="353"/>
      <point x="692" y="353" type="curve" smooth="yes"/>
      <point x="588" y="354" type="line"/>
      <point x="596" y="548" type="line" smooth="yes"/>
      <point x="598" y="585"/>
      <point x="601" y="587"/>
      <point x="666" y="587" type="curve" smooth="yes"/>
      <point x="807" y="587"/>
      <point x="820" y="581"/>
      <point x="820" y="516" type="curve" smooth="yes"/>
      <point x="820" y="502"/>
      <point x="818" y="473"/>
      <point x="818" y="473" type="curve"/>
      <point x="866" y="477" type="line"/>
      <point x="872" y="569"/>
      <point x="889" y="643"/>
      <point x="889" y="643" type="curve"/>
      <point x="886" y="649" type="line"/>
      <point x="814" y="639"/>
      <point x="724" y="635"/>
      <point x="582" y="635" type="curve" smooth="yes"/>
      <point x="500" y="635"/>
      <point x="431" y="649"/>
      <point x="363" y="649" type="curve" smooth="yes"/>
      <point x="182" y="649"/>
      <point x="41" y="495"/>
      <point x="41" y="297" type="curve" smooth="yes"/>
      <point x="41" y="115"/>
      <point x="152" y="-12"/>
    </contour>
    <contour>
      <point x="342" y="40" type="curve" smooth="yes"/>
      <point x="214" y="40"/>
      <point x="127" y="158"/>
      <point x="127" y="330" type="curve" smooth="yes"/>
      <point x="127" y="484"/>
      <point x="214" y="591"/>
      <point x="339" y="591" type="curve" smooth="yes"/>
      <point x="483" y="591"/>
      <point x="521" y="566"/>
      <point x="521" y="467" type="curve" smooth="yes"/>
      <point x="520" y="208" type="line"/>
      <point x="518" y="85"/>
      <point x="471" y="40"/>
    </contour>
  </outline>
</glyph>
